<?xml version="1.0" encoding="utf-8" standalone="no"?>
<!DOCTYPE svg PUBLIC "-//W3C//DTD SVG 1.1//EN"
  "http://www.w3.org/Graphics/SVG/1.1/DTD/svg11.dtd">
<!-- Created with matplotlib (https://matplotlib.org/) -->
<svg height="508.8pt" version="1.1" viewBox="0 0 1024 508.8" width="1024pt" xmlns="http://www.w3.org/2000/svg" xmlns:xlink="http://www.w3.org/1999/xlink">
 <metadata>
  <rdf:RDF xmlns:cc="http://creativecommons.org/ns#" xmlns:dc="http://purl.org/dc/elements/1.1/" xmlns:rdf="http://www.w3.org/1999/02/22-rdf-syntax-ns#">
   <cc:Work>
    <dc:type rdf:resource="http://purl.org/dc/dcmitype/StillImage"/>
    <dc:date>2021-04-06T17:59:41.560196</dc:date>
    <dc:format>image/svg+xml</dc:format>
    <dc:creator>
     <cc:Agent>
      <dc:title>Matplotlib v3.3.4, https://matplotlib.org/</dc:title>
     </cc:Agent>
    </dc:creator>
   </cc:Work>
  </rdf:RDF>
 </metadata>
 <defs>
  <style type="text/css">*{stroke-linecap:butt;stroke-linejoin:round;}</style>
 </defs>
 <g id="figure_1">
  <g id="patch_1">
   <path d="M 0 508.8 
L 1024 508.8 
L 1024 0 
L 0 0 
z
" style="fill:#ffffff;"/>
  </g>
  <g id="axes_1">
   <g id="patch_2">
    <path d="M 102.4 457.92 
L 716.8 457.92 
L 716.8 76.32 
L 102.4 76.32 
z
" style="fill:#ffffff;"/>
   </g>
   <g id="matplotlib.axis_1">
    <g id="xtick_1">
     <g id="line2d_1">
      <path clip-path="url(#p01f2cbacfb)" d="M 107.911873 457.92 
L 107.911873 76.32 
" style="fill:none;stroke:#b0b0b0;stroke-linecap:square;stroke-width:0.8;"/>
     </g>
     <g id="line2d_2">
      <defs>
       <path d="M 0 0 
L 0 3.5 
" id="m80413457e0" style="stroke:#000000;stroke-width:0.8;"/>
      </defs>
      <g>
       <use style="stroke:#000000;stroke-width:0.8;" x="107.911873" xlink:href="#m80413457e0" y="457.92"/>
      </g>
     </g>
     <g id="text_1">
      <!-- 170 -->
      <g transform="translate(98.368123 472.518437)scale(0.1 -0.1)">
       <defs>
        <path d="M 12.40625 8.296875 
L 28.515625 8.296875 
L 28.515625 63.921875 
L 10.984375 60.40625 
L 10.984375 69.390625 
L 28.421875 72.90625 
L 38.28125 72.90625 
L 38.28125 8.296875 
L 54.390625 8.296875 
L 54.390625 0 
L 12.40625 0 
z
" id="DejaVuSans-49"/>
        <path d="M 8.203125 72.90625 
L 55.078125 72.90625 
L 55.078125 68.703125 
L 28.609375 0 
L 18.3125 0 
L 43.21875 64.59375 
L 8.203125 64.59375 
z
" id="DejaVuSans-55"/>
        <path d="M 31.78125 66.40625 
Q 24.171875 66.40625 20.328125 58.90625 
Q 16.5 51.421875 16.5 36.375 
Q 16.5 21.390625 20.328125 13.890625 
Q 24.171875 6.390625 31.78125 6.390625 
Q 39.453125 6.390625 43.28125 13.890625 
Q 47.125 21.390625 47.125 36.375 
Q 47.125 51.421875 43.28125 58.90625 
Q 39.453125 66.40625 31.78125 66.40625 
z
M 31.78125 74.21875 
Q 44.046875 74.21875 50.515625 64.515625 
Q 56.984375 54.828125 56.984375 36.375 
Q 56.984375 17.96875 50.515625 8.265625 
Q 44.046875 -1.421875 31.78125 -1.421875 
Q 19.53125 -1.421875 13.0625 8.265625 
Q 6.59375 17.96875 6.59375 36.375 
Q 6.59375 54.828125 13.0625 64.515625 
Q 19.53125 74.21875 31.78125 74.21875 
z
" id="DejaVuSans-48"/>
       </defs>
       <use xlink:href="#DejaVuSans-49"/>
       <use x="63.623047" xlink:href="#DejaVuSans-55"/>
       <use x="127.246094" xlink:href="#DejaVuSans-48"/>
      </g>
     </g>
    </g>
    <g id="xtick_2">
     <g id="line2d_3">
      <path clip-path="url(#p01f2cbacfb)" d="M 182.332813 457.92 
L 182.332813 76.32 
" style="fill:none;stroke:#b0b0b0;stroke-linecap:square;stroke-width:0.8;"/>
     </g>
     <g id="line2d_4">
      <g>
       <use style="stroke:#000000;stroke-width:0.8;" x="182.332813" xlink:href="#m80413457e0" y="457.92"/>
      </g>
     </g>
     <g id="text_2">
      <!-- 175 -->
      <g transform="translate(172.789063 472.518437)scale(0.1 -0.1)">
       <defs>
        <path d="M 10.796875 72.90625 
L 49.515625 72.90625 
L 49.515625 64.59375 
L 19.828125 64.59375 
L 19.828125 46.734375 
Q 21.96875 47.46875 24.109375 47.828125 
Q 26.265625 48.1875 28.421875 48.1875 
Q 40.625 48.1875 47.75 41.5 
Q 54.890625 34.8125 54.890625 23.390625 
Q 54.890625 11.625 47.5625 5.09375 
Q 40.234375 -1.421875 26.90625 -1.421875 
Q 22.3125 -1.421875 17.546875 -0.640625 
Q 12.796875 0.140625 7.71875 1.703125 
L 7.71875 11.625 
Q 12.109375 9.234375 16.796875 8.0625 
Q 21.484375 6.890625 26.703125 6.890625 
Q 35.15625 6.890625 40.078125 11.328125 
Q 45.015625 15.765625 45.015625 23.390625 
Q 45.015625 31 40.078125 35.4375 
Q 35.15625 39.890625 26.703125 39.890625 
Q 22.75 39.890625 18.8125 39.015625 
Q 14.890625 38.140625 10.796875 36.28125 
z
" id="DejaVuSans-53"/>
       </defs>
       <use xlink:href="#DejaVuSans-49"/>
       <use x="63.623047" xlink:href="#DejaVuSans-55"/>
       <use x="127.246094" xlink:href="#DejaVuSans-53"/>
      </g>
     </g>
    </g>
    <g id="xtick_3">
     <g id="line2d_5">
      <path clip-path="url(#p01f2cbacfb)" d="M 256.753753 457.92 
L 256.753753 76.32 
" style="fill:none;stroke:#b0b0b0;stroke-linecap:square;stroke-width:0.8;"/>
     </g>
     <g id="line2d_6">
      <g>
       <use style="stroke:#000000;stroke-width:0.8;" x="256.753753" xlink:href="#m80413457e0" y="457.92"/>
      </g>
     </g>
     <g id="text_3">
      <!-- 180 -->
      <g transform="translate(247.210003 472.518437)scale(0.1 -0.1)">
       <defs>
        <path d="M 31.78125 34.625 
Q 24.75 34.625 20.71875 30.859375 
Q 16.703125 27.09375 16.703125 20.515625 
Q 16.703125 13.921875 20.71875 10.15625 
Q 24.75 6.390625 31.78125 6.390625 
Q 38.8125 6.390625 42.859375 10.171875 
Q 46.921875 13.96875 46.921875 20.515625 
Q 46.921875 27.09375 42.890625 30.859375 
Q 38.875 34.625 31.78125 34.625 
z
M 21.921875 38.8125 
Q 15.578125 40.375 12.03125 44.71875 
Q 8.5 49.078125 8.5 55.328125 
Q 8.5 64.0625 14.71875 69.140625 
Q 20.953125 74.21875 31.78125 74.21875 
Q 42.671875 74.21875 48.875 69.140625 
Q 55.078125 64.0625 55.078125 55.328125 
Q 55.078125 49.078125 51.53125 44.71875 
Q 48 40.375 41.703125 38.8125 
Q 48.828125 37.15625 52.796875 32.3125 
Q 56.78125 27.484375 56.78125 20.515625 
Q 56.78125 9.90625 50.3125 4.234375 
Q 43.84375 -1.421875 31.78125 -1.421875 
Q 19.734375 -1.421875 13.25 4.234375 
Q 6.78125 9.90625 6.78125 20.515625 
Q 6.78125 27.484375 10.78125 32.3125 
Q 14.796875 37.15625 21.921875 38.8125 
z
M 18.3125 54.390625 
Q 18.3125 48.734375 21.84375 45.5625 
Q 25.390625 42.390625 31.78125 42.390625 
Q 38.140625 42.390625 41.71875 45.5625 
Q 45.3125 48.734375 45.3125 54.390625 
Q 45.3125 60.0625 41.71875 63.234375 
Q 38.140625 66.40625 31.78125 66.40625 
Q 25.390625 66.40625 21.84375 63.234375 
Q 18.3125 60.0625 18.3125 54.390625 
z
" id="DejaVuSans-56"/>
       </defs>
       <use xlink:href="#DejaVuSans-49"/>
       <use x="63.623047" xlink:href="#DejaVuSans-56"/>
       <use x="127.246094" xlink:href="#DejaVuSans-48"/>
      </g>
     </g>
    </g>
    <g id="xtick_4">
     <g id="line2d_7">
      <path clip-path="url(#p01f2cbacfb)" d="M 331.174693 457.92 
L 331.174693 76.32 
" style="fill:none;stroke:#b0b0b0;stroke-linecap:square;stroke-width:0.8;"/>
     </g>
     <g id="line2d_8">
      <g>
       <use style="stroke:#000000;stroke-width:0.8;" x="331.174693" xlink:href="#m80413457e0" y="457.92"/>
      </g>
     </g>
     <g id="text_4">
      <!-- 185 -->
      <g transform="translate(321.630943 472.518437)scale(0.1 -0.1)">
       <use xlink:href="#DejaVuSans-49"/>
       <use x="63.623047" xlink:href="#DejaVuSans-56"/>
       <use x="127.246094" xlink:href="#DejaVuSans-53"/>
      </g>
     </g>
    </g>
    <g id="xtick_5">
     <g id="line2d_9">
      <path clip-path="url(#p01f2cbacfb)" d="M 405.595633 457.92 
L 405.595633 76.32 
" style="fill:none;stroke:#b0b0b0;stroke-linecap:square;stroke-width:0.8;"/>
     </g>
     <g id="line2d_10">
      <g>
       <use style="stroke:#000000;stroke-width:0.8;" x="405.595633" xlink:href="#m80413457e0" y="457.92"/>
      </g>
     </g>
     <g id="text_5">
      <!-- 190 -->
      <g transform="translate(396.051883 472.518437)scale(0.1 -0.1)">
       <defs>
        <path d="M 10.984375 1.515625 
L 10.984375 10.5 
Q 14.703125 8.734375 18.5 7.8125 
Q 22.3125 6.890625 25.984375 6.890625 
Q 35.75 6.890625 40.890625 13.453125 
Q 46.046875 20.015625 46.78125 33.40625 
Q 43.953125 29.203125 39.59375 26.953125 
Q 35.25 24.703125 29.984375 24.703125 
Q 19.046875 24.703125 12.671875 31.3125 
Q 6.296875 37.9375 6.296875 49.421875 
Q 6.296875 60.640625 12.9375 67.421875 
Q 19.578125 74.21875 30.609375 74.21875 
Q 43.265625 74.21875 49.921875 64.515625 
Q 56.59375 54.828125 56.59375 36.375 
Q 56.59375 19.140625 48.40625 8.859375 
Q 40.234375 -1.421875 26.421875 -1.421875 
Q 22.703125 -1.421875 18.890625 -0.6875 
Q 15.09375 0.046875 10.984375 1.515625 
z
M 30.609375 32.421875 
Q 37.25 32.421875 41.125 36.953125 
Q 45.015625 41.5 45.015625 49.421875 
Q 45.015625 57.28125 41.125 61.84375 
Q 37.25 66.40625 30.609375 66.40625 
Q 23.96875 66.40625 20.09375 61.84375 
Q 16.21875 57.28125 16.21875 49.421875 
Q 16.21875 41.5 20.09375 36.953125 
Q 23.96875 32.421875 30.609375 32.421875 
z
" id="DejaVuSans-57"/>
       </defs>
       <use xlink:href="#DejaVuSans-49"/>
       <use x="63.623047" xlink:href="#DejaVuSans-57"/>
       <use x="127.246094" xlink:href="#DejaVuSans-48"/>
      </g>
     </g>
    </g>
    <g id="xtick_6">
     <g id="line2d_11">
      <path clip-path="url(#p01f2cbacfb)" d="M 480.016573 457.92 
L 480.016573 76.32 
" style="fill:none;stroke:#b0b0b0;stroke-linecap:square;stroke-width:0.8;"/>
     </g>
     <g id="line2d_12">
      <g>
       <use style="stroke:#000000;stroke-width:0.8;" x="480.016573" xlink:href="#m80413457e0" y="457.92"/>
      </g>
     </g>
     <g id="text_6">
      <!-- 195 -->
      <g transform="translate(470.472823 472.518437)scale(0.1 -0.1)">
       <use xlink:href="#DejaVuSans-49"/>
       <use x="63.623047" xlink:href="#DejaVuSans-57"/>
       <use x="127.246094" xlink:href="#DejaVuSans-53"/>
      </g>
     </g>
    </g>
    <g id="xtick_7">
     <g id="line2d_13">
      <path clip-path="url(#p01f2cbacfb)" d="M 554.437512 457.92 
L 554.437512 76.32 
" style="fill:none;stroke:#b0b0b0;stroke-linecap:square;stroke-width:0.8;"/>
     </g>
     <g id="line2d_14">
      <g>
       <use style="stroke:#000000;stroke-width:0.8;" x="554.437512" xlink:href="#m80413457e0" y="457.92"/>
      </g>
     </g>
     <g id="text_7">
      <!-- 200 -->
      <g transform="translate(544.893762 472.518437)scale(0.1 -0.1)">
       <defs>
        <path d="M 19.1875 8.296875 
L 53.609375 8.296875 
L 53.609375 0 
L 7.328125 0 
L 7.328125 8.296875 
Q 12.9375 14.109375 22.625 23.890625 
Q 32.328125 33.6875 34.8125 36.53125 
Q 39.546875 41.84375 41.421875 45.53125 
Q 43.3125 49.21875 43.3125 52.78125 
Q 43.3125 58.59375 39.234375 62.25 
Q 35.15625 65.921875 28.609375 65.921875 
Q 23.96875 65.921875 18.8125 64.3125 
Q 13.671875 62.703125 7.8125 59.421875 
L 7.8125 69.390625 
Q 13.765625 71.78125 18.9375 73 
Q 24.125 74.21875 28.421875 74.21875 
Q 39.75 74.21875 46.484375 68.546875 
Q 53.21875 62.890625 53.21875 53.421875 
Q 53.21875 48.921875 51.53125 44.890625 
Q 49.859375 40.875 45.40625 35.40625 
Q 44.1875 33.984375 37.640625 27.21875 
Q 31.109375 20.453125 19.1875 8.296875 
z
" id="DejaVuSans-50"/>
       </defs>
       <use xlink:href="#DejaVuSans-50"/>
       <use x="63.623047" xlink:href="#DejaVuSans-48"/>
       <use x="127.246094" xlink:href="#DejaVuSans-48"/>
      </g>
     </g>
    </g>
    <g id="xtick_8">
     <g id="line2d_15">
      <path clip-path="url(#p01f2cbacfb)" d="M 628.858452 457.92 
L 628.858452 76.32 
" style="fill:none;stroke:#b0b0b0;stroke-linecap:square;stroke-width:0.8;"/>
     </g>
     <g id="line2d_16">
      <g>
       <use style="stroke:#000000;stroke-width:0.8;" x="628.858452" xlink:href="#m80413457e0" y="457.92"/>
      </g>
     </g>
     <g id="text_8">
      <!-- 205 -->
      <g transform="translate(619.314702 472.518437)scale(0.1 -0.1)">
       <use xlink:href="#DejaVuSans-50"/>
       <use x="63.623047" xlink:href="#DejaVuSans-48"/>
       <use x="127.246094" xlink:href="#DejaVuSans-53"/>
      </g>
     </g>
    </g>
    <g id="xtick_9">
     <g id="line2d_17">
      <path clip-path="url(#p01f2cbacfb)" d="M 703.279392 457.92 
L 703.279392 76.32 
" style="fill:none;stroke:#b0b0b0;stroke-linecap:square;stroke-width:0.8;"/>
     </g>
     <g id="line2d_18">
      <g>
       <use style="stroke:#000000;stroke-width:0.8;" x="703.279392" xlink:href="#m80413457e0" y="457.92"/>
      </g>
     </g>
     <g id="text_9">
      <!-- 210 -->
      <g transform="translate(693.735642 472.518437)scale(0.1 -0.1)">
       <use xlink:href="#DejaVuSans-50"/>
       <use x="63.623047" xlink:href="#DejaVuSans-49"/>
       <use x="127.246094" xlink:href="#DejaVuSans-48"/>
      </g>
     </g>
    </g>
    <g id="text_10">
     <!-- Time (in seconds) -->
     <g transform="translate(365.291406 486.196562)scale(0.1 -0.1)">
      <defs>
       <path d="M -0.296875 72.90625 
L 61.375 72.90625 
L 61.375 64.59375 
L 35.5 64.59375 
L 35.5 0 
L 25.59375 0 
L 25.59375 64.59375 
L -0.296875 64.59375 
z
" id="DejaVuSans-84"/>
       <path d="M 9.421875 54.6875 
L 18.40625 54.6875 
L 18.40625 0 
L 9.421875 0 
z
M 9.421875 75.984375 
L 18.40625 75.984375 
L 18.40625 64.59375 
L 9.421875 64.59375 
z
" id="DejaVuSans-105"/>
       <path d="M 52 44.1875 
Q 55.375 50.25 60.0625 53.125 
Q 64.75 56 71.09375 56 
Q 79.640625 56 84.28125 50.015625 
Q 88.921875 44.046875 88.921875 33.015625 
L 88.921875 0 
L 79.890625 0 
L 79.890625 32.71875 
Q 79.890625 40.578125 77.09375 44.375 
Q 74.3125 48.1875 68.609375 48.1875 
Q 61.625 48.1875 57.5625 43.546875 
Q 53.515625 38.921875 53.515625 30.90625 
L 53.515625 0 
L 44.484375 0 
L 44.484375 32.71875 
Q 44.484375 40.625 41.703125 44.40625 
Q 38.921875 48.1875 33.109375 48.1875 
Q 26.21875 48.1875 22.15625 43.53125 
Q 18.109375 38.875 18.109375 30.90625 
L 18.109375 0 
L 9.078125 0 
L 9.078125 54.6875 
L 18.109375 54.6875 
L 18.109375 46.1875 
Q 21.1875 51.21875 25.484375 53.609375 
Q 29.78125 56 35.6875 56 
Q 41.65625 56 45.828125 52.96875 
Q 50 49.953125 52 44.1875 
z
" id="DejaVuSans-109"/>
       <path d="M 56.203125 29.59375 
L 56.203125 25.203125 
L 14.890625 25.203125 
Q 15.484375 15.921875 20.484375 11.0625 
Q 25.484375 6.203125 34.421875 6.203125 
Q 39.59375 6.203125 44.453125 7.46875 
Q 49.3125 8.734375 54.109375 11.28125 
L 54.109375 2.78125 
Q 49.265625 0.734375 44.1875 -0.34375 
Q 39.109375 -1.421875 33.890625 -1.421875 
Q 20.796875 -1.421875 13.15625 6.1875 
Q 5.515625 13.8125 5.515625 26.8125 
Q 5.515625 40.234375 12.765625 48.109375 
Q 20.015625 56 32.328125 56 
Q 43.359375 56 49.78125 48.890625 
Q 56.203125 41.796875 56.203125 29.59375 
z
M 47.21875 32.234375 
Q 47.125 39.59375 43.09375 43.984375 
Q 39.0625 48.390625 32.421875 48.390625 
Q 24.90625 48.390625 20.390625 44.140625 
Q 15.875 39.890625 15.1875 32.171875 
z
" id="DejaVuSans-101"/>
       <path id="DejaVuSans-32"/>
       <path d="M 31 75.875 
Q 24.46875 64.65625 21.28125 53.65625 
Q 18.109375 42.671875 18.109375 31.390625 
Q 18.109375 20.125 21.3125 9.0625 
Q 24.515625 -2 31 -13.1875 
L 23.1875 -13.1875 
Q 15.875 -1.703125 12.234375 9.375 
Q 8.59375 20.453125 8.59375 31.390625 
Q 8.59375 42.28125 12.203125 53.3125 
Q 15.828125 64.359375 23.1875 75.875 
z
" id="DejaVuSans-40"/>
       <path d="M 54.890625 33.015625 
L 54.890625 0 
L 45.90625 0 
L 45.90625 32.71875 
Q 45.90625 40.484375 42.875 44.328125 
Q 39.84375 48.1875 33.796875 48.1875 
Q 26.515625 48.1875 22.3125 43.546875 
Q 18.109375 38.921875 18.109375 30.90625 
L 18.109375 0 
L 9.078125 0 
L 9.078125 54.6875 
L 18.109375 54.6875 
L 18.109375 46.1875 
Q 21.34375 51.125 25.703125 53.5625 
Q 30.078125 56 35.796875 56 
Q 45.21875 56 50.046875 50.171875 
Q 54.890625 44.34375 54.890625 33.015625 
z
" id="DejaVuSans-110"/>
       <path d="M 44.28125 53.078125 
L 44.28125 44.578125 
Q 40.484375 46.53125 36.375 47.5 
Q 32.28125 48.484375 27.875 48.484375 
Q 21.1875 48.484375 17.84375 46.4375 
Q 14.5 44.390625 14.5 40.28125 
Q 14.5 37.15625 16.890625 35.375 
Q 19.28125 33.59375 26.515625 31.984375 
L 29.59375 31.296875 
Q 39.15625 29.25 43.1875 25.515625 
Q 47.21875 21.78125 47.21875 15.09375 
Q 47.21875 7.46875 41.1875 3.015625 
Q 35.15625 -1.421875 24.609375 -1.421875 
Q 20.21875 -1.421875 15.453125 -0.5625 
Q 10.6875 0.296875 5.421875 2 
L 5.421875 11.28125 
Q 10.40625 8.6875 15.234375 7.390625 
Q 20.0625 6.109375 24.8125 6.109375 
Q 31.15625 6.109375 34.5625 8.28125 
Q 37.984375 10.453125 37.984375 14.40625 
Q 37.984375 18.0625 35.515625 20.015625 
Q 33.0625 21.96875 24.703125 23.78125 
L 21.578125 24.515625 
Q 13.234375 26.265625 9.515625 29.90625 
Q 5.8125 33.546875 5.8125 39.890625 
Q 5.8125 47.609375 11.28125 51.796875 
Q 16.75 56 26.8125 56 
Q 31.78125 56 36.171875 55.265625 
Q 40.578125 54.546875 44.28125 53.078125 
z
" id="DejaVuSans-115"/>
       <path d="M 48.78125 52.59375 
L 48.78125 44.1875 
Q 44.96875 46.296875 41.140625 47.34375 
Q 37.3125 48.390625 33.40625 48.390625 
Q 24.65625 48.390625 19.8125 42.84375 
Q 14.984375 37.3125 14.984375 27.296875 
Q 14.984375 17.28125 19.8125 11.734375 
Q 24.65625 6.203125 33.40625 6.203125 
Q 37.3125 6.203125 41.140625 7.25 
Q 44.96875 8.296875 48.78125 10.40625 
L 48.78125 2.09375 
Q 45.015625 0.34375 40.984375 -0.53125 
Q 36.96875 -1.421875 32.421875 -1.421875 
Q 20.0625 -1.421875 12.78125 6.34375 
Q 5.515625 14.109375 5.515625 27.296875 
Q 5.515625 40.671875 12.859375 48.328125 
Q 20.21875 56 33.015625 56 
Q 37.15625 56 41.109375 55.140625 
Q 45.0625 54.296875 48.78125 52.59375 
z
" id="DejaVuSans-99"/>
       <path d="M 30.609375 48.390625 
Q 23.390625 48.390625 19.1875 42.75 
Q 14.984375 37.109375 14.984375 27.296875 
Q 14.984375 17.484375 19.15625 11.84375 
Q 23.34375 6.203125 30.609375 6.203125 
Q 37.796875 6.203125 41.984375 11.859375 
Q 46.1875 17.53125 46.1875 27.296875 
Q 46.1875 37.015625 41.984375 42.703125 
Q 37.796875 48.390625 30.609375 48.390625 
z
M 30.609375 56 
Q 42.328125 56 49.015625 48.375 
Q 55.71875 40.765625 55.71875 27.296875 
Q 55.71875 13.875 49.015625 6.21875 
Q 42.328125 -1.421875 30.609375 -1.421875 
Q 18.84375 -1.421875 12.171875 6.21875 
Q 5.515625 13.875 5.515625 27.296875 
Q 5.515625 40.765625 12.171875 48.375 
Q 18.84375 56 30.609375 56 
z
" id="DejaVuSans-111"/>
       <path d="M 45.40625 46.390625 
L 45.40625 75.984375 
L 54.390625 75.984375 
L 54.390625 0 
L 45.40625 0 
L 45.40625 8.203125 
Q 42.578125 3.328125 38.25 0.953125 
Q 33.9375 -1.421875 27.875 -1.421875 
Q 17.96875 -1.421875 11.734375 6.484375 
Q 5.515625 14.40625 5.515625 27.296875 
Q 5.515625 40.1875 11.734375 48.09375 
Q 17.96875 56 27.875 56 
Q 33.9375 56 38.25 53.625 
Q 42.578125 51.265625 45.40625 46.390625 
z
M 14.796875 27.296875 
Q 14.796875 17.390625 18.875 11.75 
Q 22.953125 6.109375 30.078125 6.109375 
Q 37.203125 6.109375 41.296875 11.75 
Q 45.40625 17.390625 45.40625 27.296875 
Q 45.40625 37.203125 41.296875 42.84375 
Q 37.203125 48.484375 30.078125 48.484375 
Q 22.953125 48.484375 18.875 42.84375 
Q 14.796875 37.203125 14.796875 27.296875 
z
" id="DejaVuSans-100"/>
       <path d="M 8.015625 75.875 
L 15.828125 75.875 
Q 23.140625 64.359375 26.78125 53.3125 
Q 30.421875 42.28125 30.421875 31.390625 
Q 30.421875 20.453125 26.78125 9.375 
Q 23.140625 -1.703125 15.828125 -13.1875 
L 8.015625 -13.1875 
Q 14.5 -2 17.703125 9.0625 
Q 20.90625 20.125 20.90625 31.390625 
Q 20.90625 42.671875 17.703125 53.65625 
Q 14.5 64.65625 8.015625 75.875 
z
" id="DejaVuSans-41"/>
      </defs>
      <use xlink:href="#DejaVuSans-84"/>
      <use x="57.958984" xlink:href="#DejaVuSans-105"/>
      <use x="85.742188" xlink:href="#DejaVuSans-109"/>
      <use x="183.154297" xlink:href="#DejaVuSans-101"/>
      <use x="244.677734" xlink:href="#DejaVuSans-32"/>
      <use x="276.464844" xlink:href="#DejaVuSans-40"/>
      <use x="315.478516" xlink:href="#DejaVuSans-105"/>
      <use x="343.261719" xlink:href="#DejaVuSans-110"/>
      <use x="406.640625" xlink:href="#DejaVuSans-32"/>
      <use x="438.427734" xlink:href="#DejaVuSans-115"/>
      <use x="490.527344" xlink:href="#DejaVuSans-101"/>
      <use x="552.050781" xlink:href="#DejaVuSans-99"/>
      <use x="607.03125" xlink:href="#DejaVuSans-111"/>
      <use x="668.212891" xlink:href="#DejaVuSans-110"/>
      <use x="731.591797" xlink:href="#DejaVuSans-100"/>
      <use x="795.068359" xlink:href="#DejaVuSans-115"/>
      <use x="847.167969" xlink:href="#DejaVuSans-41"/>
     </g>
    </g>
   </g>
   <g id="matplotlib.axis_2">
    <g id="ytick_1">
     <g id="line2d_19">
      <path clip-path="url(#p01f2cbacfb)" d="M 102.4 412.062989 
L 716.8 412.062989 
" style="fill:none;stroke:#b0b0b0;stroke-linecap:square;stroke-width:0.8;"/>
     </g>
     <g id="line2d_20">
      <defs>
       <path d="M 0 0 
L -3.5 0 
" id="m16e6817ec1" style="stroke:#000000;stroke-width:0.8;"/>
      </defs>
      <g>
       <use style="stroke:#000000;stroke-width:0.8;" x="102.4" xlink:href="#m16e6817ec1" y="412.062989"/>
      </g>
     </g>
     <g id="text_11">
      <!-- 230 -->
      <g transform="translate(76.3125 415.862208)scale(0.1 -0.1)">
       <defs>
        <path d="M 40.578125 39.3125 
Q 47.65625 37.796875 51.625 33 
Q 55.609375 28.21875 55.609375 21.1875 
Q 55.609375 10.40625 48.1875 4.484375 
Q 40.765625 -1.421875 27.09375 -1.421875 
Q 22.515625 -1.421875 17.65625 -0.515625 
Q 12.796875 0.390625 7.625 2.203125 
L 7.625 11.71875 
Q 11.71875 9.328125 16.59375 8.109375 
Q 21.484375 6.890625 26.8125 6.890625 
Q 36.078125 6.890625 40.9375 10.546875 
Q 45.796875 14.203125 45.796875 21.1875 
Q 45.796875 27.640625 41.28125 31.265625 
Q 36.765625 34.90625 28.71875 34.90625 
L 20.21875 34.90625 
L 20.21875 43.015625 
L 29.109375 43.015625 
Q 36.375 43.015625 40.234375 45.921875 
Q 44.09375 48.828125 44.09375 54.296875 
Q 44.09375 59.90625 40.109375 62.90625 
Q 36.140625 65.921875 28.71875 65.921875 
Q 24.65625 65.921875 20.015625 65.03125 
Q 15.375 64.15625 9.8125 62.3125 
L 9.8125 71.09375 
Q 15.4375 72.65625 20.34375 73.4375 
Q 25.25 74.21875 29.59375 74.21875 
Q 40.828125 74.21875 47.359375 69.109375 
Q 53.90625 64.015625 53.90625 55.328125 
Q 53.90625 49.265625 50.4375 45.09375 
Q 46.96875 40.921875 40.578125 39.3125 
z
" id="DejaVuSans-51"/>
       </defs>
       <use xlink:href="#DejaVuSans-50"/>
       <use x="63.623047" xlink:href="#DejaVuSans-51"/>
       <use x="127.246094" xlink:href="#DejaVuSans-48"/>
      </g>
     </g>
    </g>
    <g id="ytick_2">
     <g id="line2d_21">
      <path clip-path="url(#p01f2cbacfb)" d="M 102.4 351.231006 
L 716.8 351.231006 
" style="fill:none;stroke:#b0b0b0;stroke-linecap:square;stroke-width:0.8;"/>
     </g>
     <g id="line2d_22">
      <g>
       <use style="stroke:#000000;stroke-width:0.8;" x="102.4" xlink:href="#m16e6817ec1" y="351.231006"/>
      </g>
     </g>
     <g id="text_12">
      <!-- 240 -->
      <g transform="translate(76.3125 355.030225)scale(0.1 -0.1)">
       <defs>
        <path d="M 37.796875 64.3125 
L 12.890625 25.390625 
L 37.796875 25.390625 
z
M 35.203125 72.90625 
L 47.609375 72.90625 
L 47.609375 25.390625 
L 58.015625 25.390625 
L 58.015625 17.1875 
L 47.609375 17.1875 
L 47.609375 0 
L 37.796875 0 
L 37.796875 17.1875 
L 4.890625 17.1875 
L 4.890625 26.703125 
z
" id="DejaVuSans-52"/>
       </defs>
       <use xlink:href="#DejaVuSans-50"/>
       <use x="63.623047" xlink:href="#DejaVuSans-52"/>
       <use x="127.246094" xlink:href="#DejaVuSans-48"/>
      </g>
     </g>
    </g>
    <g id="ytick_3">
     <g id="line2d_23">
      <path clip-path="url(#p01f2cbacfb)" d="M 102.4 290.399023 
L 716.8 290.399023 
" style="fill:none;stroke:#b0b0b0;stroke-linecap:square;stroke-width:0.8;"/>
     </g>
     <g id="line2d_24">
      <g>
       <use style="stroke:#000000;stroke-width:0.8;" x="102.4" xlink:href="#m16e6817ec1" y="290.399023"/>
      </g>
     </g>
     <g id="text_13">
      <!-- 250 -->
      <g transform="translate(76.3125 294.198242)scale(0.1 -0.1)">
       <use xlink:href="#DejaVuSans-50"/>
       <use x="63.623047" xlink:href="#DejaVuSans-53"/>
       <use x="127.246094" xlink:href="#DejaVuSans-48"/>
      </g>
     </g>
    </g>
    <g id="ytick_4">
     <g id="line2d_25">
      <path clip-path="url(#p01f2cbacfb)" d="M 102.4 229.56704 
L 716.8 229.56704 
" style="fill:none;stroke:#b0b0b0;stroke-linecap:square;stroke-width:0.8;"/>
     </g>
     <g id="line2d_26">
      <g>
       <use style="stroke:#000000;stroke-width:0.8;" x="102.4" xlink:href="#m16e6817ec1" y="229.56704"/>
      </g>
     </g>
     <g id="text_14">
      <!-- 260 -->
      <g transform="translate(76.3125 233.366259)scale(0.1 -0.1)">
       <defs>
        <path d="M 33.015625 40.375 
Q 26.375 40.375 22.484375 35.828125 
Q 18.609375 31.296875 18.609375 23.390625 
Q 18.609375 15.53125 22.484375 10.953125 
Q 26.375 6.390625 33.015625 6.390625 
Q 39.65625 6.390625 43.53125 10.953125 
Q 47.40625 15.53125 47.40625 23.390625 
Q 47.40625 31.296875 43.53125 35.828125 
Q 39.65625 40.375 33.015625 40.375 
z
M 52.59375 71.296875 
L 52.59375 62.3125 
Q 48.875 64.0625 45.09375 64.984375 
Q 41.3125 65.921875 37.59375 65.921875 
Q 27.828125 65.921875 22.671875 59.328125 
Q 17.53125 52.734375 16.796875 39.40625 
Q 19.671875 43.65625 24.015625 45.921875 
Q 28.375 48.1875 33.59375 48.1875 
Q 44.578125 48.1875 50.953125 41.515625 
Q 57.328125 34.859375 57.328125 23.390625 
Q 57.328125 12.15625 50.6875 5.359375 
Q 44.046875 -1.421875 33.015625 -1.421875 
Q 20.359375 -1.421875 13.671875 8.265625 
Q 6.984375 17.96875 6.984375 36.375 
Q 6.984375 53.65625 15.1875 63.9375 
Q 23.390625 74.21875 37.203125 74.21875 
Q 40.921875 74.21875 44.703125 73.484375 
Q 48.484375 72.75 52.59375 71.296875 
z
" id="DejaVuSans-54"/>
       </defs>
       <use xlink:href="#DejaVuSans-50"/>
       <use x="63.623047" xlink:href="#DejaVuSans-54"/>
       <use x="127.246094" xlink:href="#DejaVuSans-48"/>
      </g>
     </g>
    </g>
    <g id="ytick_5">
     <g id="line2d_27">
      <path clip-path="url(#p01f2cbacfb)" d="M 102.4 168.735057 
L 716.8 168.735057 
" style="fill:none;stroke:#b0b0b0;stroke-linecap:square;stroke-width:0.8;"/>
     </g>
     <g id="line2d_28">
      <g>
       <use style="stroke:#000000;stroke-width:0.8;" x="102.4" xlink:href="#m16e6817ec1" y="168.735057"/>
      </g>
     </g>
     <g id="text_15">
      <!-- 270 -->
      <g transform="translate(76.3125 172.534276)scale(0.1 -0.1)">
       <use xlink:href="#DejaVuSans-50"/>
       <use x="63.623047" xlink:href="#DejaVuSans-55"/>
       <use x="127.246094" xlink:href="#DejaVuSans-48"/>
      </g>
     </g>
    </g>
    <g id="ytick_6">
     <g id="line2d_29">
      <path clip-path="url(#p01f2cbacfb)" d="M 102.4 107.903074 
L 716.8 107.903074 
" style="fill:none;stroke:#b0b0b0;stroke-linecap:square;stroke-width:0.8;"/>
     </g>
     <g id="line2d_30">
      <g>
       <use style="stroke:#000000;stroke-width:0.8;" x="102.4" xlink:href="#m16e6817ec1" y="107.903074"/>
      </g>
     </g>
     <g id="text_16">
      <!-- 280 -->
      <g transform="translate(76.3125 111.702293)scale(0.1 -0.1)">
       <use xlink:href="#DejaVuSans-50"/>
       <use x="63.623047" xlink:href="#DejaVuSans-56"/>
       <use x="127.246094" xlink:href="#DejaVuSans-48"/>
      </g>
     </g>
    </g>
    <g id="text_17">
     <!-- Memory Used (in MiB) -->
     <g transform="translate(70.232812 322.330156)rotate(-90)scale(0.1 -0.1)">
      <defs>
       <path d="M 9.8125 72.90625 
L 24.515625 72.90625 
L 43.109375 23.296875 
L 61.8125 72.90625 
L 76.515625 72.90625 
L 76.515625 0 
L 66.890625 0 
L 66.890625 64.015625 
L 48.09375 14.015625 
L 38.1875 14.015625 
L 19.390625 64.015625 
L 19.390625 0 
L 9.8125 0 
z
" id="DejaVuSans-77"/>
       <path d="M 41.109375 46.296875 
Q 39.59375 47.171875 37.8125 47.578125 
Q 36.03125 48 33.890625 48 
Q 26.265625 48 22.1875 43.046875 
Q 18.109375 38.09375 18.109375 28.8125 
L 18.109375 0 
L 9.078125 0 
L 9.078125 54.6875 
L 18.109375 54.6875 
L 18.109375 46.1875 
Q 20.953125 51.171875 25.484375 53.578125 
Q 30.03125 56 36.53125 56 
Q 37.453125 56 38.578125 55.875 
Q 39.703125 55.765625 41.0625 55.515625 
z
" id="DejaVuSans-114"/>
       <path d="M 32.171875 -5.078125 
Q 28.375 -14.84375 24.75 -17.8125 
Q 21.140625 -20.796875 15.09375 -20.796875 
L 7.90625 -20.796875 
L 7.90625 -13.28125 
L 13.1875 -13.28125 
Q 16.890625 -13.28125 18.9375 -11.515625 
Q 21 -9.765625 23.484375 -3.21875 
L 25.09375 0.875 
L 2.984375 54.6875 
L 12.5 54.6875 
L 29.59375 11.921875 
L 46.6875 54.6875 
L 56.203125 54.6875 
z
" id="DejaVuSans-121"/>
       <path d="M 8.6875 72.90625 
L 18.609375 72.90625 
L 18.609375 28.609375 
Q 18.609375 16.890625 22.84375 11.734375 
Q 27.09375 6.59375 36.625 6.59375 
Q 46.09375 6.59375 50.34375 11.734375 
Q 54.59375 16.890625 54.59375 28.609375 
L 54.59375 72.90625 
L 64.5 72.90625 
L 64.5 27.390625 
Q 64.5 13.140625 57.4375 5.859375 
Q 50.390625 -1.421875 36.625 -1.421875 
Q 22.796875 -1.421875 15.734375 5.859375 
Q 8.6875 13.140625 8.6875 27.390625 
z
" id="DejaVuSans-85"/>
       <path d="M 19.671875 34.8125 
L 19.671875 8.109375 
L 35.5 8.109375 
Q 43.453125 8.109375 47.28125 11.40625 
Q 51.125 14.703125 51.125 21.484375 
Q 51.125 28.328125 47.28125 31.5625 
Q 43.453125 34.8125 35.5 34.8125 
z
M 19.671875 64.796875 
L 19.671875 42.828125 
L 34.28125 42.828125 
Q 41.5 42.828125 45.03125 45.53125 
Q 48.578125 48.25 48.578125 53.8125 
Q 48.578125 59.328125 45.03125 62.0625 
Q 41.5 64.796875 34.28125 64.796875 
z
M 9.8125 72.90625 
L 35.015625 72.90625 
Q 46.296875 72.90625 52.390625 68.21875 
Q 58.5 63.53125 58.5 54.890625 
Q 58.5 48.1875 55.375 44.234375 
Q 52.25 40.28125 46.1875 39.3125 
Q 53.46875 37.75 57.5 32.78125 
Q 61.53125 27.828125 61.53125 20.40625 
Q 61.53125 10.640625 54.890625 5.3125 
Q 48.25 0 35.984375 0 
L 9.8125 0 
z
" id="DejaVuSans-66"/>
      </defs>
      <use xlink:href="#DejaVuSans-77"/>
      <use x="86.279297" xlink:href="#DejaVuSans-101"/>
      <use x="147.802734" xlink:href="#DejaVuSans-109"/>
      <use x="245.214844" xlink:href="#DejaVuSans-111"/>
      <use x="306.396484" xlink:href="#DejaVuSans-114"/>
      <use x="347.509766" xlink:href="#DejaVuSans-121"/>
      <use x="406.689453" xlink:href="#DejaVuSans-32"/>
      <use x="438.476562" xlink:href="#DejaVuSans-85"/>
      <use x="511.669922" xlink:href="#DejaVuSans-115"/>
      <use x="563.769531" xlink:href="#DejaVuSans-101"/>
      <use x="625.292969" xlink:href="#DejaVuSans-100"/>
      <use x="688.769531" xlink:href="#DejaVuSans-32"/>
      <use x="720.556641" xlink:href="#DejaVuSans-40"/>
      <use x="759.570312" xlink:href="#DejaVuSans-105"/>
      <use x="787.353516" xlink:href="#DejaVuSans-110"/>
      <use x="850.732422" xlink:href="#DejaVuSans-32"/>
      <use x="882.519531" xlink:href="#DejaVuSans-77"/>
      <use x="968.798828" xlink:href="#DejaVuSans-105"/>
      <use x="996.582031" xlink:href="#DejaVuSans-66"/>
      <use x="1065.185547" xlink:href="#DejaVuSans-41"/>
     </g>
    </g>
   </g>
   <g id="LineCollection_1">
    <path clip-path="url(#p01f2cbacfb)" d="M -1 184.133153 
L 697.629508 184.133153 
" style="fill:none;stroke:#ff0000;stroke-dasharray:5.55,2.4;stroke-dashoffset:0;stroke-width:1.5;"/>
   </g>
   <g id="LineCollection_2">
    <path clip-path="url(#p01f2cbacfb)" style="fill:none;stroke:#ff0000;stroke-dasharray:5.55,2.4;stroke-dashoffset:0;stroke-width:1.5;"/>
   </g>
   <g id="line2d_31">
    <path clip-path="url(#p01f2cbacfb)" d="M 101.711121 206.446136 
L 111.668645 206.446136 
L 113.320787 192.28369 
L 114.989306 186.129202 
L 116.626566 206.446136 
L 118.278711 188.814362 
L 119.930857 206.446136 
L 121.568116 206.446136 
L 123.220262 206.232269 
L 124.857521 206.446136 
L 129.828842 206.446136 
L 131.480987 193.9233 
L 133.148016 206.446136 
L 136.452304 206.446136 
L 138.119333 185.297513 
L 139.789339 188.505452 
L 141.453391 206.446136 
L 143.105537 206.446136 
L 144.772566 199.887687 
L 146.414292 206.446136 
L 164.35867 206.446136 
L 165.96765 205.970886 
L 167.584071 206.446136 
L 170.876453 206.446136 
L 172.50032 184.964842 
L 174.125673 199.887687 
L 175.731675 206.446136 
L 177.382334 206.446136 
L 178.988337 185.558902 
L 180.640482 206.446136 
L 185.611799 206.446136 
L 187.275854 199.887687 
L 188.942883 192.28369 
L 190.559305 206.446136 
L 202.228507 206.446136 
L 203.871721 203.309486 
L 205.538753 206.446136 
L 208.857924 206.446136 
L 210.524953 204.996625 
L 212.191982 198.556988 
L 213.873897 206.446136 
L 215.526043 206.446136 
L 217.178185 192.18864 
L 218.845214 206.446136 
L 220.49736 206.446136 
L 222.149506 202.976808 
L 223.801652 196.204499 
L 225.468681 206.446136 
L 237.06346 206.446136 
L 238.730489 185.107413 
L 240.397521 206.446136 
L 248.702896 206.446136 
L 250.384808 199.887687 
L 252.036954 206.446136 
L 253.6891 206.446136 
L 255.34571 198.41441 
L 256.963621 206.446136 
L 258.58451 184.394542 
L 260.22177 206.446136 
L 261.853078 203.000569 
L 263.512665 193.44805 
L 265.179694 206.446136 
L 278.456389 206.446136 
L 280.123418 202.715426 
L 281.760677 206.446136 
L 295.022489 206.446136 
L 296.674635 197.487671 
L 298.341663 206.446136 
L 300.008692 206.446136 
L 301.660838 186.200491 
L 303.327867 206.446136 
L 308.284301 206.446136 
L 309.95133 199.317388 
L 311.603475 206.446136 
L 313.270504 206.446136 
L 314.937533 199.887687 
L 316.604562 191.951012 
L 318.273078 206.446136 
L 319.94011 206.446136 
L 321.592252 192.30745 
L 323.259281 206.446136 
L 324.92631 199.863926 
L 326.593339 206.422369 
L 328.245485 197.416388 
L 329.912514 206.422369 
L 333.231688 206.422369 
L 336.550863 206.422369 
L 338.217892 199.602537 
L 339.835804 206.422369 
L 346.389311 206.422369 
L 348.034012 188.933173 
L 349.657879 206.422369 
L 352.927933 206.422369 
L 354.547335 188.362874 
L 356.160779 201.907498 
L 357.795064 206.398608 
L 359.401067 195.800539 
L 361.017492 206.398608 
L 369.202304 206.398608 
L 370.836589 188.07773 
L 372.455988 206.398608 
L 385.311463 206.398608 
L 386.948722 206.256036 
L 388.557702 206.398608 
L 391.802458 206.398608 
L 393.418879 206.279797 
L 395.008511 206.398608 
L 396.660654 206.398608 
L 398.312799 188.053963 
L 399.979828 206.398608 
L 401.617091 193.424289 
L 403.272211 206.398608 
L 406.452962 206.398608 
L 408.094689 203.238197 
L 409.706646 206.398608 
L 411.376653 206.398608 
L 413.028798 199.840159 
L 414.695827 184.347014 
L 416.362856 192.236161 
L 418.014998 202.881759 
L 421.350547 194.850039 
L 423.017575 206.398608 
L 424.555113 206.398608 
L 426.207256 187.032174 
L 427.889171 206.398608 
L 429.541313 206.398608 
L 431.208342 197.392627 
L 432.856024 198.50946 
L 434.466494 206.398608 
L 436.133523 188.244063 
L 437.766318 206.398608 
L 442.724242 206.398608 
L 444.364478 190.715362 
L 446.031507 206.398608 
L 447.698536 205.400586 
L 449.350682 191.855962 
L 451.002824 206.398608 
L 459.278433 206.398608 
L 460.888903 200.671848 
L 462.527652 206.398608 
L 471.991017 206.398608 
L 473.61042 187.602474 
L 475.226841 206.398608 
L 486.808228 206.398608 
L 488.442513 184.347014 
L 490.792724 206.588975 
L 491.745314 202.739187 
L 493.412343 201.622348 
L 493.784446 201.622044 
L 495.079372 201.622348 
L 496.746401 263.737509 
L 497.037733 509.8 
L 497.037733 509.8 
" style="fill:none;stroke:#000000;stroke-linecap:square;stroke-width:1.5;"/>
    <defs>
     <path d="M -3 0 
L 3 0 
M 0 3 
L 0 -3 
" id="m997975a244" style="stroke:#000000;"/>
    </defs>
    <g clip-path="url(#p01f2cbacfb)">
     <use style="stroke:#000000;" x="101.711121" xlink:href="#m997975a244" y="206.446136"/>
     <use style="stroke:#000000;" x="103.37815" xlink:href="#m997975a244" y="206.446136"/>
     <use style="stroke:#000000;" x="105.030296" xlink:href="#m997975a244" y="206.446136"/>
     <use style="stroke:#000000;" x="106.697324" xlink:href="#m997975a244" y="206.446136"/>
     <use style="stroke:#000000;" x="108.334584" xlink:href="#m997975a244" y="206.446136"/>
     <use style="stroke:#000000;" x="110.001612" xlink:href="#m997975a244" y="206.446136"/>
     <use style="stroke:#000000;" x="111.668645" xlink:href="#m997975a244" y="206.446136"/>
     <use style="stroke:#000000;" x="113.320787" xlink:href="#m997975a244" y="192.28369"/>
     <use style="stroke:#000000;" x="114.989306" xlink:href="#m997975a244" y="186.129202"/>
     <use style="stroke:#000000;" x="116.626566" xlink:href="#m997975a244" y="206.446136"/>
     <use style="stroke:#000000;" x="118.278711" xlink:href="#m997975a244" y="188.814362"/>
     <use style="stroke:#000000;" x="119.930857" xlink:href="#m997975a244" y="206.446136"/>
     <use style="stroke:#000000;" x="121.568116" xlink:href="#m997975a244" y="206.446136"/>
     <use style="stroke:#000000;" x="123.220262" xlink:href="#m997975a244" y="206.232269"/>
     <use style="stroke:#000000;" x="124.857521" xlink:href="#m997975a244" y="206.446136"/>
     <use style="stroke:#000000;" x="126.52455" xlink:href="#m997975a244" y="206.446136"/>
     <use style="stroke:#000000;" x="128.161813" xlink:href="#m997975a244" y="206.446136"/>
     <use style="stroke:#000000;" x="129.828842" xlink:href="#m997975a244" y="206.446136"/>
     <use style="stroke:#000000;" x="131.480987" xlink:href="#m997975a244" y="193.9233"/>
     <use style="stroke:#000000;" x="133.148016" xlink:href="#m997975a244" y="206.446136"/>
     <use style="stroke:#000000;" x="134.815045" xlink:href="#m997975a244" y="206.446136"/>
     <use style="stroke:#000000;" x="136.452304" xlink:href="#m997975a244" y="206.446136"/>
     <use style="stroke:#000000;" x="138.119333" xlink:href="#m997975a244" y="185.297513"/>
     <use style="stroke:#000000;" x="139.789339" xlink:href="#m997975a244" y="188.505452"/>
     <use style="stroke:#000000;" x="141.453391" xlink:href="#m997975a244" y="206.446136"/>
     <use style="stroke:#000000;" x="143.105537" xlink:href="#m997975a244" y="206.446136"/>
     <use style="stroke:#000000;" x="144.772566" xlink:href="#m997975a244" y="199.887687"/>
     <use style="stroke:#000000;" x="146.414292" xlink:href="#m997975a244" y="206.446136"/>
     <use style="stroke:#000000;" x="148.035178" xlink:href="#m997975a244" y="206.446136"/>
     <use style="stroke:#000000;" x="149.638207" xlink:href="#m997975a244" y="206.446136"/>
     <use style="stroke:#000000;" x="151.269515" xlink:href="#m997975a244" y="206.446136"/>
     <use style="stroke:#000000;" x="152.908264" xlink:href="#m997975a244" y="206.446136"/>
     <use style="stroke:#000000;" x="154.561897" xlink:href="#m997975a244" y="206.446136"/>
     <use style="stroke:#000000;" x="156.221484" xlink:href="#m997975a244" y="206.446136"/>
     <use style="stroke:#000000;" x="157.879581" xlink:href="#m997975a244" y="206.446136"/>
     <use style="stroke:#000000;" x="159.48261" xlink:href="#m997975a244" y="206.446136"/>
     <use style="stroke:#000000;" x="161.093076" xlink:href="#m997975a244" y="206.446136"/>
     <use style="stroke:#000000;" x="162.71843" xlink:href="#m997975a244" y="206.446136"/>
     <use style="stroke:#000000;" x="164.35867" xlink:href="#m997975a244" y="206.446136"/>
     <use style="stroke:#000000;" x="165.96765" xlink:href="#m997975a244" y="205.970886"/>
     <use style="stroke:#000000;" x="167.584071" xlink:href="#m997975a244" y="206.446136"/>
     <use style="stroke:#000000;" x="169.221334" xlink:href="#m997975a244" y="206.446136"/>
     <use style="stroke:#000000;" x="170.876453" xlink:href="#m997975a244" y="206.446136"/>
     <use style="stroke:#000000;" x="172.50032" xlink:href="#m997975a244" y="184.964842"/>
     <use style="stroke:#000000;" x="174.125673" xlink:href="#m997975a244" y="199.887687"/>
     <use style="stroke:#000000;" x="175.731675" xlink:href="#m997975a244" y="206.446136"/>
     <use style="stroke:#000000;" x="177.382334" xlink:href="#m997975a244" y="206.446136"/>
     <use style="stroke:#000000;" x="178.988337" xlink:href="#m997975a244" y="185.558902"/>
     <use style="stroke:#000000;" x="180.640482" xlink:href="#m997975a244" y="206.446136"/>
     <use style="stroke:#000000;" x="182.322394" xlink:href="#m997975a244" y="206.446136"/>
     <use style="stroke:#000000;" x="183.950725" xlink:href="#m997975a244" y="206.446136"/>
     <use style="stroke:#000000;" x="185.611799" xlink:href="#m997975a244" y="206.446136"/>
     <use style="stroke:#000000;" x="187.275854" xlink:href="#m997975a244" y="199.887687"/>
     <use style="stroke:#000000;" x="188.942883" xlink:href="#m997975a244" y="192.28369"/>
     <use style="stroke:#000000;" x="190.559305" xlink:href="#m997975a244" y="206.446136"/>
     <use style="stroke:#000000;" x="192.226334" xlink:href="#m997975a244" y="206.446136"/>
     <use style="stroke:#000000;" x="193.893362" xlink:href="#m997975a244" y="206.446136"/>
     <use style="stroke:#000000;" x="195.575274" xlink:href="#m997975a244" y="206.446136"/>
     <use style="stroke:#000000;" x="197.22742" xlink:href="#m997975a244" y="206.446136"/>
     <use style="stroke:#000000;" x="198.909336" xlink:href="#m997975a244" y="206.446136"/>
     <use style="stroke:#000000;" x="200.546595" xlink:href="#m997975a244" y="206.446136"/>
     <use style="stroke:#000000;" x="202.228507" xlink:href="#m997975a244" y="206.446136"/>
     <use style="stroke:#000000;" x="203.871721" xlink:href="#m997975a244" y="203.309486"/>
     <use style="stroke:#000000;" x="205.538753" xlink:href="#m997975a244" y="206.446136"/>
     <use style="stroke:#000000;" x="207.205782" xlink:href="#m997975a244" y="206.446136"/>
     <use style="stroke:#000000;" x="208.857924" xlink:href="#m997975a244" y="206.446136"/>
     <use style="stroke:#000000;" x="210.524953" xlink:href="#m997975a244" y="204.996625"/>
     <use style="stroke:#000000;" x="212.191982" xlink:href="#m997975a244" y="198.556988"/>
     <use style="stroke:#000000;" x="213.873897" xlink:href="#m997975a244" y="206.446136"/>
     <use style="stroke:#000000;" x="215.526043" xlink:href="#m997975a244" y="206.446136"/>
     <use style="stroke:#000000;" x="217.178185" xlink:href="#m997975a244" y="192.18864"/>
     <use style="stroke:#000000;" x="218.845214" xlink:href="#m997975a244" y="206.446136"/>
     <use style="stroke:#000000;" x="220.49736" xlink:href="#m997975a244" y="206.446136"/>
     <use style="stroke:#000000;" x="222.149506" xlink:href="#m997975a244" y="202.976808"/>
     <use style="stroke:#000000;" x="223.801652" xlink:href="#m997975a244" y="196.204499"/>
     <use style="stroke:#000000;" x="225.468681" xlink:href="#m997975a244" y="206.446136"/>
     <use style="stroke:#000000;" x="227.10594" xlink:href="#m997975a244" y="206.446136"/>
     <use style="stroke:#000000;" x="228.802738" xlink:href="#m997975a244" y="206.446136"/>
     <use style="stroke:#000000;" x="230.425114" xlink:href="#m997975a244" y="206.446136"/>
     <use style="stroke:#000000;" x="232.092143" xlink:href="#m997975a244" y="206.446136"/>
     <use style="stroke:#000000;" x="233.774055" xlink:href="#m997975a244" y="206.446136"/>
     <use style="stroke:#000000;" x="235.411318" xlink:href="#m997975a244" y="206.446136"/>
     <use style="stroke:#000000;" x="237.06346" xlink:href="#m997975a244" y="206.446136"/>
     <use style="stroke:#000000;" x="238.730489" xlink:href="#m997975a244" y="185.107413"/>
     <use style="stroke:#000000;" x="240.397521" xlink:href="#m997975a244" y="206.446136"/>
     <use style="stroke:#000000;" x="242.049664" xlink:href="#m997975a244" y="206.446136"/>
     <use style="stroke:#000000;" x="243.716692" xlink:href="#m997975a244" y="206.446136"/>
     <use style="stroke:#000000;" x="245.383721" xlink:href="#m997975a244" y="206.446136"/>
     <use style="stroke:#000000;" x="247.035867" xlink:href="#m997975a244" y="206.446136"/>
     <use style="stroke:#000000;" x="248.702896" xlink:href="#m997975a244" y="206.446136"/>
     <use style="stroke:#000000;" x="250.384808" xlink:href="#m997975a244" y="199.887687"/>
     <use style="stroke:#000000;" x="252.036954" xlink:href="#m997975a244" y="206.446136"/>
     <use style="stroke:#000000;" x="253.6891" xlink:href="#m997975a244" y="206.446136"/>
     <use style="stroke:#000000;" x="255.34571" xlink:href="#m997975a244" y="198.41441"/>
     <use style="stroke:#000000;" x="256.963621" xlink:href="#m997975a244" y="206.446136"/>
     <use style="stroke:#000000;" x="258.58451" xlink:href="#m997975a244" y="184.394542"/>
     <use style="stroke:#000000;" x="260.22177" xlink:href="#m997975a244" y="206.446136"/>
     <use style="stroke:#000000;" x="261.853078" xlink:href="#m997975a244" y="203.000569"/>
     <use style="stroke:#000000;" x="263.512665" xlink:href="#m997975a244" y="193.44805"/>
     <use style="stroke:#000000;" x="265.179694" xlink:href="#m997975a244" y="206.446136"/>
     <use style="stroke:#000000;" x="266.831836" xlink:href="#m997975a244" y="206.446136"/>
     <use style="stroke:#000000;" x="268.498865" xlink:href="#m997975a244" y="206.446136"/>
     <use style="stroke:#000000;" x="270.165897" xlink:href="#m997975a244" y="206.446136"/>
     <use style="stroke:#000000;" x="271.81804" xlink:href="#m997975a244" y="206.446136"/>
     <use style="stroke:#000000;" x="273.485068" xlink:href="#m997975a244" y="206.446136"/>
     <use style="stroke:#000000;" x="275.137214" xlink:href="#m997975a244" y="206.446136"/>
     <use style="stroke:#000000;" x="276.78936" xlink:href="#m997975a244" y="206.446136"/>
     <use style="stroke:#000000;" x="278.456389" xlink:href="#m997975a244" y="206.446136"/>
     <use style="stroke:#000000;" x="280.123418" xlink:href="#m997975a244" y="202.715426"/>
     <use style="stroke:#000000;" x="281.760677" xlink:href="#m997975a244" y="206.446136"/>
     <use style="stroke:#000000;" x="283.412823" xlink:href="#m997975a244" y="206.446136"/>
     <use style="stroke:#000000;" x="285.079851" xlink:href="#m997975a244" y="206.446136"/>
     <use style="stroke:#000000;" x="286.731997" xlink:href="#m997975a244" y="206.446136"/>
     <use style="stroke:#000000;" x="288.384143" xlink:href="#m997975a244" y="206.446136"/>
     <use style="stroke:#000000;" x="290.051172" xlink:href="#m997975a244" y="206.446136"/>
     <use style="stroke:#000000;" x="291.688431" xlink:href="#m997975a244" y="206.446136"/>
     <use style="stroke:#000000;" x="293.35546" xlink:href="#m997975a244" y="206.446136"/>
     <use style="stroke:#000000;" x="295.022489" xlink:href="#m997975a244" y="206.446136"/>
     <use style="stroke:#000000;" x="296.674635" xlink:href="#m997975a244" y="197.487671"/>
     <use style="stroke:#000000;" x="298.341663" xlink:href="#m997975a244" y="206.446136"/>
     <use style="stroke:#000000;" x="300.008692" xlink:href="#m997975a244" y="206.446136"/>
     <use style="stroke:#000000;" x="301.660838" xlink:href="#m997975a244" y="186.200491"/>
     <use style="stroke:#000000;" x="303.327867" xlink:href="#m997975a244" y="206.446136"/>
     <use style="stroke:#000000;" x="304.980013" xlink:href="#m997975a244" y="206.446136"/>
     <use style="stroke:#000000;" x="306.632155" xlink:href="#m997975a244" y="206.446136"/>
     <use style="stroke:#000000;" x="308.284301" xlink:href="#m997975a244" y="206.446136"/>
     <use style="stroke:#000000;" x="309.95133" xlink:href="#m997975a244" y="199.317388"/>
     <use style="stroke:#000000;" x="311.603475" xlink:href="#m997975a244" y="206.446136"/>
     <use style="stroke:#000000;" x="313.270504" xlink:href="#m997975a244" y="206.446136"/>
     <use style="stroke:#000000;" x="314.937533" xlink:href="#m997975a244" y="199.887687"/>
     <use style="stroke:#000000;" x="316.604562" xlink:href="#m997975a244" y="191.951012"/>
     <use style="stroke:#000000;" x="318.273078" xlink:href="#m997975a244" y="206.446136"/>
     <use style="stroke:#000000;" x="319.94011" xlink:href="#m997975a244" y="206.446136"/>
     <use style="stroke:#000000;" x="321.592252" xlink:href="#m997975a244" y="192.30745"/>
     <use style="stroke:#000000;" x="323.259281" xlink:href="#m997975a244" y="206.446136"/>
     <use style="stroke:#000000;" x="324.92631" xlink:href="#m997975a244" y="199.863926"/>
     <use style="stroke:#000000;" x="326.593339" xlink:href="#m997975a244" y="206.422369"/>
     <use style="stroke:#000000;" x="328.245485" xlink:href="#m997975a244" y="197.416388"/>
     <use style="stroke:#000000;" x="329.912514" xlink:href="#m997975a244" y="206.422369"/>
     <use style="stroke:#000000;" x="331.579543" xlink:href="#m997975a244" y="206.374847"/>
     <use style="stroke:#000000;" x="333.231688" xlink:href="#m997975a244" y="206.422369"/>
     <use style="stroke:#000000;" x="334.898717" xlink:href="#m997975a244" y="206.422369"/>
     <use style="stroke:#000000;" x="336.550863" xlink:href="#m997975a244" y="206.422369"/>
     <use style="stroke:#000000;" x="338.217892" xlink:href="#m997975a244" y="199.602537"/>
     <use style="stroke:#000000;" x="339.835804" xlink:href="#m997975a244" y="206.422369"/>
     <use style="stroke:#000000;" x="341.455202" xlink:href="#m997975a244" y="206.422369"/>
     <use style="stroke:#000000;" x="343.080556" xlink:href="#m997975a244" y="206.422369"/>
     <use style="stroke:#000000;" x="344.731211" xlink:href="#m997975a244" y="206.422369"/>
     <use style="stroke:#000000;" x="346.389311" xlink:href="#m997975a244" y="206.422369"/>
     <use style="stroke:#000000;" x="348.034012" xlink:href="#m997975a244" y="188.933173"/>
     <use style="stroke:#000000;" x="349.657879" xlink:href="#m997975a244" y="206.422369"/>
     <use style="stroke:#000000;" x="351.278768" xlink:href="#m997975a244" y="206.422369"/>
     <use style="stroke:#000000;" x="352.927933" xlink:href="#m997975a244" y="206.422369"/>
     <use style="stroke:#000000;" x="354.547335" xlink:href="#m997975a244" y="188.362874"/>
     <use style="stroke:#000000;" x="356.160779" xlink:href="#m997975a244" y="201.907498"/>
     <use style="stroke:#000000;" x="357.795064" xlink:href="#m997975a244" y="206.398608"/>
     <use style="stroke:#000000;" x="359.401067" xlink:href="#m997975a244" y="195.800539"/>
     <use style="stroke:#000000;" x="361.017492" xlink:href="#m997975a244" y="206.398608"/>
     <use style="stroke:#000000;" x="362.623494" xlink:href="#m997975a244" y="206.398608"/>
     <use style="stroke:#000000;" x="364.27564" xlink:href="#m997975a244" y="206.398608"/>
     <use style="stroke:#000000;" x="365.915876" xlink:href="#m997975a244" y="206.398608"/>
     <use style="stroke:#000000;" x="367.556113" xlink:href="#m997975a244" y="206.398608"/>
     <use style="stroke:#000000;" x="369.202304" xlink:href="#m997975a244" y="206.398608"/>
     <use style="stroke:#000000;" x="370.836589" xlink:href="#m997975a244" y="188.07773"/>
     <use style="stroke:#000000;" x="372.455988" xlink:href="#m997975a244" y="206.398608"/>
     <use style="stroke:#000000;" x="374.088783" xlink:href="#m997975a244" y="206.398608"/>
     <use style="stroke:#000000;" x="375.711162" xlink:href="#m997975a244" y="206.398608"/>
     <use style="stroke:#000000;" x="377.32907" xlink:href="#m997975a244" y="206.398608"/>
     <use style="stroke:#000000;" x="378.929122" xlink:href="#m997975a244" y="206.398608"/>
     <use style="stroke:#000000;" x="380.487498" xlink:href="#m997975a244" y="206.398608"/>
     <use style="stroke:#000000;" x="382.078617" xlink:href="#m997975a244" y="206.398608"/>
     <use style="stroke:#000000;" x="383.692061" xlink:href="#m997975a244" y="206.398608"/>
     <use style="stroke:#000000;" x="385.311463" xlink:href="#m997975a244" y="206.398608"/>
     <use style="stroke:#000000;" x="386.948722" xlink:href="#m997975a244" y="206.256036"/>
     <use style="stroke:#000000;" x="388.557702" xlink:href="#m997975a244" y="206.398608"/>
     <use style="stroke:#000000;" x="390.174127" xlink:href="#m997975a244" y="206.398608"/>
     <use style="stroke:#000000;" x="391.802458" xlink:href="#m997975a244" y="206.398608"/>
     <use style="stroke:#000000;" x="393.418879" xlink:href="#m997975a244" y="206.279797"/>
     <use style="stroke:#000000;" x="395.008511" xlink:href="#m997975a244" y="206.398608"/>
     <use style="stroke:#000000;" x="396.660654" xlink:href="#m997975a244" y="206.398608"/>
     <use style="stroke:#000000;" x="398.312799" xlink:href="#m997975a244" y="188.053963"/>
     <use style="stroke:#000000;" x="399.979828" xlink:href="#m997975a244" y="206.398608"/>
     <use style="stroke:#000000;" x="401.617091" xlink:href="#m997975a244" y="193.424289"/>
     <use style="stroke:#000000;" x="403.272211" xlink:href="#m997975a244" y="206.398608"/>
     <use style="stroke:#000000;" x="404.888635" xlink:href="#m997975a244" y="206.398608"/>
     <use style="stroke:#000000;" x="406.452962" xlink:href="#m997975a244" y="206.398608"/>
     <use style="stroke:#000000;" x="408.094689" xlink:href="#m997975a244" y="203.238197"/>
     <use style="stroke:#000000;" x="409.706646" xlink:href="#m997975a244" y="206.398608"/>
     <use style="stroke:#000000;" x="411.376653" xlink:href="#m997975a244" y="206.398608"/>
     <use style="stroke:#000000;" x="413.028798" xlink:href="#m997975a244" y="199.840159"/>
     <use style="stroke:#000000;" x="414.695827" xlink:href="#m997975a244" y="184.347014"/>
     <use style="stroke:#000000;" x="416.362856" xlink:href="#m997975a244" y="192.236161"/>
     <use style="stroke:#000000;" x="418.014998" xlink:href="#m997975a244" y="202.881759"/>
     <use style="stroke:#000000;" x="419.711797" xlink:href="#m997975a244" y="198.770849"/>
     <use style="stroke:#000000;" x="421.350547" xlink:href="#m997975a244" y="194.850039"/>
     <use style="stroke:#000000;" x="423.017575" xlink:href="#m997975a244" y="206.398608"/>
     <use style="stroke:#000000;" x="424.555113" xlink:href="#m997975a244" y="206.398608"/>
     <use style="stroke:#000000;" x="426.207256" xlink:href="#m997975a244" y="187.032174"/>
     <use style="stroke:#000000;" x="427.889171" xlink:href="#m997975a244" y="206.398608"/>
     <use style="stroke:#000000;" x="429.541313" xlink:href="#m997975a244" y="206.398608"/>
     <use style="stroke:#000000;" x="431.208342" xlink:href="#m997975a244" y="197.392627"/>
     <use style="stroke:#000000;" x="432.856024" xlink:href="#m997975a244" y="198.50946"/>
     <use style="stroke:#000000;" x="434.466494" xlink:href="#m997975a244" y="206.398608"/>
     <use style="stroke:#000000;" x="436.133523" xlink:href="#m997975a244" y="188.244063"/>
     <use style="stroke:#000000;" x="437.766318" xlink:href="#m997975a244" y="206.398608"/>
     <use style="stroke:#000000;" x="439.408045" xlink:href="#m997975a244" y="206.398608"/>
     <use style="stroke:#000000;" x="441.073583" xlink:href="#m997975a244" y="206.398608"/>
     <use style="stroke:#000000;" x="442.724242" xlink:href="#m997975a244" y="206.398608"/>
     <use style="stroke:#000000;" x="444.364478" xlink:href="#m997975a244" y="190.715362"/>
     <use style="stroke:#000000;" x="446.031507" xlink:href="#m997975a244" y="206.398608"/>
     <use style="stroke:#000000;" x="447.698536" xlink:href="#m997975a244" y="205.400586"/>
     <use style="stroke:#000000;" x="449.350682" xlink:href="#m997975a244" y="191.855962"/>
     <use style="stroke:#000000;" x="451.002824" xlink:href="#m997975a244" y="206.398608"/>
     <use style="stroke:#000000;" x="452.650506" xlink:href="#m997975a244" y="206.398608"/>
     <use style="stroke:#000000;" x="454.317535" xlink:href="#m997975a244" y="206.398608"/>
     <use style="stroke:#000000;" x="455.999447" xlink:href="#m997975a244" y="206.398608"/>
     <use style="stroke:#000000;" x="457.651592" xlink:href="#m997975a244" y="206.398608"/>
     <use style="stroke:#000000;" x="459.278433" xlink:href="#m997975a244" y="206.398608"/>
     <use style="stroke:#000000;" x="460.888903" xlink:href="#m997975a244" y="200.671848"/>
     <use style="stroke:#000000;" x="462.527652" xlink:href="#m997975a244" y="206.398608"/>
     <use style="stroke:#000000;" x="464.142587" xlink:href="#m997975a244" y="206.398608"/>
     <use style="stroke:#000000;" x="465.751567" xlink:href="#m997975a244" y="206.398608"/>
     <use style="stroke:#000000;" x="467.244452" xlink:href="#m997975a244" y="206.398608"/>
     <use style="stroke:#000000;" x="468.75073" xlink:href="#m997975a244" y="206.398608"/>
     <use style="stroke:#000000;" x="470.364177" xlink:href="#m997975a244" y="206.398608"/>
     <use style="stroke:#000000;" x="471.991017" xlink:href="#m997975a244" y="206.398608"/>
     <use style="stroke:#000000;" x="473.61042" xlink:href="#m997975a244" y="187.602474"/>
     <use style="stroke:#000000;" x="475.226841" xlink:href="#m997975a244" y="206.398608"/>
     <use style="stroke:#000000;" x="476.870055" xlink:href="#m997975a244" y="206.398608"/>
     <use style="stroke:#000000;" x="478.522201" xlink:href="#m997975a244" y="206.398608"/>
     <use style="stroke:#000000;" x="480.204113" xlink:href="#m997975a244" y="206.398608"/>
     <use style="stroke:#000000;" x="481.871141" xlink:href="#m997975a244" y="206.398608"/>
     <use style="stroke:#000000;" x="483.523287" xlink:href="#m997975a244" y="206.398608"/>
     <use style="stroke:#000000;" x="485.190316" xlink:href="#m997975a244" y="206.398608"/>
     <use style="stroke:#000000;" x="486.808228" xlink:href="#m997975a244" y="206.398608"/>
     <use style="stroke:#000000;" x="488.442513" xlink:href="#m997975a244" y="184.347014"/>
     <use style="stroke:#000000;" x="490.078285" xlink:href="#m997975a244" y="199.816398"/>
     <use style="stroke:#000000;" x="490.792724" xlink:href="#m997975a244" y="206.588975"/>
     <use style="stroke:#000000;" x="491.745314" xlink:href="#m997975a244" y="202.739187"/>
     <use style="stroke:#000000;" x="493.412343" xlink:href="#m997975a244" y="201.622348"/>
     <use style="stroke:#000000;" x="493.710027" xlink:href="#m997975a244" y="201.646377"/>
     <use style="stroke:#000000;" x="493.710027" xlink:href="#m997975a244" y="201.646377"/>
     <use style="stroke:#000000;" x="493.784446" xlink:href="#m997975a244" y="201.622044"/>
     <use style="stroke:#000000;" x="495.079372" xlink:href="#m997975a244" y="201.622348"/>
     <use style="stroke:#000000;" x="496.746401" xlink:href="#m997975a244" y="263.737509"/>
     <use style="stroke:#000000;" x="498.502736" xlink:href="#m997975a244" y="1747.158679"/>
    </g>
   </g>
   <g id="line2d_32">
    <path clip-path="url(#p01f2cbacfb)" style="fill:none;stroke:#00bfbf;stroke-linecap:square;stroke-width:2;"/>
   </g>
   <g id="line2d_33">
    <path clip-path="url(#p01f2cbacfb)" style="fill:none;stroke:#00bfbf;stroke-linecap:square;stroke-width:2;"/>
   </g>
   <g id="line2d_34">
    <path clip-path="url(#p01f2cbacfb)" d="M 544.61103 117.630992 
L 490.792724 117.630992 
L 490.792724 295.546958 
L 544.61103 295.546958 
" style="fill:none;stroke:#bfbf00;stroke-linecap:square;stroke-width:2;"/>
   </g>
   <g id="line2d_35">
    <path clip-path="url(#p01f2cbacfb)" d="M 439.891721 112.688394 
L 493.710027 112.688394 
L 493.710027 290.60436 
L 439.891721 290.60436 
" style="fill:none;stroke:#bfbf00;stroke-linecap:square;stroke-width:2;"/>
   </g>
   <g id="line2d_36">
    <path clip-path="url(#p01f2cbacfb)" d="M 548.37365 108.758932 
L 493.710027 108.758932 
L 493.710027 294.533821 
L 548.37365 294.533821 
" style="fill:none;stroke:#008000;stroke-linecap:square;stroke-width:2;"/>
   </g>
   <g id="line2d_37">
    <path clip-path="url(#p01f2cbacfb)" d="M 439.120823 108.734599 
L 493.784446 108.734599 
L 493.784446 294.509488 
L 439.120823 294.509488 
" style="fill:none;stroke:#008000;stroke-linecap:square;stroke-width:2;"/>
   </g>
   <g id="patch_3">
    <path d="M 102.4 457.92 
L 102.4 76.32 
" style="fill:none;stroke:#000000;stroke-linecap:square;stroke-linejoin:miter;stroke-width:0.8;"/>
   </g>
   <g id="patch_4">
    <path d="M 716.8 457.92 
L 716.8 76.32 
" style="fill:none;stroke:#000000;stroke-linecap:square;stroke-linejoin:miter;stroke-width:0.8;"/>
   </g>
   <g id="patch_5">
    <path d="M 102.4 457.92 
L 716.8 457.92 
" style="fill:none;stroke:#000000;stroke-linecap:square;stroke-linejoin:miter;stroke-width:0.8;"/>
   </g>
   <g id="patch_6">
    <path d="M 102.4 76.32 
L 716.8 76.32 
" style="fill:none;stroke:#000000;stroke-linecap:square;stroke-linejoin:miter;stroke-width:0.8;"/>
   </g>
   <g id="text_18">
    <!-- Mprof Memory Profile Test (Run #1) -->
    <g transform="translate(303.063438 70.32)scale(0.12 -0.12)">
     <defs>
      <path d="M 18.109375 8.203125 
L 18.109375 -20.796875 
L 9.078125 -20.796875 
L 9.078125 54.6875 
L 18.109375 54.6875 
L 18.109375 46.390625 
Q 20.953125 51.265625 25.265625 53.625 
Q 29.59375 56 35.59375 56 
Q 45.5625 56 51.78125 48.09375 
Q 58.015625 40.1875 58.015625 27.296875 
Q 58.015625 14.40625 51.78125 6.484375 
Q 45.5625 -1.421875 35.59375 -1.421875 
Q 29.59375 -1.421875 25.265625 0.953125 
Q 20.953125 3.328125 18.109375 8.203125 
z
M 48.6875 27.296875 
Q 48.6875 37.203125 44.609375 42.84375 
Q 40.53125 48.484375 33.40625 48.484375 
Q 26.265625 48.484375 22.1875 42.84375 
Q 18.109375 37.203125 18.109375 27.296875 
Q 18.109375 17.390625 22.1875 11.75 
Q 26.265625 6.109375 33.40625 6.109375 
Q 40.53125 6.109375 44.609375 11.75 
Q 48.6875 17.390625 48.6875 27.296875 
z
" id="DejaVuSans-112"/>
      <path d="M 37.109375 75.984375 
L 37.109375 68.5 
L 28.515625 68.5 
Q 23.6875 68.5 21.796875 66.546875 
Q 19.921875 64.59375 19.921875 59.515625 
L 19.921875 54.6875 
L 34.71875 54.6875 
L 34.71875 47.703125 
L 19.921875 47.703125 
L 19.921875 0 
L 10.890625 0 
L 10.890625 47.703125 
L 2.296875 47.703125 
L 2.296875 54.6875 
L 10.890625 54.6875 
L 10.890625 58.5 
Q 10.890625 67.625 15.140625 71.796875 
Q 19.390625 75.984375 28.609375 75.984375 
z
" id="DejaVuSans-102"/>
      <path d="M 19.671875 64.796875 
L 19.671875 37.40625 
L 32.078125 37.40625 
Q 38.96875 37.40625 42.71875 40.96875 
Q 46.484375 44.53125 46.484375 51.125 
Q 46.484375 57.671875 42.71875 61.234375 
Q 38.96875 64.796875 32.078125 64.796875 
z
M 9.8125 72.90625 
L 32.078125 72.90625 
Q 44.34375 72.90625 50.609375 67.359375 
Q 56.890625 61.8125 56.890625 51.125 
Q 56.890625 40.328125 50.609375 34.8125 
Q 44.34375 29.296875 32.078125 29.296875 
L 19.671875 29.296875 
L 19.671875 0 
L 9.8125 0 
z
" id="DejaVuSans-80"/>
      <path d="M 9.421875 75.984375 
L 18.40625 75.984375 
L 18.40625 0 
L 9.421875 0 
z
" id="DejaVuSans-108"/>
      <path d="M 18.3125 70.21875 
L 18.3125 54.6875 
L 36.8125 54.6875 
L 36.8125 47.703125 
L 18.3125 47.703125 
L 18.3125 18.015625 
Q 18.3125 11.328125 20.140625 9.421875 
Q 21.96875 7.515625 27.59375 7.515625 
L 36.8125 7.515625 
L 36.8125 0 
L 27.59375 0 
Q 17.1875 0 13.234375 3.875 
Q 9.28125 7.765625 9.28125 18.015625 
L 9.28125 47.703125 
L 2.6875 47.703125 
L 2.6875 54.6875 
L 9.28125 54.6875 
L 9.28125 70.21875 
z
" id="DejaVuSans-116"/>
      <path d="M 44.390625 34.1875 
Q 47.5625 33.109375 50.5625 29.59375 
Q 53.5625 26.078125 56.59375 19.921875 
L 66.609375 0 
L 56 0 
L 46.6875 18.703125 
Q 43.0625 26.03125 39.671875 28.421875 
Q 36.28125 30.8125 30.421875 30.8125 
L 19.671875 30.8125 
L 19.671875 0 
L 9.8125 0 
L 9.8125 72.90625 
L 32.078125 72.90625 
Q 44.578125 72.90625 50.734375 67.671875 
Q 56.890625 62.453125 56.890625 51.90625 
Q 56.890625 45.015625 53.6875 40.46875 
Q 50.484375 35.9375 44.390625 34.1875 
z
M 19.671875 64.796875 
L 19.671875 38.921875 
L 32.078125 38.921875 
Q 39.203125 38.921875 42.84375 42.21875 
Q 46.484375 45.515625 46.484375 51.90625 
Q 46.484375 58.296875 42.84375 61.546875 
Q 39.203125 64.796875 32.078125 64.796875 
z
" id="DejaVuSans-82"/>
      <path d="M 8.5 21.578125 
L 8.5 54.6875 
L 17.484375 54.6875 
L 17.484375 21.921875 
Q 17.484375 14.15625 20.5 10.265625 
Q 23.53125 6.390625 29.59375 6.390625 
Q 36.859375 6.390625 41.078125 11.03125 
Q 45.3125 15.671875 45.3125 23.6875 
L 45.3125 54.6875 
L 54.296875 54.6875 
L 54.296875 0 
L 45.3125 0 
L 45.3125 8.40625 
Q 42.046875 3.421875 37.71875 1 
Q 33.40625 -1.421875 27.6875 -1.421875 
Q 18.265625 -1.421875 13.375 4.4375 
Q 8.5 10.296875 8.5 21.578125 
z
M 31.109375 56 
z
" id="DejaVuSans-117"/>
      <path d="M 51.125 44 
L 36.921875 44 
L 32.8125 27.6875 
L 47.125 27.6875 
z
M 43.796875 71.78125 
L 38.71875 51.515625 
L 52.984375 51.515625 
L 58.109375 71.78125 
L 65.921875 71.78125 
L 60.890625 51.515625 
L 76.125 51.515625 
L 76.125 44 
L 58.984375 44 
L 54.984375 27.6875 
L 70.515625 27.6875 
L 70.515625 20.21875 
L 53.078125 20.21875 
L 48 0 
L 40.1875 0 
L 45.21875 20.21875 
L 30.90625 20.21875 
L 25.875 0 
L 18.015625 0 
L 23.09375 20.21875 
L 7.71875 20.21875 
L 7.71875 27.6875 
L 24.90625 27.6875 
L 29 44 
L 13.28125 44 
L 13.28125 51.515625 
L 30.90625 51.515625 
L 35.890625 71.78125 
z
" id="DejaVuSans-35"/>
     </defs>
     <use xlink:href="#DejaVuSans-77"/>
     <use x="86.279297" xlink:href="#DejaVuSans-112"/>
     <use x="149.755859" xlink:href="#DejaVuSans-114"/>
     <use x="188.619141" xlink:href="#DejaVuSans-111"/>
     <use x="249.800781" xlink:href="#DejaVuSans-102"/>
     <use x="285.005859" xlink:href="#DejaVuSans-32"/>
     <use x="316.792969" xlink:href="#DejaVuSans-77"/>
     <use x="403.072266" xlink:href="#DejaVuSans-101"/>
     <use x="464.595703" xlink:href="#DejaVuSans-109"/>
     <use x="562.007812" xlink:href="#DejaVuSans-111"/>
     <use x="623.189453" xlink:href="#DejaVuSans-114"/>
     <use x="664.302734" xlink:href="#DejaVuSans-121"/>
     <use x="723.482422" xlink:href="#DejaVuSans-32"/>
     <use x="755.269531" xlink:href="#DejaVuSans-80"/>
     <use x="813.822266" xlink:href="#DejaVuSans-114"/>
     <use x="852.685547" xlink:href="#DejaVuSans-111"/>
     <use x="913.867188" xlink:href="#DejaVuSans-102"/>
     <use x="949.072266" xlink:href="#DejaVuSans-105"/>
     <use x="976.855469" xlink:href="#DejaVuSans-108"/>
     <use x="1004.638672" xlink:href="#DejaVuSans-101"/>
     <use x="1066.162109" xlink:href="#DejaVuSans-32"/>
     <use x="1097.949219" xlink:href="#DejaVuSans-84"/>
     <use x="1142.033203" xlink:href="#DejaVuSans-101"/>
     <use x="1203.556641" xlink:href="#DejaVuSans-115"/>
     <use x="1255.65625" xlink:href="#DejaVuSans-116"/>
     <use x="1294.865234" xlink:href="#DejaVuSans-32"/>
     <use x="1326.652344" xlink:href="#DejaVuSans-40"/>
     <use x="1365.666016" xlink:href="#DejaVuSans-82"/>
     <use x="1430.648438" xlink:href="#DejaVuSans-117"/>
     <use x="1494.027344" xlink:href="#DejaVuSans-110"/>
     <use x="1557.40625" xlink:href="#DejaVuSans-32"/>
     <use x="1589.193359" xlink:href="#DejaVuSans-35"/>
     <use x="1672.982422" xlink:href="#DejaVuSans-49"/>
     <use x="1736.605469" xlink:href="#DejaVuSans-41"/>
    </g>
   </g>
   <g id="legend_1">
    <g id="patch_7">
     <path d="M 109.4 143.310625 
L 328.585938 143.310625 
Q 330.585938 143.310625 330.585938 141.310625 
L 330.585938 83.32 
Q 330.585938 81.32 328.585938 81.32 
L 109.4 81.32 
Q 107.4 81.32 107.4 83.32 
L 107.4 141.310625 
Q 107.4 143.310625 109.4 143.310625 
z
" style="fill:#ffffff;opacity:0.8;stroke:#cccccc;stroke-linejoin:miter;"/>
    </g>
    <g id="line2d_38">
     <path d="M 111.4 89.418438 
L 131.4 89.418438 
" style="fill:none;stroke:#000000;stroke-linecap:square;stroke-width:1.5;"/>
    </g>
    <g id="line2d_39">
     <g>
      <use style="stroke:#000000;" x="121.4" xlink:href="#m997975a244" y="89.418438"/>
     </g>
    </g>
    <g id="text_19">
     <!-- 06 / 04 / 2021 - start at 17:38:31.174 -->
     <g transform="translate(139.4 92.918438)scale(0.1 -0.1)">
      <defs>
       <path d="M 25.390625 72.90625 
L 33.6875 72.90625 
L 8.296875 -9.28125 
L 0 -9.28125 
z
" id="DejaVuSans-47"/>
       <path d="M 4.890625 31.390625 
L 31.203125 31.390625 
L 31.203125 23.390625 
L 4.890625 23.390625 
z
" id="DejaVuSans-45"/>
       <path d="M 34.28125 27.484375 
Q 23.390625 27.484375 19.1875 25 
Q 14.984375 22.515625 14.984375 16.5 
Q 14.984375 11.71875 18.140625 8.90625 
Q 21.296875 6.109375 26.703125 6.109375 
Q 34.1875 6.109375 38.703125 11.40625 
Q 43.21875 16.703125 43.21875 25.484375 
L 43.21875 27.484375 
z
M 52.203125 31.203125 
L 52.203125 0 
L 43.21875 0 
L 43.21875 8.296875 
Q 40.140625 3.328125 35.546875 0.953125 
Q 30.953125 -1.421875 24.3125 -1.421875 
Q 15.921875 -1.421875 10.953125 3.296875 
Q 6 8.015625 6 15.921875 
Q 6 25.140625 12.171875 29.828125 
Q 18.359375 34.515625 30.609375 34.515625 
L 43.21875 34.515625 
L 43.21875 35.40625 
Q 43.21875 41.609375 39.140625 45 
Q 35.0625 48.390625 27.6875 48.390625 
Q 23 48.390625 18.546875 47.265625 
Q 14.109375 46.140625 10.015625 43.890625 
L 10.015625 52.203125 
Q 14.9375 54.109375 19.578125 55.046875 
Q 24.21875 56 28.609375 56 
Q 40.484375 56 46.34375 49.84375 
Q 52.203125 43.703125 52.203125 31.203125 
z
" id="DejaVuSans-97"/>
       <path d="M 11.71875 12.40625 
L 22.015625 12.40625 
L 22.015625 0 
L 11.71875 0 
z
M 11.71875 51.703125 
L 22.015625 51.703125 
L 22.015625 39.3125 
L 11.71875 39.3125 
z
" id="DejaVuSans-58"/>
       <path d="M 10.6875 12.40625 
L 21 12.40625 
L 21 0 
L 10.6875 0 
z
" id="DejaVuSans-46"/>
      </defs>
      <use xlink:href="#DejaVuSans-48"/>
      <use x="63.623047" xlink:href="#DejaVuSans-54"/>
      <use x="127.246094" xlink:href="#DejaVuSans-32"/>
      <use x="159.033203" xlink:href="#DejaVuSans-47"/>
      <use x="192.724609" xlink:href="#DejaVuSans-32"/>
      <use x="224.511719" xlink:href="#DejaVuSans-48"/>
      <use x="288.134766" xlink:href="#DejaVuSans-52"/>
      <use x="351.757812" xlink:href="#DejaVuSans-32"/>
      <use x="383.544922" xlink:href="#DejaVuSans-47"/>
      <use x="417.236328" xlink:href="#DejaVuSans-32"/>
      <use x="449.023438" xlink:href="#DejaVuSans-50"/>
      <use x="512.646484" xlink:href="#DejaVuSans-48"/>
      <use x="576.269531" xlink:href="#DejaVuSans-50"/>
      <use x="639.892578" xlink:href="#DejaVuSans-49"/>
      <use x="703.515625" xlink:href="#DejaVuSans-32"/>
      <use x="735.302734" xlink:href="#DejaVuSans-45"/>
      <use x="771.386719" xlink:href="#DejaVuSans-32"/>
      <use x="803.173828" xlink:href="#DejaVuSans-115"/>
      <use x="855.273438" xlink:href="#DejaVuSans-116"/>
      <use x="894.482422" xlink:href="#DejaVuSans-97"/>
      <use x="955.761719" xlink:href="#DejaVuSans-114"/>
      <use x="996.875" xlink:href="#DejaVuSans-116"/>
      <use x="1036.083984" xlink:href="#DejaVuSans-32"/>
      <use x="1067.871094" xlink:href="#DejaVuSans-97"/>
      <use x="1129.150391" xlink:href="#DejaVuSans-116"/>
      <use x="1168.359375" xlink:href="#DejaVuSans-32"/>
      <use x="1200.146484" xlink:href="#DejaVuSans-49"/>
      <use x="1263.769531" xlink:href="#DejaVuSans-55"/>
      <use x="1327.392578" xlink:href="#DejaVuSans-58"/>
      <use x="1361.083984" xlink:href="#DejaVuSans-51"/>
      <use x="1424.707031" xlink:href="#DejaVuSans-56"/>
      <use x="1488.330078" xlink:href="#DejaVuSans-58"/>
      <use x="1522.021484" xlink:href="#DejaVuSans-51"/>
      <use x="1585.644531" xlink:href="#DejaVuSans-49"/>
      <use x="1649.267578" xlink:href="#DejaVuSans-46"/>
      <use x="1681.054688" xlink:href="#DejaVuSans-49"/>
      <use x="1744.677734" xlink:href="#DejaVuSans-55"/>
      <use x="1808.300781" xlink:href="#DejaVuSans-52"/>
     </g>
    </g>
    <g id="line2d_40">
     <path d="M 111.4 104.096563 
L 131.4 104.096563 
" style="fill:none;stroke:#00bfbf;stroke-linecap:square;stroke-width:2;"/>
    </g>
    <g id="line2d_41"/>
    <g id="text_20">
     <!-- bulk_NN 0.061s -->
     <g transform="translate(139.4 107.596563)scale(0.1 -0.1)">
      <defs>
       <path d="M 48.6875 27.296875 
Q 48.6875 37.203125 44.609375 42.84375 
Q 40.53125 48.484375 33.40625 48.484375 
Q 26.265625 48.484375 22.1875 42.84375 
Q 18.109375 37.203125 18.109375 27.296875 
Q 18.109375 17.390625 22.1875 11.75 
Q 26.265625 6.109375 33.40625 6.109375 
Q 40.53125 6.109375 44.609375 11.75 
Q 48.6875 17.390625 48.6875 27.296875 
z
M 18.109375 46.390625 
Q 20.953125 51.265625 25.265625 53.625 
Q 29.59375 56 35.59375 56 
Q 45.5625 56 51.78125 48.09375 
Q 58.015625 40.1875 58.015625 27.296875 
Q 58.015625 14.40625 51.78125 6.484375 
Q 45.5625 -1.421875 35.59375 -1.421875 
Q 29.59375 -1.421875 25.265625 0.953125 
Q 20.953125 3.328125 18.109375 8.203125 
L 18.109375 0 
L 9.078125 0 
L 9.078125 75.984375 
L 18.109375 75.984375 
z
" id="DejaVuSans-98"/>
       <path d="M 9.078125 75.984375 
L 18.109375 75.984375 
L 18.109375 31.109375 
L 44.921875 54.6875 
L 56.390625 54.6875 
L 27.390625 29.109375 
L 57.625 0 
L 45.90625 0 
L 18.109375 26.703125 
L 18.109375 0 
L 9.078125 0 
z
" id="DejaVuSans-107"/>
       <path d="M 50.984375 -16.609375 
L 50.984375 -23.578125 
L -0.984375 -23.578125 
L -0.984375 -16.609375 
z
" id="DejaVuSans-95"/>
       <path d="M 9.8125 72.90625 
L 23.09375 72.90625 
L 55.421875 11.921875 
L 55.421875 72.90625 
L 64.984375 72.90625 
L 64.984375 0 
L 51.703125 0 
L 19.390625 60.984375 
L 19.390625 0 
L 9.8125 0 
z
" id="DejaVuSans-78"/>
      </defs>
      <use xlink:href="#DejaVuSans-98"/>
      <use x="63.476562" xlink:href="#DejaVuSans-117"/>
      <use x="126.855469" xlink:href="#DejaVuSans-108"/>
      <use x="154.638672" xlink:href="#DejaVuSans-107"/>
      <use x="212.548828" xlink:href="#DejaVuSans-95"/>
      <use x="262.548828" xlink:href="#DejaVuSans-78"/>
      <use x="337.353516" xlink:href="#DejaVuSans-78"/>
      <use x="412.158203" xlink:href="#DejaVuSans-32"/>
      <use x="443.945312" xlink:href="#DejaVuSans-48"/>
      <use x="507.568359" xlink:href="#DejaVuSans-46"/>
      <use x="539.355469" xlink:href="#DejaVuSans-48"/>
      <use x="602.978516" xlink:href="#DejaVuSans-54"/>
      <use x="666.601562" xlink:href="#DejaVuSans-49"/>
      <use x="730.224609" xlink:href="#DejaVuSans-115"/>
     </g>
    </g>
    <g id="line2d_42">
     <path d="M 111.4 119.052813 
L 131.4 119.052813 
" style="fill:none;stroke:#bfbf00;stroke-linecap:square;stroke-width:2;"/>
    </g>
    <g id="line2d_43"/>
    <g id="text_21">
     <!-- predict 0.196s -->
     <g transform="translate(139.4 122.552813)scale(0.1 -0.1)">
      <use xlink:href="#DejaVuSans-112"/>
      <use x="63.476562" xlink:href="#DejaVuSans-114"/>
      <use x="102.339844" xlink:href="#DejaVuSans-101"/>
      <use x="163.863281" xlink:href="#DejaVuSans-100"/>
      <use x="227.339844" xlink:href="#DejaVuSans-105"/>
      <use x="255.123047" xlink:href="#DejaVuSans-99"/>
      <use x="310.103516" xlink:href="#DejaVuSans-116"/>
      <use x="349.3125" xlink:href="#DejaVuSans-32"/>
      <use x="381.099609" xlink:href="#DejaVuSans-48"/>
      <use x="444.722656" xlink:href="#DejaVuSans-46"/>
      <use x="476.509766" xlink:href="#DejaVuSans-49"/>
      <use x="540.132812" xlink:href="#DejaVuSans-57"/>
      <use x="603.755859" xlink:href="#DejaVuSans-54"/>
      <use x="667.378906" xlink:href="#DejaVuSans-115"/>
     </g>
    </g>
    <g id="line2d_44">
     <path d="M 111.4 133.730938 
L 131.4 133.730938 
" style="fill:none;stroke:#008000;stroke-linecap:square;stroke-width:2;"/>
    </g>
    <g id="line2d_45"/>
    <g id="text_22">
     <!-- testAccuracy 0.005s -->
     <g transform="translate(139.4 137.230938)scale(0.1 -0.1)">
      <defs>
       <path d="M 34.1875 63.1875 
L 20.796875 26.90625 
L 47.609375 26.90625 
z
M 28.609375 72.90625 
L 39.796875 72.90625 
L 67.578125 0 
L 57.328125 0 
L 50.6875 18.703125 
L 17.828125 18.703125 
L 11.1875 0 
L 0.78125 0 
z
" id="DejaVuSans-65"/>
      </defs>
      <use xlink:href="#DejaVuSans-116"/>
      <use x="39.208984" xlink:href="#DejaVuSans-101"/>
      <use x="100.732422" xlink:href="#DejaVuSans-115"/>
      <use x="152.832031" xlink:href="#DejaVuSans-116"/>
      <use x="192.041016" xlink:href="#DejaVuSans-65"/>
      <use x="258.699219" xlink:href="#DejaVuSans-99"/>
      <use x="313.679688" xlink:href="#DejaVuSans-99"/>
      <use x="368.660156" xlink:href="#DejaVuSans-117"/>
      <use x="432.039062" xlink:href="#DejaVuSans-114"/>
      <use x="473.152344" xlink:href="#DejaVuSans-97"/>
      <use x="534.431641" xlink:href="#DejaVuSans-99"/>
      <use x="589.412109" xlink:href="#DejaVuSans-121"/>
      <use x="648.591797" xlink:href="#DejaVuSans-32"/>
      <use x="680.378906" xlink:href="#DejaVuSans-48"/>
      <use x="744.001953" xlink:href="#DejaVuSans-46"/>
      <use x="775.789062" xlink:href="#DejaVuSans-48"/>
      <use x="839.412109" xlink:href="#DejaVuSans-48"/>
      <use x="903.035156" xlink:href="#DejaVuSans-53"/>
      <use x="966.658203" xlink:href="#DejaVuSans-115"/>
     </g>
    </g>
   </g>
  </g>
 </g>
 <defs>
  <clipPath id="p01f2cbacfb">
   <rect height="381.6" width="614.4" x="102.4" y="76.32"/>
  </clipPath>
 </defs>
</svg>
