<?xml version="1.0" encoding="utf-8" standalone="no"?>
<!DOCTYPE svg PUBLIC "-//W3C//DTD SVG 1.1//EN"
  "http://www.w3.org/Graphics/SVG/1.1/DTD/svg11.dtd">
<!-- Created with matplotlib (https://matplotlib.org/) -->
<svg height="508.8pt" version="1.1" viewBox="0 0 1024 508.8" width="1024pt" xmlns="http://www.w3.org/2000/svg" xmlns:xlink="http://www.w3.org/1999/xlink">
 <metadata>
  <rdf:RDF xmlns:cc="http://creativecommons.org/ns#" xmlns:dc="http://purl.org/dc/elements/1.1/" xmlns:rdf="http://www.w3.org/1999/02/22-rdf-syntax-ns#">
   <cc:Work>
    <dc:type rdf:resource="http://purl.org/dc/dcmitype/StillImage"/>
    <dc:date>2021-04-06T17:55:22.524307</dc:date>
    <dc:format>image/svg+xml</dc:format>
    <dc:creator>
     <cc:Agent>
      <dc:title>Matplotlib v3.3.4, https://matplotlib.org/</dc:title>
     </cc:Agent>
    </dc:creator>
   </cc:Work>
  </rdf:RDF>
 </metadata>
 <defs>
  <style type="text/css">*{stroke-linecap:butt;stroke-linejoin:round;}</style>
 </defs>
 <g id="figure_1">
  <g id="patch_1">
   <path d="M 0 508.8 
L 1024 508.8 
L 1024 0 
L 0 0 
z
" style="fill:#ffffff;"/>
  </g>
  <g id="axes_1">
   <g id="patch_2">
    <path d="M 102.4 457.92 
L 716.8 457.92 
L 716.8 76.32 
L 102.4 76.32 
z
" style="fill:#ffffff;"/>
   </g>
   <g id="matplotlib.axis_1">
    <g id="xtick_1">
     <g id="line2d_1">
      <path clip-path="url(#pe26fb10b5b)" d="M 188.452842 457.92 
L 188.452842 76.32 
" style="fill:none;stroke:#b0b0b0;stroke-linecap:square;stroke-width:0.8;"/>
     </g>
     <g id="line2d_2">
      <defs>
       <path d="M 0 0 
L 0 3.5 
" id="m33424a8a0b" style="stroke:#000000;stroke-width:0.8;"/>
      </defs>
      <g>
       <use style="stroke:#000000;stroke-width:0.8;" x="188.452842" xlink:href="#m33424a8a0b" y="457.92"/>
      </g>
     </g>
     <g id="text_1">
      <!-- −10 -->
      <g transform="translate(177.900498 472.518437)scale(0.1 -0.1)">
       <defs>
        <path d="M 10.59375 35.5 
L 73.1875 35.5 
L 73.1875 27.203125 
L 10.59375 27.203125 
z
" id="DejaVuSans-8722"/>
        <path d="M 12.40625 8.296875 
L 28.515625 8.296875 
L 28.515625 63.921875 
L 10.984375 60.40625 
L 10.984375 69.390625 
L 28.421875 72.90625 
L 38.28125 72.90625 
L 38.28125 8.296875 
L 54.390625 8.296875 
L 54.390625 0 
L 12.40625 0 
z
" id="DejaVuSans-49"/>
        <path d="M 31.78125 66.40625 
Q 24.171875 66.40625 20.328125 58.90625 
Q 16.5 51.421875 16.5 36.375 
Q 16.5 21.390625 20.328125 13.890625 
Q 24.171875 6.390625 31.78125 6.390625 
Q 39.453125 6.390625 43.28125 13.890625 
Q 47.125 21.390625 47.125 36.375 
Q 47.125 51.421875 43.28125 58.90625 
Q 39.453125 66.40625 31.78125 66.40625 
z
M 31.78125 74.21875 
Q 44.046875 74.21875 50.515625 64.515625 
Q 56.984375 54.828125 56.984375 36.375 
Q 56.984375 17.96875 50.515625 8.265625 
Q 44.046875 -1.421875 31.78125 -1.421875 
Q 19.53125 -1.421875 13.0625 8.265625 
Q 6.59375 17.96875 6.59375 36.375 
Q 6.59375 54.828125 13.0625 64.515625 
Q 19.53125 74.21875 31.78125 74.21875 
z
" id="DejaVuSans-48"/>
       </defs>
       <use xlink:href="#DejaVuSans-8722"/>
       <use x="83.789062" xlink:href="#DejaVuSans-49"/>
       <use x="147.412109" xlink:href="#DejaVuSans-48"/>
      </g>
     </g>
    </g>
    <g id="xtick_2">
     <g id="line2d_3">
      <path clip-path="url(#pe26fb10b5b)" d="M 306.285997 457.92 
L 306.285997 76.32 
" style="fill:none;stroke:#b0b0b0;stroke-linecap:square;stroke-width:0.8;"/>
     </g>
     <g id="line2d_4">
      <g>
       <use style="stroke:#000000;stroke-width:0.8;" x="306.285997" xlink:href="#m33424a8a0b" y="457.92"/>
      </g>
     </g>
     <g id="text_2">
      <!-- 0 -->
      <g transform="translate(303.104747 472.518437)scale(0.1 -0.1)">
       <use xlink:href="#DejaVuSans-48"/>
      </g>
     </g>
    </g>
    <g id="xtick_3">
     <g id="line2d_5">
      <path clip-path="url(#pe26fb10b5b)" d="M 424.119152 457.92 
L 424.119152 76.32 
" style="fill:none;stroke:#b0b0b0;stroke-linecap:square;stroke-width:0.8;"/>
     </g>
     <g id="line2d_6">
      <g>
       <use style="stroke:#000000;stroke-width:0.8;" x="424.119152" xlink:href="#m33424a8a0b" y="457.92"/>
      </g>
     </g>
     <g id="text_3">
      <!-- 10 -->
      <g transform="translate(417.756652 472.518437)scale(0.1 -0.1)">
       <use xlink:href="#DejaVuSans-49"/>
       <use x="63.623047" xlink:href="#DejaVuSans-48"/>
      </g>
     </g>
    </g>
    <g id="xtick_4">
     <g id="line2d_7">
      <path clip-path="url(#pe26fb10b5b)" d="M 541.952306 457.92 
L 541.952306 76.32 
" style="fill:none;stroke:#b0b0b0;stroke-linecap:square;stroke-width:0.8;"/>
     </g>
     <g id="line2d_8">
      <g>
       <use style="stroke:#000000;stroke-width:0.8;" x="541.952306" xlink:href="#m33424a8a0b" y="457.92"/>
      </g>
     </g>
     <g id="text_4">
      <!-- 20 -->
      <g transform="translate(535.589806 472.518437)scale(0.1 -0.1)">
       <defs>
        <path d="M 19.1875 8.296875 
L 53.609375 8.296875 
L 53.609375 0 
L 7.328125 0 
L 7.328125 8.296875 
Q 12.9375 14.109375 22.625 23.890625 
Q 32.328125 33.6875 34.8125 36.53125 
Q 39.546875 41.84375 41.421875 45.53125 
Q 43.3125 49.21875 43.3125 52.78125 
Q 43.3125 58.59375 39.234375 62.25 
Q 35.15625 65.921875 28.609375 65.921875 
Q 23.96875 65.921875 18.8125 64.3125 
Q 13.671875 62.703125 7.8125 59.421875 
L 7.8125 69.390625 
Q 13.765625 71.78125 18.9375 73 
Q 24.125 74.21875 28.421875 74.21875 
Q 39.75 74.21875 46.484375 68.546875 
Q 53.21875 62.890625 53.21875 53.421875 
Q 53.21875 48.921875 51.53125 44.890625 
Q 49.859375 40.875 45.40625 35.40625 
Q 44.1875 33.984375 37.640625 27.21875 
Q 31.109375 20.453125 19.1875 8.296875 
z
" id="DejaVuSans-50"/>
       </defs>
       <use xlink:href="#DejaVuSans-50"/>
       <use x="63.623047" xlink:href="#DejaVuSans-48"/>
      </g>
     </g>
    </g>
    <g id="xtick_5">
     <g id="line2d_9">
      <path clip-path="url(#pe26fb10b5b)" d="M 659.785461 457.92 
L 659.785461 76.32 
" style="fill:none;stroke:#b0b0b0;stroke-linecap:square;stroke-width:0.8;"/>
     </g>
     <g id="line2d_10">
      <g>
       <use style="stroke:#000000;stroke-width:0.8;" x="659.785461" xlink:href="#m33424a8a0b" y="457.92"/>
      </g>
     </g>
     <g id="text_5">
      <!-- 30 -->
      <g transform="translate(653.422961 472.518437)scale(0.1 -0.1)">
       <defs>
        <path d="M 40.578125 39.3125 
Q 47.65625 37.796875 51.625 33 
Q 55.609375 28.21875 55.609375 21.1875 
Q 55.609375 10.40625 48.1875 4.484375 
Q 40.765625 -1.421875 27.09375 -1.421875 
Q 22.515625 -1.421875 17.65625 -0.515625 
Q 12.796875 0.390625 7.625 2.203125 
L 7.625 11.71875 
Q 11.71875 9.328125 16.59375 8.109375 
Q 21.484375 6.890625 26.8125 6.890625 
Q 36.078125 6.890625 40.9375 10.546875 
Q 45.796875 14.203125 45.796875 21.1875 
Q 45.796875 27.640625 41.28125 31.265625 
Q 36.765625 34.90625 28.71875 34.90625 
L 20.21875 34.90625 
L 20.21875 43.015625 
L 29.109375 43.015625 
Q 36.375 43.015625 40.234375 45.921875 
Q 44.09375 48.828125 44.09375 54.296875 
Q 44.09375 59.90625 40.109375 62.90625 
Q 36.140625 65.921875 28.71875 65.921875 
Q 24.65625 65.921875 20.015625 65.03125 
Q 15.375 64.15625 9.8125 62.3125 
L 9.8125 71.09375 
Q 15.4375 72.65625 20.34375 73.4375 
Q 25.25 74.21875 29.59375 74.21875 
Q 40.828125 74.21875 47.359375 69.109375 
Q 53.90625 64.015625 53.90625 55.328125 
Q 53.90625 49.265625 50.4375 45.09375 
Q 46.96875 40.921875 40.578125 39.3125 
z
" id="DejaVuSans-51"/>
       </defs>
       <use xlink:href="#DejaVuSans-51"/>
       <use x="63.623047" xlink:href="#DejaVuSans-48"/>
      </g>
     </g>
    </g>
    <g id="text_6">
     <!-- Time (in seconds) -->
     <g transform="translate(365.291406 486.196562)scale(0.1 -0.1)">
      <defs>
       <path d="M -0.296875 72.90625 
L 61.375 72.90625 
L 61.375 64.59375 
L 35.5 64.59375 
L 35.5 0 
L 25.59375 0 
L 25.59375 64.59375 
L -0.296875 64.59375 
z
" id="DejaVuSans-84"/>
       <path d="M 9.421875 54.6875 
L 18.40625 54.6875 
L 18.40625 0 
L 9.421875 0 
z
M 9.421875 75.984375 
L 18.40625 75.984375 
L 18.40625 64.59375 
L 9.421875 64.59375 
z
" id="DejaVuSans-105"/>
       <path d="M 52 44.1875 
Q 55.375 50.25 60.0625 53.125 
Q 64.75 56 71.09375 56 
Q 79.640625 56 84.28125 50.015625 
Q 88.921875 44.046875 88.921875 33.015625 
L 88.921875 0 
L 79.890625 0 
L 79.890625 32.71875 
Q 79.890625 40.578125 77.09375 44.375 
Q 74.3125 48.1875 68.609375 48.1875 
Q 61.625 48.1875 57.5625 43.546875 
Q 53.515625 38.921875 53.515625 30.90625 
L 53.515625 0 
L 44.484375 0 
L 44.484375 32.71875 
Q 44.484375 40.625 41.703125 44.40625 
Q 38.921875 48.1875 33.109375 48.1875 
Q 26.21875 48.1875 22.15625 43.53125 
Q 18.109375 38.875 18.109375 30.90625 
L 18.109375 0 
L 9.078125 0 
L 9.078125 54.6875 
L 18.109375 54.6875 
L 18.109375 46.1875 
Q 21.1875 51.21875 25.484375 53.609375 
Q 29.78125 56 35.6875 56 
Q 41.65625 56 45.828125 52.96875 
Q 50 49.953125 52 44.1875 
z
" id="DejaVuSans-109"/>
       <path d="M 56.203125 29.59375 
L 56.203125 25.203125 
L 14.890625 25.203125 
Q 15.484375 15.921875 20.484375 11.0625 
Q 25.484375 6.203125 34.421875 6.203125 
Q 39.59375 6.203125 44.453125 7.46875 
Q 49.3125 8.734375 54.109375 11.28125 
L 54.109375 2.78125 
Q 49.265625 0.734375 44.1875 -0.34375 
Q 39.109375 -1.421875 33.890625 -1.421875 
Q 20.796875 -1.421875 13.15625 6.1875 
Q 5.515625 13.8125 5.515625 26.8125 
Q 5.515625 40.234375 12.765625 48.109375 
Q 20.015625 56 32.328125 56 
Q 43.359375 56 49.78125 48.890625 
Q 56.203125 41.796875 56.203125 29.59375 
z
M 47.21875 32.234375 
Q 47.125 39.59375 43.09375 43.984375 
Q 39.0625 48.390625 32.421875 48.390625 
Q 24.90625 48.390625 20.390625 44.140625 
Q 15.875 39.890625 15.1875 32.171875 
z
" id="DejaVuSans-101"/>
       <path id="DejaVuSans-32"/>
       <path d="M 31 75.875 
Q 24.46875 64.65625 21.28125 53.65625 
Q 18.109375 42.671875 18.109375 31.390625 
Q 18.109375 20.125 21.3125 9.0625 
Q 24.515625 -2 31 -13.1875 
L 23.1875 -13.1875 
Q 15.875 -1.703125 12.234375 9.375 
Q 8.59375 20.453125 8.59375 31.390625 
Q 8.59375 42.28125 12.203125 53.3125 
Q 15.828125 64.359375 23.1875 75.875 
z
" id="DejaVuSans-40"/>
       <path d="M 54.890625 33.015625 
L 54.890625 0 
L 45.90625 0 
L 45.90625 32.71875 
Q 45.90625 40.484375 42.875 44.328125 
Q 39.84375 48.1875 33.796875 48.1875 
Q 26.515625 48.1875 22.3125 43.546875 
Q 18.109375 38.921875 18.109375 30.90625 
L 18.109375 0 
L 9.078125 0 
L 9.078125 54.6875 
L 18.109375 54.6875 
L 18.109375 46.1875 
Q 21.34375 51.125 25.703125 53.5625 
Q 30.078125 56 35.796875 56 
Q 45.21875 56 50.046875 50.171875 
Q 54.890625 44.34375 54.890625 33.015625 
z
" id="DejaVuSans-110"/>
       <path d="M 44.28125 53.078125 
L 44.28125 44.578125 
Q 40.484375 46.53125 36.375 47.5 
Q 32.28125 48.484375 27.875 48.484375 
Q 21.1875 48.484375 17.84375 46.4375 
Q 14.5 44.390625 14.5 40.28125 
Q 14.5 37.15625 16.890625 35.375 
Q 19.28125 33.59375 26.515625 31.984375 
L 29.59375 31.296875 
Q 39.15625 29.25 43.1875 25.515625 
Q 47.21875 21.78125 47.21875 15.09375 
Q 47.21875 7.46875 41.1875 3.015625 
Q 35.15625 -1.421875 24.609375 -1.421875 
Q 20.21875 -1.421875 15.453125 -0.5625 
Q 10.6875 0.296875 5.421875 2 
L 5.421875 11.28125 
Q 10.40625 8.6875 15.234375 7.390625 
Q 20.0625 6.109375 24.8125 6.109375 
Q 31.15625 6.109375 34.5625 8.28125 
Q 37.984375 10.453125 37.984375 14.40625 
Q 37.984375 18.0625 35.515625 20.015625 
Q 33.0625 21.96875 24.703125 23.78125 
L 21.578125 24.515625 
Q 13.234375 26.265625 9.515625 29.90625 
Q 5.8125 33.546875 5.8125 39.890625 
Q 5.8125 47.609375 11.28125 51.796875 
Q 16.75 56 26.8125 56 
Q 31.78125 56 36.171875 55.265625 
Q 40.578125 54.546875 44.28125 53.078125 
z
" id="DejaVuSans-115"/>
       <path d="M 48.78125 52.59375 
L 48.78125 44.1875 
Q 44.96875 46.296875 41.140625 47.34375 
Q 37.3125 48.390625 33.40625 48.390625 
Q 24.65625 48.390625 19.8125 42.84375 
Q 14.984375 37.3125 14.984375 27.296875 
Q 14.984375 17.28125 19.8125 11.734375 
Q 24.65625 6.203125 33.40625 6.203125 
Q 37.3125 6.203125 41.140625 7.25 
Q 44.96875 8.296875 48.78125 10.40625 
L 48.78125 2.09375 
Q 45.015625 0.34375 40.984375 -0.53125 
Q 36.96875 -1.421875 32.421875 -1.421875 
Q 20.0625 -1.421875 12.78125 6.34375 
Q 5.515625 14.109375 5.515625 27.296875 
Q 5.515625 40.671875 12.859375 48.328125 
Q 20.21875 56 33.015625 56 
Q 37.15625 56 41.109375 55.140625 
Q 45.0625 54.296875 48.78125 52.59375 
z
" id="DejaVuSans-99"/>
       <path d="M 30.609375 48.390625 
Q 23.390625 48.390625 19.1875 42.75 
Q 14.984375 37.109375 14.984375 27.296875 
Q 14.984375 17.484375 19.15625 11.84375 
Q 23.34375 6.203125 30.609375 6.203125 
Q 37.796875 6.203125 41.984375 11.859375 
Q 46.1875 17.53125 46.1875 27.296875 
Q 46.1875 37.015625 41.984375 42.703125 
Q 37.796875 48.390625 30.609375 48.390625 
z
M 30.609375 56 
Q 42.328125 56 49.015625 48.375 
Q 55.71875 40.765625 55.71875 27.296875 
Q 55.71875 13.875 49.015625 6.21875 
Q 42.328125 -1.421875 30.609375 -1.421875 
Q 18.84375 -1.421875 12.171875 6.21875 
Q 5.515625 13.875 5.515625 27.296875 
Q 5.515625 40.765625 12.171875 48.375 
Q 18.84375 56 30.609375 56 
z
" id="DejaVuSans-111"/>
       <path d="M 45.40625 46.390625 
L 45.40625 75.984375 
L 54.390625 75.984375 
L 54.390625 0 
L 45.40625 0 
L 45.40625 8.203125 
Q 42.578125 3.328125 38.25 0.953125 
Q 33.9375 -1.421875 27.875 -1.421875 
Q 17.96875 -1.421875 11.734375 6.484375 
Q 5.515625 14.40625 5.515625 27.296875 
Q 5.515625 40.1875 11.734375 48.09375 
Q 17.96875 56 27.875 56 
Q 33.9375 56 38.25 53.625 
Q 42.578125 51.265625 45.40625 46.390625 
z
M 14.796875 27.296875 
Q 14.796875 17.390625 18.875 11.75 
Q 22.953125 6.109375 30.078125 6.109375 
Q 37.203125 6.109375 41.296875 11.75 
Q 45.40625 17.390625 45.40625 27.296875 
Q 45.40625 37.203125 41.296875 42.84375 
Q 37.203125 48.484375 30.078125 48.484375 
Q 22.953125 48.484375 18.875 42.84375 
Q 14.796875 37.203125 14.796875 27.296875 
z
" id="DejaVuSans-100"/>
       <path d="M 8.015625 75.875 
L 15.828125 75.875 
Q 23.140625 64.359375 26.78125 53.3125 
Q 30.421875 42.28125 30.421875 31.390625 
Q 30.421875 20.453125 26.78125 9.375 
Q 23.140625 -1.703125 15.828125 -13.1875 
L 8.015625 -13.1875 
Q 14.5 -2 17.703125 9.0625 
Q 20.90625 20.125 20.90625 31.390625 
Q 20.90625 42.671875 17.703125 53.65625 
Q 14.5 64.65625 8.015625 75.875 
z
" id="DejaVuSans-41"/>
      </defs>
      <use xlink:href="#DejaVuSans-84"/>
      <use x="57.958984" xlink:href="#DejaVuSans-105"/>
      <use x="85.742188" xlink:href="#DejaVuSans-109"/>
      <use x="183.154297" xlink:href="#DejaVuSans-101"/>
      <use x="244.677734" xlink:href="#DejaVuSans-32"/>
      <use x="276.464844" xlink:href="#DejaVuSans-40"/>
      <use x="315.478516" xlink:href="#DejaVuSans-105"/>
      <use x="343.261719" xlink:href="#DejaVuSans-110"/>
      <use x="406.640625" xlink:href="#DejaVuSans-32"/>
      <use x="438.427734" xlink:href="#DejaVuSans-115"/>
      <use x="490.527344" xlink:href="#DejaVuSans-101"/>
      <use x="552.050781" xlink:href="#DejaVuSans-99"/>
      <use x="607.03125" xlink:href="#DejaVuSans-111"/>
      <use x="668.212891" xlink:href="#DejaVuSans-110"/>
      <use x="731.591797" xlink:href="#DejaVuSans-100"/>
      <use x="795.068359" xlink:href="#DejaVuSans-115"/>
      <use x="847.167969" xlink:href="#DejaVuSans-41"/>
     </g>
    </g>
   </g>
   <g id="matplotlib.axis_2">
    <g id="ytick_1">
     <g id="line2d_11">
      <path clip-path="url(#pe26fb10b5b)" d="M 102.4 404.142622 
L 716.8 404.142622 
" style="fill:none;stroke:#b0b0b0;stroke-linecap:square;stroke-width:0.8;"/>
     </g>
     <g id="line2d_12">
      <defs>
       <path d="M 0 0 
L -3.5 0 
" id="m7cf6d1a210" style="stroke:#000000;stroke-width:0.8;"/>
      </defs>
      <g>
       <use style="stroke:#000000;stroke-width:0.8;" x="102.4" xlink:href="#m7cf6d1a210" y="404.142622"/>
      </g>
     </g>
     <g id="text_7">
      <!-- 180 -->
      <g transform="translate(76.3125 407.941841)scale(0.1 -0.1)">
       <defs>
        <path d="M 31.78125 34.625 
Q 24.75 34.625 20.71875 30.859375 
Q 16.703125 27.09375 16.703125 20.515625 
Q 16.703125 13.921875 20.71875 10.15625 
Q 24.75 6.390625 31.78125 6.390625 
Q 38.8125 6.390625 42.859375 10.171875 
Q 46.921875 13.96875 46.921875 20.515625 
Q 46.921875 27.09375 42.890625 30.859375 
Q 38.875 34.625 31.78125 34.625 
z
M 21.921875 38.8125 
Q 15.578125 40.375 12.03125 44.71875 
Q 8.5 49.078125 8.5 55.328125 
Q 8.5 64.0625 14.71875 69.140625 
Q 20.953125 74.21875 31.78125 74.21875 
Q 42.671875 74.21875 48.875 69.140625 
Q 55.078125 64.0625 55.078125 55.328125 
Q 55.078125 49.078125 51.53125 44.71875 
Q 48 40.375 41.703125 38.8125 
Q 48.828125 37.15625 52.796875 32.3125 
Q 56.78125 27.484375 56.78125 20.515625 
Q 56.78125 9.90625 50.3125 4.234375 
Q 43.84375 -1.421875 31.78125 -1.421875 
Q 19.734375 -1.421875 13.25 4.234375 
Q 6.78125 9.90625 6.78125 20.515625 
Q 6.78125 27.484375 10.78125 32.3125 
Q 14.796875 37.15625 21.921875 38.8125 
z
M 18.3125 54.390625 
Q 18.3125 48.734375 21.84375 45.5625 
Q 25.390625 42.390625 31.78125 42.390625 
Q 38.140625 42.390625 41.71875 45.5625 
Q 45.3125 48.734375 45.3125 54.390625 
Q 45.3125 60.0625 41.71875 63.234375 
Q 38.140625 66.40625 31.78125 66.40625 
Q 25.390625 66.40625 21.84375 63.234375 
Q 18.3125 60.0625 18.3125 54.390625 
z
" id="DejaVuSans-56"/>
       </defs>
       <use xlink:href="#DejaVuSans-49"/>
       <use x="63.623047" xlink:href="#DejaVuSans-56"/>
       <use x="127.246094" xlink:href="#DejaVuSans-48"/>
      </g>
     </g>
    </g>
    <g id="ytick_2">
     <g id="line2d_13">
      <path clip-path="url(#pe26fb10b5b)" d="M 102.4 339.109466 
L 716.8 339.109466 
" style="fill:none;stroke:#b0b0b0;stroke-linecap:square;stroke-width:0.8;"/>
     </g>
     <g id="line2d_14">
      <g>
       <use style="stroke:#000000;stroke-width:0.8;" x="102.4" xlink:href="#m7cf6d1a210" y="339.109466"/>
      </g>
     </g>
     <g id="text_8">
      <!-- 200 -->
      <g transform="translate(76.3125 342.908685)scale(0.1 -0.1)">
       <use xlink:href="#DejaVuSans-50"/>
       <use x="63.623047" xlink:href="#DejaVuSans-48"/>
       <use x="127.246094" xlink:href="#DejaVuSans-48"/>
      </g>
     </g>
    </g>
    <g id="ytick_3">
     <g id="line2d_15">
      <path clip-path="url(#pe26fb10b5b)" d="M 102.4 274.07631 
L 716.8 274.07631 
" style="fill:none;stroke:#b0b0b0;stroke-linecap:square;stroke-width:0.8;"/>
     </g>
     <g id="line2d_16">
      <g>
       <use style="stroke:#000000;stroke-width:0.8;" x="102.4" xlink:href="#m7cf6d1a210" y="274.07631"/>
      </g>
     </g>
     <g id="text_9">
      <!-- 220 -->
      <g transform="translate(76.3125 277.875529)scale(0.1 -0.1)">
       <use xlink:href="#DejaVuSans-50"/>
       <use x="63.623047" xlink:href="#DejaVuSans-50"/>
       <use x="127.246094" xlink:href="#DejaVuSans-48"/>
      </g>
     </g>
    </g>
    <g id="ytick_4">
     <g id="line2d_17">
      <path clip-path="url(#pe26fb10b5b)" d="M 102.4 209.043155 
L 716.8 209.043155 
" style="fill:none;stroke:#b0b0b0;stroke-linecap:square;stroke-width:0.8;"/>
     </g>
     <g id="line2d_18">
      <g>
       <use style="stroke:#000000;stroke-width:0.8;" x="102.4" xlink:href="#m7cf6d1a210" y="209.043155"/>
      </g>
     </g>
     <g id="text_10">
      <!-- 240 -->
      <g transform="translate(76.3125 212.842373)scale(0.1 -0.1)">
       <defs>
        <path d="M 37.796875 64.3125 
L 12.890625 25.390625 
L 37.796875 25.390625 
z
M 35.203125 72.90625 
L 47.609375 72.90625 
L 47.609375 25.390625 
L 58.015625 25.390625 
L 58.015625 17.1875 
L 47.609375 17.1875 
L 47.609375 0 
L 37.796875 0 
L 37.796875 17.1875 
L 4.890625 17.1875 
L 4.890625 26.703125 
z
" id="DejaVuSans-52"/>
       </defs>
       <use xlink:href="#DejaVuSans-50"/>
       <use x="63.623047" xlink:href="#DejaVuSans-52"/>
       <use x="127.246094" xlink:href="#DejaVuSans-48"/>
      </g>
     </g>
    </g>
    <g id="ytick_5">
     <g id="line2d_19">
      <path clip-path="url(#pe26fb10b5b)" d="M 102.4 144.009999 
L 716.8 144.009999 
" style="fill:none;stroke:#b0b0b0;stroke-linecap:square;stroke-width:0.8;"/>
     </g>
     <g id="line2d_20">
      <g>
       <use style="stroke:#000000;stroke-width:0.8;" x="102.4" xlink:href="#m7cf6d1a210" y="144.009999"/>
      </g>
     </g>
     <g id="text_11">
      <!-- 260 -->
      <g transform="translate(76.3125 147.809218)scale(0.1 -0.1)">
       <defs>
        <path d="M 33.015625 40.375 
Q 26.375 40.375 22.484375 35.828125 
Q 18.609375 31.296875 18.609375 23.390625 
Q 18.609375 15.53125 22.484375 10.953125 
Q 26.375 6.390625 33.015625 6.390625 
Q 39.65625 6.390625 43.53125 10.953125 
Q 47.40625 15.53125 47.40625 23.390625 
Q 47.40625 31.296875 43.53125 35.828125 
Q 39.65625 40.375 33.015625 40.375 
z
M 52.59375 71.296875 
L 52.59375 62.3125 
Q 48.875 64.0625 45.09375 64.984375 
Q 41.3125 65.921875 37.59375 65.921875 
Q 27.828125 65.921875 22.671875 59.328125 
Q 17.53125 52.734375 16.796875 39.40625 
Q 19.671875 43.65625 24.015625 45.921875 
Q 28.375 48.1875 33.59375 48.1875 
Q 44.578125 48.1875 50.953125 41.515625 
Q 57.328125 34.859375 57.328125 23.390625 
Q 57.328125 12.15625 50.6875 5.359375 
Q 44.046875 -1.421875 33.015625 -1.421875 
Q 20.359375 -1.421875 13.671875 8.265625 
Q 6.984375 17.96875 6.984375 36.375 
Q 6.984375 53.65625 15.1875 63.9375 
Q 23.390625 74.21875 37.203125 74.21875 
Q 40.921875 74.21875 44.703125 73.484375 
Q 48.484375 72.75 52.59375 71.296875 
z
" id="DejaVuSans-54"/>
       </defs>
       <use xlink:href="#DejaVuSans-50"/>
       <use x="63.623047" xlink:href="#DejaVuSans-54"/>
       <use x="127.246094" xlink:href="#DejaVuSans-48"/>
      </g>
     </g>
    </g>
    <g id="ytick_6">
     <g id="line2d_21">
      <path clip-path="url(#pe26fb10b5b)" d="M 102.4 78.976843 
L 716.8 78.976843 
" style="fill:none;stroke:#b0b0b0;stroke-linecap:square;stroke-width:0.8;"/>
     </g>
     <g id="line2d_22">
      <g>
       <use style="stroke:#000000;stroke-width:0.8;" x="102.4" xlink:href="#m7cf6d1a210" y="78.976843"/>
      </g>
     </g>
     <g id="text_12">
      <!-- 280 -->
      <g transform="translate(76.3125 82.776062)scale(0.1 -0.1)">
       <use xlink:href="#DejaVuSans-50"/>
       <use x="63.623047" xlink:href="#DejaVuSans-56"/>
       <use x="127.246094" xlink:href="#DejaVuSans-48"/>
      </g>
     </g>
    </g>
    <g id="text_13">
     <!-- Memory Used (in MiB) -->
     <g transform="translate(70.232812 322.330156)rotate(-90)scale(0.1 -0.1)">
      <defs>
       <path d="M 9.8125 72.90625 
L 24.515625 72.90625 
L 43.109375 23.296875 
L 61.8125 72.90625 
L 76.515625 72.90625 
L 76.515625 0 
L 66.890625 0 
L 66.890625 64.015625 
L 48.09375 14.015625 
L 38.1875 14.015625 
L 19.390625 64.015625 
L 19.390625 0 
L 9.8125 0 
z
" id="DejaVuSans-77"/>
       <path d="M 41.109375 46.296875 
Q 39.59375 47.171875 37.8125 47.578125 
Q 36.03125 48 33.890625 48 
Q 26.265625 48 22.1875 43.046875 
Q 18.109375 38.09375 18.109375 28.8125 
L 18.109375 0 
L 9.078125 0 
L 9.078125 54.6875 
L 18.109375 54.6875 
L 18.109375 46.1875 
Q 20.953125 51.171875 25.484375 53.578125 
Q 30.03125 56 36.53125 56 
Q 37.453125 56 38.578125 55.875 
Q 39.703125 55.765625 41.0625 55.515625 
z
" id="DejaVuSans-114"/>
       <path d="M 32.171875 -5.078125 
Q 28.375 -14.84375 24.75 -17.8125 
Q 21.140625 -20.796875 15.09375 -20.796875 
L 7.90625 -20.796875 
L 7.90625 -13.28125 
L 13.1875 -13.28125 
Q 16.890625 -13.28125 18.9375 -11.515625 
Q 21 -9.765625 23.484375 -3.21875 
L 25.09375 0.875 
L 2.984375 54.6875 
L 12.5 54.6875 
L 29.59375 11.921875 
L 46.6875 54.6875 
L 56.203125 54.6875 
z
" id="DejaVuSans-121"/>
       <path d="M 8.6875 72.90625 
L 18.609375 72.90625 
L 18.609375 28.609375 
Q 18.609375 16.890625 22.84375 11.734375 
Q 27.09375 6.59375 36.625 6.59375 
Q 46.09375 6.59375 50.34375 11.734375 
Q 54.59375 16.890625 54.59375 28.609375 
L 54.59375 72.90625 
L 64.5 72.90625 
L 64.5 27.390625 
Q 64.5 13.140625 57.4375 5.859375 
Q 50.390625 -1.421875 36.625 -1.421875 
Q 22.796875 -1.421875 15.734375 5.859375 
Q 8.6875 13.140625 8.6875 27.390625 
z
" id="DejaVuSans-85"/>
       <path d="M 19.671875 34.8125 
L 19.671875 8.109375 
L 35.5 8.109375 
Q 43.453125 8.109375 47.28125 11.40625 
Q 51.125 14.703125 51.125 21.484375 
Q 51.125 28.328125 47.28125 31.5625 
Q 43.453125 34.8125 35.5 34.8125 
z
M 19.671875 64.796875 
L 19.671875 42.828125 
L 34.28125 42.828125 
Q 41.5 42.828125 45.03125 45.53125 
Q 48.578125 48.25 48.578125 53.8125 
Q 48.578125 59.328125 45.03125 62.0625 
Q 41.5 64.796875 34.28125 64.796875 
z
M 9.8125 72.90625 
L 35.015625 72.90625 
Q 46.296875 72.90625 52.390625 68.21875 
Q 58.5 63.53125 58.5 54.890625 
Q 58.5 48.1875 55.375 44.234375 
Q 52.25 40.28125 46.1875 39.3125 
Q 53.46875 37.75 57.5 32.78125 
Q 61.53125 27.828125 61.53125 20.40625 
Q 61.53125 10.640625 54.890625 5.3125 
Q 48.25 0 35.984375 0 
L 9.8125 0 
z
" id="DejaVuSans-66"/>
      </defs>
      <use xlink:href="#DejaVuSans-77"/>
      <use x="86.279297" xlink:href="#DejaVuSans-101"/>
      <use x="147.802734" xlink:href="#DejaVuSans-109"/>
      <use x="245.214844" xlink:href="#DejaVuSans-111"/>
      <use x="306.396484" xlink:href="#DejaVuSans-114"/>
      <use x="347.509766" xlink:href="#DejaVuSans-121"/>
      <use x="406.689453" xlink:href="#DejaVuSans-32"/>
      <use x="438.476562" xlink:href="#DejaVuSans-85"/>
      <use x="511.669922" xlink:href="#DejaVuSans-115"/>
      <use x="563.769531" xlink:href="#DejaVuSans-101"/>
      <use x="625.292969" xlink:href="#DejaVuSans-100"/>
      <use x="688.769531" xlink:href="#DejaVuSans-32"/>
      <use x="720.556641" xlink:href="#DejaVuSans-40"/>
      <use x="759.570312" xlink:href="#DejaVuSans-105"/>
      <use x="787.353516" xlink:href="#DejaVuSans-110"/>
      <use x="850.732422" xlink:href="#DejaVuSans-32"/>
      <use x="882.519531" xlink:href="#DejaVuSans-77"/>
      <use x="968.798828" xlink:href="#DejaVuSans-105"/>
      <use x="996.582031" xlink:href="#DejaVuSans-66"/>
      <use x="1065.185547" xlink:href="#DejaVuSans-41"/>
     </g>
    </g>
   </g>
   <g id="LineCollection_1">
    <path clip-path="url(#pe26fb10b5b)" d="M 176.534215 119.72418 
L 1025 119.72418 
" style="fill:none;stroke:#ff0000;stroke-dasharray:5.55,2.4;stroke-dashoffset:0;stroke-width:1.5;"/>
   </g>
   <g id="LineCollection_2">
    <path clip-path="url(#pe26fb10b5b)" style="fill:none;stroke:#ff0000;stroke-dasharray:5.55,2.4;stroke-dashoffset:0;stroke-width:1.5;"/>
   </g>
   <g id="line2d_23">
    <path clip-path="url(#pe26fb10b5b)" d="M 323.538889 509.8 
L 324.025779 497.818311 
L 325.284238 479.794473 
L 326.545052 455.076791 
L 327.834147 439.707629 
L 329.09496 414.088123 
L 330.353419 378.167466 
L 331.615412 358.111341 
L 332.875048 340.062101 
L 334.132327 330.154706 
L 335.395501 321.504789 
L 336.366444 306.415023 
L 336.656314 285.063356 
L 337.088762 275.549637 
L 337.91595 249.485648 
L 339.177943 221.313084 
L 340.441116 210.453054 
L 341.70311 205.982025 
L 342.96746 179.790936 
L 344.18114 148.188886 
L 345.471413 146.258215 
L 346.756974 145.699336 
L 348.068457 146.182006 
L 349.337518 143.006557 
L 351.893321 143.006557 
L 353.176524 137.316156 
L 354.466797 146.448742 
L 355.744106 140.135954 
L 358.330545 140.135954 
L 359.607858 138.383106 
L 360.89695 140.224868 
L 363.505776 139.716796 
L 364.741847 139.958128 
L 366.05215 135.347381 
L 367.320038 137.011313 
L 368.598527 128.653538 
L 369.881729 137.011313 
L 371.242701 137.011313 
L 372.511766 135.525204 
L 373.771402 137.18914 
L 375.059317 134.039096 
L 377.611585 140.428096 
L 378.912463 137.290754 
L 381.449411 137.290754 
L 382.717296 136.084083 
L 384.002854 128.120061 
L 385.296663 137.620999 
L 386.561014 129.187011 
L 387.845395 140.974271 
L 392.98881 140.974271 
L 394.280262 132.540283 
L 395.569357 140.974271 
L 396.853738 134.902818 
L 398.141656 139.081705 
L 399.407183 144.810212 
L 401.960629 144.810212 
L 403.242653 140.885357 
L 404.534102 141.660169 
L 407.117006 141.660169 
L 408.423775 139.043599 
L 409.725833 142.549293 
L 411.016105 142.549293 
L 412.291061 134.280428 
L 413.593115 134.115305 
L 414.870428 142.549293 
L 416.171306 140.809148 
L 417.460401 142.549293 
L 418.762458 141.342625 
L 420.035054 139.157914 
L 421.264054 134.559869 
L 422.556683 142.549293 
L 425.123091 142.549293 
L 426.405115 139.399249 
L 427.670642 138.599039 
L 428.959737 136.236505 
L 434.063091 136.249206 
L 435.361615 124.868403 
L 436.642459 128.81866 
L 437.937445 136.236505 
L 440.495604 136.223804 
L 443.079686 129.301327 
L 444.387632 136.223804 
L 448.278485 136.223804 
L 449.60175 125.389179 
L 450.896737 140.288376 
L 452.197614 131.435227 
L 453.486709 137.138332 
L 456.046046 137.125628 
L 457.348101 132.311653 
L 458.637196 130.850946 
L 459.945144 129.60617 
L 461.276658 137.112927 
L 466.493134 137.112927 
L 467.795188 136.744576 
L 469.106671 137.112927 
L 471.688396 137.087525 
L 472.997524 132.870532 
L 474.283082 133.797761 
L 475.552147 137.087525 
L 482.036504 137.100226 
L 483.313816 125.312967 
L 484.605266 140.364585 
L 485.875507 138.649843 
L 487.189347 137.214541 
L 499.019798 137.214541 
L 500.344241 128.780554 
L 501.616839 133.708848 
L 502.948356 128.920275 
L 504.256302 140.542412 
L 505.560716 138.065562 
L 506.85806 137.392368 
L 508.123587 137.392368 
L 509.425642 128.780554 
L 510.702954 137.392368 
L 514.553743 137.392368 
L 515.835767 140.783743 
L 517.117791 137.278053 
L 518.396281 140.783743 
L 522.262386 140.783743 
L 523.538519 136.566753 
L 524.820546 140.783743 
L 526.114352 140.783743 
L 527.410518 137.6337 
L 528.685471 137.6337 
L 529.962784 139.920025 
L 531.278981 140.96157 
L 532.537437 140.96157 
L 533.824175 136.744576 
L 535.081457 135.093342 
L 536.361124 137.811526 
L 537.645505 137.811526 
L 538.944025 130.10154 
L 540.229586 137.811526 
L 541.509253 137.811526 
L 542.794814 141.164798 
L 544.078018 141.164798 
L 546.650314 131.02877 
L 547.938232 138.014755 
L 549.209651 137.074824 
L 550.498746 138.014755 
L 558.221531 138.014755 
L 559.509447 128.958381 
L 560.793828 138.014755 
L 563.359055 138.014755 
L 564.656399 133.797761 
L 565.938423 134.407447 
L 567.226341 138.014755 
L 568.524861 126.227495 
L 569.839878 134.509061 
L 571.138402 138.014755 
L 573.729551 138.014755 
L 575.036323 144.28944 
L 576.356054 137.976649 
L 577.664 137.989353 
L 578.884752 133.772356 
L 580.202126 128.043852 
L 581.533643 137.976649 
L 593.279251 137.989353 
L 594.562455 126.418023 
L 595.839765 137.989353 
L 598.404992 137.976649 
L 599.704693 136.998612 
L 601.024424 137.976649 
L 611.365461 137.976649 
L 612.649842 135.652224 
L 613.93658 137.976649 
L 615.219784 137.976649 
L 616.498274 133.16267 
L 617.782655 137.976649 
L 619.102386 137.976649 
L 620.410335 137.455876 
L 621.711212 134.890113 
L 623.032124 137.455876 
L 624.338892 125.668617 
L 625.646841 137.455876 
L 645.366217 137.468577 
L 646.674166 133.962884 
L 647.985649 137.468577 
L 649.300666 130.025331 
L 650.589761 137.468577 
L 653.191519 137.468577 
L 654.47472 127.383359 
L 655.747319 137.468577 
L 657.039948 137.468577 
L 658.3314 136.998612 
L 659.613424 137.468577 
L 667.365669 137.392368 
L 668.701896 135.703028 
L 669.967424 137.392368 
L 671.244736 137.392368 
L 672.54208 129.822102 
L 673.861811 137.392368 
L 677.812756 137.392368 
L 679.103029 133.886675 
L 680.390947 137.392368 
L 686.851736 137.405069 
L 688.159685 133.099162 
L 689.479416 133.696147 
L 690.799147 137.913141 
L 693.439789 137.963948 
L 694.734776 128.564624 
L 696.030939 137.963948 
L 697.35067 137.963948 
L 698.658619 134.915519 
L 699.966568 133.149969 
L 701.274517 137.430471 
L 702.582463 137.963948 
L 703.890411 134.00099 
L 705.19836 137.963948 
L 710.513812 137.963948 
L 711.809978 136.249206 
L 713.106142 137.963948 
L 717.035879 137.963948 
L 717.035879 137.963948 
" style="fill:none;stroke:#000000;stroke-linecap:square;stroke-width:1.5;"/>
    <defs>
     <path d="M -3 0 
L 3 0 
M 0 3 
L 0 -3 
" id="m1ba458af67" style="stroke:#000000;"/>
    </defs>
    <g clip-path="url(#pe26fb10b5b)">
     <use style="stroke:#000000;" x="306.285997" xlink:href="#m1ba458af67" y="984.284096"/>
     <use style="stroke:#000000;" x="307.617513" xlink:href="#m1ba458af67" y="937.605027"/>
     <use style="stroke:#000000;" x="308.87715" xlink:href="#m1ba458af67" y="907.285857"/>
     <use style="stroke:#000000;" x="310.137963" xlink:href="#m1ba458af67" y="887.382154"/>
     <use style="stroke:#000000;" x="311.396422" xlink:href="#m1ba458af67" y="862.677177"/>
     <use style="stroke:#000000;" x="312.654878" xlink:href="#m1ba458af67" y="836.143142"/>
     <use style="stroke:#000000;" x="313.914517" xlink:href="#m1ba458af67" y="800.438415"/>
     <use style="stroke:#000000;" x="315.174153" xlink:href="#m1ba458af67" y="770.563809"/>
     <use style="stroke:#000000;" x="316.433789" xlink:href="#m1ba458af67" y="745.515882"/>
     <use style="stroke:#000000;" x="317.704031" xlink:href="#m1ba458af67" y="644.168313"/>
     <use style="stroke:#000000;" x="318.966024" xlink:href="#m1ba458af67" y="604.195788"/>
     <use style="stroke:#000000;" x="320.226837" xlink:href="#m1ba458af67" y="564.058137"/>
     <use style="stroke:#000000;" x="321.50415" xlink:href="#m1ba458af67" y="549.451079"/>
     <use style="stroke:#000000;" x="322.763786" xlink:href="#m1ba458af67" y="528.874182"/>
     <use style="stroke:#000000;" x="324.025779" xlink:href="#m1ba458af67" y="497.818311"/>
     <use style="stroke:#000000;" x="325.284238" xlink:href="#m1ba458af67" y="479.794473"/>
     <use style="stroke:#000000;" x="326.545052" xlink:href="#m1ba458af67" y="455.076791"/>
     <use style="stroke:#000000;" x="327.834147" xlink:href="#m1ba458af67" y="439.707629"/>
     <use style="stroke:#000000;" x="329.09496" xlink:href="#m1ba458af67" y="414.088123"/>
     <use style="stroke:#000000;" x="330.353419" xlink:href="#m1ba458af67" y="378.167466"/>
     <use style="stroke:#000000;" x="331.615412" xlink:href="#m1ba458af67" y="358.111341"/>
     <use style="stroke:#000000;" x="332.875048" xlink:href="#m1ba458af67" y="340.062101"/>
     <use style="stroke:#000000;" x="334.132327" xlink:href="#m1ba458af67" y="330.154706"/>
     <use style="stroke:#000000;" x="335.395501" xlink:href="#m1ba458af67" y="321.504789"/>
     <use style="stroke:#000000;" x="336.366444" xlink:href="#m1ba458af67" y="306.415023"/>
     <use style="stroke:#000000;" x="336.656314" xlink:href="#m1ba458af67" y="285.063356"/>
     <use style="stroke:#000000;" x="337.088762" xlink:href="#m1ba458af67" y="275.549637"/>
     <use style="stroke:#000000;" x="337.91595" xlink:href="#m1ba458af67" y="249.485648"/>
     <use style="stroke:#000000;" x="339.177943" xlink:href="#m1ba458af67" y="221.313084"/>
     <use style="stroke:#000000;" x="340.441116" xlink:href="#m1ba458af67" y="210.453054"/>
     <use style="stroke:#000000;" x="341.70311" xlink:href="#m1ba458af67" y="205.982025"/>
     <use style="stroke:#000000;" x="342.96746" xlink:href="#m1ba458af67" y="179.790936"/>
     <use style="stroke:#000000;" x="344.18114" xlink:href="#m1ba458af67" y="148.188886"/>
     <use style="stroke:#000000;" x="345.471413" xlink:href="#m1ba458af67" y="146.258215"/>
     <use style="stroke:#000000;" x="346.756974" xlink:href="#m1ba458af67" y="145.699336"/>
     <use style="stroke:#000000;" x="348.068457" xlink:href="#m1ba458af67" y="146.182006"/>
     <use style="stroke:#000000;" x="349.337518" xlink:href="#m1ba458af67" y="143.006557"/>
     <use style="stroke:#000000;" x="350.606582" xlink:href="#m1ba458af67" y="143.006557"/>
     <use style="stroke:#000000;" x="351.893321" xlink:href="#m1ba458af67" y="143.006557"/>
     <use style="stroke:#000000;" x="353.176524" xlink:href="#m1ba458af67" y="137.316156"/>
     <use style="stroke:#000000;" x="354.466797" xlink:href="#m1ba458af67" y="146.448742"/>
     <use style="stroke:#000000;" x="355.744106" xlink:href="#m1ba458af67" y="140.135954"/>
     <use style="stroke:#000000;" x="357.037916" xlink:href="#m1ba458af67" y="140.135954"/>
     <use style="stroke:#000000;" x="358.330545" xlink:href="#m1ba458af67" y="140.135954"/>
     <use style="stroke:#000000;" x="359.607858" xlink:href="#m1ba458af67" y="138.383106"/>
     <use style="stroke:#000000;" x="360.89695" xlink:href="#m1ba458af67" y="140.224868"/>
     <use style="stroke:#000000;" x="362.181334" xlink:href="#m1ba458af67" y="140.021639"/>
     <use style="stroke:#000000;" x="363.505776" xlink:href="#m1ba458af67" y="139.716796"/>
     <use style="stroke:#000000;" x="364.741847" xlink:href="#m1ba458af67" y="139.958128"/>
     <use style="stroke:#000000;" x="366.05215" xlink:href="#m1ba458af67" y="135.347381"/>
     <use style="stroke:#000000;" x="367.320038" xlink:href="#m1ba458af67" y="137.011313"/>
     <use style="stroke:#000000;" x="368.598527" xlink:href="#m1ba458af67" y="128.653538"/>
     <use style="stroke:#000000;" x="369.881729" xlink:href="#m1ba458af67" y="137.011313"/>
     <use style="stroke:#000000;" x="371.242701" xlink:href="#m1ba458af67" y="137.011313"/>
     <use style="stroke:#000000;" x="372.511766" xlink:href="#m1ba458af67" y="135.525204"/>
     <use style="stroke:#000000;" x="373.771402" xlink:href="#m1ba458af67" y="137.18914"/>
     <use style="stroke:#000000;" x="375.059317" xlink:href="#m1ba458af67" y="134.039096"/>
     <use style="stroke:#000000;" x="376.335452" xlink:href="#m1ba458af67" y="137.20184"/>
     <use style="stroke:#000000;" x="377.611585" xlink:href="#m1ba458af67" y="140.428096"/>
     <use style="stroke:#000000;" x="378.912463" xlink:href="#m1ba458af67" y="137.290754"/>
     <use style="stroke:#000000;" x="380.169742" xlink:href="#m1ba458af67" y="137.290754"/>
     <use style="stroke:#000000;" x="381.449411" xlink:href="#m1ba458af67" y="137.290754"/>
     <use style="stroke:#000000;" x="382.717296" xlink:href="#m1ba458af67" y="136.084083"/>
     <use style="stroke:#000000;" x="384.002854" xlink:href="#m1ba458af67" y="128.120061"/>
     <use style="stroke:#000000;" x="385.296663" xlink:href="#m1ba458af67" y="137.620999"/>
     <use style="stroke:#000000;" x="386.561014" xlink:href="#m1ba458af67" y="129.187011"/>
     <use style="stroke:#000000;" x="387.845395" xlink:href="#m1ba458af67" y="140.974271"/>
     <use style="stroke:#000000;" x="389.130953" xlink:href="#m1ba458af67" y="140.974271"/>
     <use style="stroke:#000000;" x="390.415334" xlink:href="#m1ba458af67" y="140.974271"/>
     <use style="stroke:#000000;" x="391.706786" xlink:href="#m1ba458af67" y="140.974271"/>
     <use style="stroke:#000000;" x="392.98881" xlink:href="#m1ba458af67" y="140.974271"/>
     <use style="stroke:#000000;" x="394.280262" xlink:href="#m1ba458af67" y="132.540283"/>
     <use style="stroke:#000000;" x="395.569357" xlink:href="#m1ba458af67" y="140.974271"/>
     <use style="stroke:#000000;" x="396.853738" xlink:href="#m1ba458af67" y="134.902818"/>
     <use style="stroke:#000000;" x="398.141656" xlink:href="#m1ba458af67" y="139.081705"/>
     <use style="stroke:#000000;" x="399.407183" xlink:href="#m1ba458af67" y="144.810212"/>
     <use style="stroke:#000000;" x="400.679782" xlink:href="#m1ba458af67" y="144.810212"/>
     <use style="stroke:#000000;" x="401.960629" xlink:href="#m1ba458af67" y="144.810212"/>
     <use style="stroke:#000000;" x="403.242653" xlink:href="#m1ba458af67" y="140.885357"/>
     <use style="stroke:#000000;" x="404.534102" xlink:href="#m1ba458af67" y="141.660169"/>
     <use style="stroke:#000000;" x="405.829091" xlink:href="#m1ba458af67" y="141.660169"/>
     <use style="stroke:#000000;" x="407.117006" xlink:href="#m1ba458af67" y="141.660169"/>
     <use style="stroke:#000000;" x="408.423775" xlink:href="#m1ba458af67" y="139.043599"/>
     <use style="stroke:#000000;" x="409.725833" xlink:href="#m1ba458af67" y="142.549293"/>
     <use style="stroke:#000000;" x="411.016105" xlink:href="#m1ba458af67" y="142.549293"/>
     <use style="stroke:#000000;" x="412.291061" xlink:href="#m1ba458af67" y="134.280428"/>
     <use style="stroke:#000000;" x="413.593115" xlink:href="#m1ba458af67" y="134.115305"/>
     <use style="stroke:#000000;" x="414.870428" xlink:href="#m1ba458af67" y="142.549293"/>
     <use style="stroke:#000000;" x="416.171306" xlink:href="#m1ba458af67" y="140.809148"/>
     <use style="stroke:#000000;" x="417.460401" xlink:href="#m1ba458af67" y="142.549293"/>
     <use style="stroke:#000000;" x="418.762458" xlink:href="#m1ba458af67" y="141.342625"/>
     <use style="stroke:#000000;" x="420.035054" xlink:href="#m1ba458af67" y="139.157914"/>
     <use style="stroke:#000000;" x="421.264054" xlink:href="#m1ba458af67" y="134.559869"/>
     <use style="stroke:#000000;" x="422.556683" xlink:href="#m1ba458af67" y="142.549293"/>
     <use style="stroke:#000000;" x="423.83871" xlink:href="#m1ba458af67" y="142.549293"/>
     <use style="stroke:#000000;" x="425.123091" xlink:href="#m1ba458af67" y="142.549293"/>
     <use style="stroke:#000000;" x="426.405115" xlink:href="#m1ba458af67" y="139.399249"/>
     <use style="stroke:#000000;" x="427.670642" xlink:href="#m1ba458af67" y="138.599039"/>
     <use style="stroke:#000000;" x="428.959737" xlink:href="#m1ba458af67" y="136.236505"/>
     <use style="stroke:#000000;" x="430.229979" xlink:href="#m1ba458af67" y="136.249206"/>
     <use style="stroke:#000000;" x="431.502577" xlink:href="#m1ba458af67" y="136.249206"/>
     <use style="stroke:#000000;" x="432.783424" xlink:href="#m1ba458af67" y="136.249206"/>
     <use style="stroke:#000000;" x="434.063091" xlink:href="#m1ba458af67" y="136.249206"/>
     <use style="stroke:#000000;" x="435.361615" xlink:href="#m1ba458af67" y="124.868403"/>
     <use style="stroke:#000000;" x="436.642459" xlink:href="#m1ba458af67" y="128.81866"/>
     <use style="stroke:#000000;" x="437.937445" xlink:href="#m1ba458af67" y="136.236505"/>
     <use style="stroke:#000000;" x="439.207686" xlink:href="#m1ba458af67" y="136.223804"/>
     <use style="stroke:#000000;" x="440.495604" xlink:href="#m1ba458af67" y="136.223804"/>
     <use style="stroke:#000000;" x="441.791768" xlink:href="#m1ba458af67" y="132.71811"/>
     <use style="stroke:#000000;" x="443.079686" xlink:href="#m1ba458af67" y="129.301327"/>
     <use style="stroke:#000000;" x="444.387632" xlink:href="#m1ba458af67" y="136.223804"/>
     <use style="stroke:#000000;" x="445.707366" xlink:href="#m1ba458af67" y="136.223804"/>
     <use style="stroke:#000000;" x="447.003529" xlink:href="#m1ba458af67" y="136.223804"/>
     <use style="stroke:#000000;" x="448.278485" xlink:href="#m1ba458af67" y="136.223804"/>
     <use style="stroke:#000000;" x="449.60175" xlink:href="#m1ba458af67" y="125.389179"/>
     <use style="stroke:#000000;" x="450.896737" xlink:href="#m1ba458af67" y="140.288376"/>
     <use style="stroke:#000000;" x="452.197614" xlink:href="#m1ba458af67" y="131.435227"/>
     <use style="stroke:#000000;" x="453.486709" xlink:href="#m1ba458af67" y="137.138332"/>
     <use style="stroke:#000000;" x="454.780518" xlink:href="#m1ba458af67" y="137.138332"/>
     <use style="stroke:#000000;" x="456.046046" xlink:href="#m1ba458af67" y="137.125628"/>
     <use style="stroke:#000000;" x="457.348101" xlink:href="#m1ba458af67" y="132.311653"/>
     <use style="stroke:#000000;" x="458.637196" xlink:href="#m1ba458af67" y="130.850946"/>
     <use style="stroke:#000000;" x="459.945144" xlink:href="#m1ba458af67" y="129.60617"/>
     <use style="stroke:#000000;" x="461.276658" xlink:href="#m1ba458af67" y="137.112927"/>
     <use style="stroke:#000000;" x="462.564576" xlink:href="#m1ba458af67" y="137.112927"/>
     <use style="stroke:#000000;" x="463.852491" xlink:href="#m1ba458af67" y="137.112927"/>
     <use style="stroke:#000000;" x="465.173402" xlink:href="#m1ba458af67" y="137.112927"/>
     <use style="stroke:#000000;" x="466.493134" xlink:href="#m1ba458af67" y="137.112927"/>
     <use style="stroke:#000000;" x="467.795188" xlink:href="#m1ba458af67" y="136.744576"/>
     <use style="stroke:#000000;" x="469.106671" xlink:href="#m1ba458af67" y="137.112927"/>
     <use style="stroke:#000000;" x="470.408729" xlink:href="#m1ba458af67" y="137.112927"/>
     <use style="stroke:#000000;" x="471.688396" xlink:href="#m1ba458af67" y="137.087525"/>
     <use style="stroke:#000000;" x="472.997524" xlink:href="#m1ba458af67" y="132.870532"/>
     <use style="stroke:#000000;" x="474.283082" xlink:href="#m1ba458af67" y="133.797761"/>
     <use style="stroke:#000000;" x="475.552147" xlink:href="#m1ba458af67" y="137.087525"/>
     <use style="stroke:#000000;" x="476.821208" xlink:href="#m1ba458af67" y="137.087525"/>
     <use style="stroke:#000000;" x="478.093807" xlink:href="#m1ba458af67" y="137.087525"/>
     <use style="stroke:#000000;" x="479.374654" xlink:href="#m1ba458af67" y="137.087525"/>
     <use style="stroke:#000000;" x="480.681422" xlink:href="#m1ba458af67" y="137.100226"/>
     <use style="stroke:#000000;" x="482.036504" xlink:href="#m1ba458af67" y="137.100226"/>
     <use style="stroke:#000000;" x="483.313816" xlink:href="#m1ba458af67" y="125.312967"/>
     <use style="stroke:#000000;" x="484.605266" xlink:href="#m1ba458af67" y="140.364585"/>
     <use style="stroke:#000000;" x="485.875507" xlink:href="#m1ba458af67" y="138.649843"/>
     <use style="stroke:#000000;" x="487.189347" xlink:href="#m1ba458af67" y="137.214541"/>
     <use style="stroke:#000000;" x="488.497296" xlink:href="#m1ba458af67" y="137.214541"/>
     <use style="stroke:#000000;" x="489.817027" xlink:href="#m1ba458af67" y="137.214541"/>
     <use style="stroke:#000000;" x="491.136758" xlink:href="#m1ba458af67" y="137.214541"/>
     <use style="stroke:#000000;" x="492.45649" xlink:href="#m1ba458af67" y="137.214541"/>
     <use style="stroke:#000000;" x="493.752656" xlink:href="#m1ba458af67" y="137.214541"/>
     <use style="stroke:#000000;" x="495.072387" xlink:href="#m1ba458af67" y="137.214541"/>
     <use style="stroke:#000000;" x="496.380333" xlink:href="#m1ba458af67" y="137.214541"/>
     <use style="stroke:#000000;" x="497.700067" xlink:href="#m1ba458af67" y="137.214541"/>
     <use style="stroke:#000000;" x="499.019798" xlink:href="#m1ba458af67" y="137.214541"/>
     <use style="stroke:#000000;" x="500.344241" xlink:href="#m1ba458af67" y="128.780554"/>
     <use style="stroke:#000000;" x="501.616839" xlink:href="#m1ba458af67" y="133.708848"/>
     <use style="stroke:#000000;" x="502.948356" xlink:href="#m1ba458af67" y="128.920275"/>
     <use style="stroke:#000000;" x="504.256302" xlink:href="#m1ba458af67" y="140.542412"/>
     <use style="stroke:#000000;" x="505.560716" xlink:href="#m1ba458af67" y="138.065562"/>
     <use style="stroke:#000000;" x="506.85806" xlink:href="#m1ba458af67" y="137.392368"/>
     <use style="stroke:#000000;" x="508.123587" xlink:href="#m1ba458af67" y="137.392368"/>
     <use style="stroke:#000000;" x="509.425642" xlink:href="#m1ba458af67" y="128.780554"/>
     <use style="stroke:#000000;" x="510.702954" xlink:href="#m1ba458af67" y="137.392368"/>
     <use style="stroke:#000000;" x="511.97673" xlink:href="#m1ba458af67" y="137.392368"/>
     <use style="stroke:#000000;" x="513.261111" xlink:href="#m1ba458af67" y="137.392368"/>
     <use style="stroke:#000000;" x="514.553743" xlink:href="#m1ba458af67" y="137.392368"/>
     <use style="stroke:#000000;" x="515.835767" xlink:href="#m1ba458af67" y="140.783743"/>
     <use style="stroke:#000000;" x="517.117791" xlink:href="#m1ba458af67" y="137.278053"/>
     <use style="stroke:#000000;" x="518.396281" xlink:href="#m1ba458af67" y="140.783743"/>
     <use style="stroke:#000000;" x="519.686553" xlink:href="#m1ba458af67" y="140.783743"/>
     <use style="stroke:#000000;" x="520.9674" xlink:href="#m1ba458af67" y="140.783743"/>
     <use style="stroke:#000000;" x="522.262386" xlink:href="#m1ba458af67" y="140.783743"/>
     <use style="stroke:#000000;" x="523.538519" xlink:href="#m1ba458af67" y="136.566753"/>
     <use style="stroke:#000000;" x="524.820546" xlink:href="#m1ba458af67" y="140.783743"/>
     <use style="stroke:#000000;" x="526.114352" xlink:href="#m1ba458af67" y="140.783743"/>
     <use style="stroke:#000000;" x="527.410518" xlink:href="#m1ba458af67" y="137.6337"/>
     <use style="stroke:#000000;" x="528.685471" xlink:href="#m1ba458af67" y="137.6337"/>
     <use style="stroke:#000000;" x="529.962784" xlink:href="#m1ba458af67" y="139.920025"/>
     <use style="stroke:#000000;" x="531.278981" xlink:href="#m1ba458af67" y="140.96157"/>
     <use style="stroke:#000000;" x="532.537437" xlink:href="#m1ba458af67" y="140.96157"/>
     <use style="stroke:#000000;" x="533.824175" xlink:href="#m1ba458af67" y="136.744576"/>
     <use style="stroke:#000000;" x="535.081457" xlink:href="#m1ba458af67" y="135.093342"/>
     <use style="stroke:#000000;" x="536.361124" xlink:href="#m1ba458af67" y="137.811526"/>
     <use style="stroke:#000000;" x="537.645505" xlink:href="#m1ba458af67" y="137.811526"/>
     <use style="stroke:#000000;" x="538.944025" xlink:href="#m1ba458af67" y="130.10154"/>
     <use style="stroke:#000000;" x="540.229586" xlink:href="#m1ba458af67" y="137.811526"/>
     <use style="stroke:#000000;" x="541.509253" xlink:href="#m1ba458af67" y="137.811526"/>
     <use style="stroke:#000000;" x="542.794814" xlink:href="#m1ba458af67" y="141.164798"/>
     <use style="stroke:#000000;" x="544.078018" xlink:href="#m1ba458af67" y="141.164798"/>
     <use style="stroke:#000000;" x="545.34708" xlink:href="#m1ba458af67" y="135.931662"/>
     <use style="stroke:#000000;" x="546.650314" xlink:href="#m1ba458af67" y="131.02877"/>
     <use style="stroke:#000000;" x="547.938232" xlink:href="#m1ba458af67" y="138.014755"/>
     <use style="stroke:#000000;" x="549.209651" xlink:href="#m1ba458af67" y="137.074824"/>
     <use style="stroke:#000000;" x="550.498746" xlink:href="#m1ba458af67" y="138.014755"/>
     <use style="stroke:#000000;" x="551.797266" xlink:href="#m1ba458af67" y="138.014755"/>
     <use style="stroke:#000000;" x="553.058083" xlink:href="#m1ba458af67" y="138.014755"/>
     <use style="stroke:#000000;" x="554.315362" xlink:href="#m1ba458af67" y="138.014755"/>
     <use style="stroke:#000000;" x="555.605634" xlink:href="#m1ba458af67" y="138.014755"/>
     <use style="stroke:#000000;" x="556.941862" xlink:href="#m1ba458af67" y="138.014755"/>
     <use style="stroke:#000000;" x="558.221531" xlink:href="#m1ba458af67" y="138.014755"/>
     <use style="stroke:#000000;" x="559.509447" xlink:href="#m1ba458af67" y="128.958381"/>
     <use style="stroke:#000000;" x="560.793828" xlink:href="#m1ba458af67" y="138.014755"/>
     <use style="stroke:#000000;" x="562.074674" xlink:href="#m1ba458af67" y="138.014755"/>
     <use style="stroke:#000000;" x="563.359055" xlink:href="#m1ba458af67" y="138.014755"/>
     <use style="stroke:#000000;" x="564.656399" xlink:href="#m1ba458af67" y="133.797761"/>
     <use style="stroke:#000000;" x="565.938423" xlink:href="#m1ba458af67" y="134.407447"/>
     <use style="stroke:#000000;" x="567.226341" xlink:href="#m1ba458af67" y="138.014755"/>
     <use style="stroke:#000000;" x="568.524861" xlink:href="#m1ba458af67" y="126.227495"/>
     <use style="stroke:#000000;" x="569.839878" xlink:href="#m1ba458af67" y="134.509061"/>
     <use style="stroke:#000000;" x="571.138402" xlink:href="#m1ba458af67" y="138.014755"/>
     <use style="stroke:#000000;" x="572.431031" xlink:href="#m1ba458af67" y="138.014755"/>
     <use style="stroke:#000000;" x="573.729551" xlink:href="#m1ba458af67" y="138.014755"/>
     <use style="stroke:#000000;" x="575.036323" xlink:href="#m1ba458af67" y="144.28944"/>
     <use style="stroke:#000000;" x="576.356054" xlink:href="#m1ba458af67" y="137.976649"/>
     <use style="stroke:#000000;" x="577.664" xlink:href="#m1ba458af67" y="137.989353"/>
     <use style="stroke:#000000;" x="578.884752" xlink:href="#m1ba458af67" y="133.772356"/>
     <use style="stroke:#000000;" x="580.202126" xlink:href="#m1ba458af67" y="128.043852"/>
     <use style="stroke:#000000;" x="581.533643" xlink:href="#m1ba458af67" y="137.976649"/>
     <use style="stroke:#000000;" x="582.829806" xlink:href="#m1ba458af67" y="137.989353"/>
     <use style="stroke:#000000;" x="584.161323" xlink:href="#m1ba458af67" y="137.989353"/>
     <use style="stroke:#000000;" x="585.481054" xlink:href="#m1ba458af67" y="137.989353"/>
     <use style="stroke:#000000;" x="586.771326" xlink:href="#m1ba458af67" y="137.989353"/>
     <use style="stroke:#000000;" x="588.10284" xlink:href="#m1ba458af67" y="137.989353"/>
     <use style="stroke:#000000;" x="589.410788" xlink:href="#m1ba458af67" y="137.989353"/>
     <use style="stroke:#000000;" x="590.712846" xlink:href="#m1ba458af67" y="137.989353"/>
     <use style="stroke:#000000;" x="591.988979" xlink:href="#m1ba458af67" y="137.989353"/>
     <use style="stroke:#000000;" x="593.279251" xlink:href="#m1ba458af67" y="137.989353"/>
     <use style="stroke:#000000;" x="594.562455" xlink:href="#m1ba458af67" y="126.418023"/>
     <use style="stroke:#000000;" x="595.839765" xlink:href="#m1ba458af67" y="137.989353"/>
     <use style="stroke:#000000;" x="597.104115" xlink:href="#m1ba458af67" y="137.976649"/>
     <use style="stroke:#000000;" x="598.404992" xlink:href="#m1ba458af67" y="137.976649"/>
     <use style="stroke:#000000;" x="599.704693" xlink:href="#m1ba458af67" y="136.998612"/>
     <use style="stroke:#000000;" x="601.024424" xlink:href="#m1ba458af67" y="137.976649"/>
     <use style="stroke:#000000;" x="602.344155" xlink:href="#m1ba458af67" y="137.976649"/>
     <use style="stroke:#000000;" x="603.663886" xlink:href="#m1ba458af67" y="137.976649"/>
     <use style="stroke:#000000;" x="604.983618" xlink:href="#m1ba458af67" y="137.976649"/>
     <use style="stroke:#000000;" x="606.305706" xlink:href="#m1ba458af67" y="137.976649"/>
     <use style="stroke:#000000;" x="607.58891" xlink:href="#m1ba458af67" y="137.976649"/>
     <use style="stroke:#000000;" x="608.872111" xlink:href="#m1ba458af67" y="137.976649"/>
     <use style="stroke:#000000;" x="610.163563" xlink:href="#m1ba458af67" y="137.976649"/>
     <use style="stroke:#000000;" x="611.365461" xlink:href="#m1ba458af67" y="137.976649"/>
     <use style="stroke:#000000;" x="612.649842" xlink:href="#m1ba458af67" y="135.652224"/>
     <use style="stroke:#000000;" x="613.93658" xlink:href="#m1ba458af67" y="137.976649"/>
     <use style="stroke:#000000;" x="615.219784" xlink:href="#m1ba458af67" y="137.976649"/>
     <use style="stroke:#000000;" x="616.498274" xlink:href="#m1ba458af67" y="133.16267"/>
     <use style="stroke:#000000;" x="617.782655" xlink:href="#m1ba458af67" y="137.976649"/>
     <use style="stroke:#000000;" x="619.102386" xlink:href="#m1ba458af67" y="137.976649"/>
     <use style="stroke:#000000;" x="620.410335" xlink:href="#m1ba458af67" y="137.455876"/>
     <use style="stroke:#000000;" x="621.711212" xlink:href="#m1ba458af67" y="134.890113"/>
     <use style="stroke:#000000;" x="623.032124" xlink:href="#m1ba458af67" y="137.455876"/>
     <use style="stroke:#000000;" x="624.338892" xlink:href="#m1ba458af67" y="125.668617"/>
     <use style="stroke:#000000;" x="625.646841" xlink:href="#m1ba458af67" y="137.455876"/>
     <use style="stroke:#000000;" x="626.966572" xlink:href="#m1ba458af67" y="137.455876"/>
     <use style="stroke:#000000;" x="628.286303" xlink:href="#m1ba458af67" y="137.455876"/>
     <use style="stroke:#000000;" x="629.578933" xlink:href="#m1ba458af67" y="137.455876"/>
     <use style="stroke:#000000;" x="630.899841" xlink:href="#m1ba458af67" y="137.455876"/>
     <use style="stroke:#000000;" x="632.20779" xlink:href="#m1ba458af67" y="137.455876"/>
     <use style="stroke:#000000;" x="633.527521" xlink:href="#m1ba458af67" y="137.455876"/>
     <use style="stroke:#000000;" x="634.847252" xlink:href="#m1ba458af67" y="137.455876"/>
     <use style="stroke:#000000;" x="636.178769" xlink:href="#m1ba458af67" y="137.468577"/>
     <use style="stroke:#000000;" x="637.4985" xlink:href="#m1ba458af67" y="137.468577"/>
     <use style="stroke:#000000;" x="638.806446" xlink:href="#m1ba458af67" y="137.468577"/>
     <use style="stroke:#000000;" x="640.126177" xlink:href="#m1ba458af67" y="137.468577"/>
     <use style="stroke:#000000;" x="641.428234" xlink:href="#m1ba458af67" y="137.468577"/>
     <use style="stroke:#000000;" x="642.736183" xlink:href="#m1ba458af67" y="137.468577"/>
     <use style="stroke:#000000;" x="644.033527" xlink:href="#m1ba458af67" y="137.468577"/>
     <use style="stroke:#000000;" x="645.366217" xlink:href="#m1ba458af67" y="137.468577"/>
     <use style="stroke:#000000;" x="646.674166" xlink:href="#m1ba458af67" y="133.962884"/>
     <use style="stroke:#000000;" x="647.985649" xlink:href="#m1ba458af67" y="137.468577"/>
     <use style="stroke:#000000;" x="649.300666" xlink:href="#m1ba458af67" y="130.025331"/>
     <use style="stroke:#000000;" x="650.589761" xlink:href="#m1ba458af67" y="137.468577"/>
     <use style="stroke:#000000;" x="651.89771" xlink:href="#m1ba458af67" y="137.468577"/>
     <use style="stroke:#000000;" x="653.191519" xlink:href="#m1ba458af67" y="137.468577"/>
     <use style="stroke:#000000;" x="654.47472" xlink:href="#m1ba458af67" y="127.383359"/>
     <use style="stroke:#000000;" x="655.747319" xlink:href="#m1ba458af67" y="137.468577"/>
     <use style="stroke:#000000;" x="657.039948" xlink:href="#m1ba458af67" y="137.468577"/>
     <use style="stroke:#000000;" x="658.3314" xlink:href="#m1ba458af67" y="136.998612"/>
     <use style="stroke:#000000;" x="659.613424" xlink:href="#m1ba458af67" y="137.468577"/>
     <use style="stroke:#000000;" x="660.898985" xlink:href="#m1ba458af67" y="137.468577"/>
     <use style="stroke:#000000;" x="662.173941" xlink:href="#m1ba458af67" y="137.392368"/>
     <use style="stroke:#000000;" x="663.468927" xlink:href="#m1ba458af67" y="137.392368"/>
     <use style="stroke:#000000;" x="664.758019" xlink:href="#m1ba458af67" y="137.392368"/>
     <use style="stroke:#000000;" x="666.065968" xlink:href="#m1ba458af67" y="137.392368"/>
     <use style="stroke:#000000;" x="667.365669" xlink:href="#m1ba458af67" y="137.392368"/>
     <use style="stroke:#000000;" x="668.701896" xlink:href="#m1ba458af67" y="135.703028"/>
     <use style="stroke:#000000;" x="669.967424" xlink:href="#m1ba458af67" y="137.392368"/>
     <use style="stroke:#000000;" x="671.244736" xlink:href="#m1ba458af67" y="137.392368"/>
     <use style="stroke:#000000;" x="672.54208" xlink:href="#m1ba458af67" y="129.822102"/>
     <use style="stroke:#000000;" x="673.861811" xlink:href="#m1ba458af67" y="137.392368"/>
     <use style="stroke:#000000;" x="675.181542" xlink:href="#m1ba458af67" y="137.392368"/>
     <use style="stroke:#000000;" x="676.501273" xlink:href="#m1ba458af67" y="137.392368"/>
     <use style="stroke:#000000;" x="677.812756" xlink:href="#m1ba458af67" y="137.392368"/>
     <use style="stroke:#000000;" x="679.103029" xlink:href="#m1ba458af67" y="133.886675"/>
     <use style="stroke:#000000;" x="680.390947" xlink:href="#m1ba458af67" y="137.392368"/>
     <use style="stroke:#000000;" x="681.710678" xlink:href="#m1ba458af67" y="137.392368"/>
     <use style="stroke:#000000;" x="683.017447" xlink:href="#m1ba458af67" y="137.392368"/>
     <use style="stroke:#000000;" x="684.288865" xlink:href="#m1ba458af67" y="137.392368"/>
     <use style="stroke:#000000;" x="685.554395" xlink:href="#m1ba458af67" y="137.392368"/>
     <use style="stroke:#000000;" x="686.851736" xlink:href="#m1ba458af67" y="137.405069"/>
     <use style="stroke:#000000;" x="688.159685" xlink:href="#m1ba458af67" y="133.099162"/>
     <use style="stroke:#000000;" x="689.479416" xlink:href="#m1ba458af67" y="133.696147"/>
     <use style="stroke:#000000;" x="690.799147" xlink:href="#m1ba458af67" y="137.913141"/>
     <use style="stroke:#000000;" x="692.118878" xlink:href="#m1ba458af67" y="137.913141"/>
     <use style="stroke:#000000;" x="693.439789" xlink:href="#m1ba458af67" y="137.963948"/>
     <use style="stroke:#000000;" x="694.734776" xlink:href="#m1ba458af67" y="128.564624"/>
     <use style="stroke:#000000;" x="696.030939" xlink:href="#m1ba458af67" y="137.963948"/>
     <use style="stroke:#000000;" x="697.35067" xlink:href="#m1ba458af67" y="137.963948"/>
     <use style="stroke:#000000;" x="698.658619" xlink:href="#m1ba458af67" y="134.915519"/>
     <use style="stroke:#000000;" x="699.966568" xlink:href="#m1ba458af67" y="133.149969"/>
     <use style="stroke:#000000;" x="701.274517" xlink:href="#m1ba458af67" y="137.430471"/>
     <use style="stroke:#000000;" x="702.582463" xlink:href="#m1ba458af67" y="137.963948"/>
     <use style="stroke:#000000;" x="703.890411" xlink:href="#m1ba458af67" y="134.00099"/>
     <use style="stroke:#000000;" x="705.19836" xlink:href="#m1ba458af67" y="137.963948"/>
     <use style="stroke:#000000;" x="706.518091" xlink:href="#m1ba458af67" y="137.963948"/>
     <use style="stroke:#000000;" x="707.850785" xlink:href="#m1ba458af67" y="137.963948"/>
     <use style="stroke:#000000;" x="709.157554" xlink:href="#m1ba458af67" y="137.976649"/>
     <use style="stroke:#000000;" x="710.513812" xlink:href="#m1ba458af67" y="137.963948"/>
     <use style="stroke:#000000;" x="711.809978" xlink:href="#m1ba458af67" y="136.249206"/>
     <use style="stroke:#000000;" x="713.106142" xlink:href="#m1ba458af67" y="137.963948"/>
     <use style="stroke:#000000;" x="714.418805" xlink:href="#m1ba458af67" y="137.963948"/>
     <use style="stroke:#000000;" x="715.716148" xlink:href="#m1ba458af67" y="137.963948"/>
     <use style="stroke:#000000;" x="717.035879" xlink:href="#m1ba458af67" y="137.963948"/>
    </g>
   </g>
   <g id="line2d_24">
    <path clip-path="url(#pe26fb10b5b)" d="M 378.760103 258.864227 
L 336.366444 258.864227 
L 336.366444 353.965818 
L 378.760103 353.965818 
" style="fill:none;stroke:#00bfbf;stroke-linecap:square;stroke-width:2;"/>
   </g>
   <g id="line2d_25">
    <path clip-path="url(#pe26fb10b5b)" d="M 294.695103 227.998841 
L 337.088762 227.998841 
L 337.088762 323.100432 
L 294.695103 323.100432 
" style="fill:none;stroke:#00bfbf;stroke-linecap:square;stroke-width:2;"/>
   </g>
   <g id="line2d_26">
    <path clip-path="url(#pe26fb10b5b)" style="fill:none;stroke:#bfbf00;stroke-linecap:square;stroke-width:2;"/>
   </g>
   <g id="line2d_27">
    <path clip-path="url(#pe26fb10b5b)" style="fill:none;stroke:#bfbf00;stroke-linecap:square;stroke-width:2;"/>
   </g>
   <g id="line2d_28">
    <path clip-path="url(#pe26fb10b5b)" style="fill:none;stroke:#008000;stroke-linecap:square;stroke-width:2;"/>
   </g>
   <g id="line2d_29">
    <path clip-path="url(#pe26fb10b5b)" style="fill:none;stroke:#008000;stroke-linecap:square;stroke-width:2;"/>
   </g>
   <g id="patch_3">
    <path d="M 102.4 457.92 
L 102.4 76.32 
" style="fill:none;stroke:#000000;stroke-linecap:square;stroke-linejoin:miter;stroke-width:0.8;"/>
   </g>
   <g id="patch_4">
    <path d="M 716.8 457.92 
L 716.8 76.32 
" style="fill:none;stroke:#000000;stroke-linecap:square;stroke-linejoin:miter;stroke-width:0.8;"/>
   </g>
   <g id="patch_5">
    <path d="M 102.4 457.92 
L 716.8 457.92 
" style="fill:none;stroke:#000000;stroke-linecap:square;stroke-linejoin:miter;stroke-width:0.8;"/>
   </g>
   <g id="patch_6">
    <path d="M 102.4 76.32 
L 716.8 76.32 
" style="fill:none;stroke:#000000;stroke-linecap:square;stroke-linejoin:miter;stroke-width:0.8;"/>
   </g>
   <g id="text_14">
    <!-- Mprof Memory Profile Test (Run #1) -->
    <g transform="translate(303.063438 70.32)scale(0.12 -0.12)">
     <defs>
      <path d="M 18.109375 8.203125 
L 18.109375 -20.796875 
L 9.078125 -20.796875 
L 9.078125 54.6875 
L 18.109375 54.6875 
L 18.109375 46.390625 
Q 20.953125 51.265625 25.265625 53.625 
Q 29.59375 56 35.59375 56 
Q 45.5625 56 51.78125 48.09375 
Q 58.015625 40.1875 58.015625 27.296875 
Q 58.015625 14.40625 51.78125 6.484375 
Q 45.5625 -1.421875 35.59375 -1.421875 
Q 29.59375 -1.421875 25.265625 0.953125 
Q 20.953125 3.328125 18.109375 8.203125 
z
M 48.6875 27.296875 
Q 48.6875 37.203125 44.609375 42.84375 
Q 40.53125 48.484375 33.40625 48.484375 
Q 26.265625 48.484375 22.1875 42.84375 
Q 18.109375 37.203125 18.109375 27.296875 
Q 18.109375 17.390625 22.1875 11.75 
Q 26.265625 6.109375 33.40625 6.109375 
Q 40.53125 6.109375 44.609375 11.75 
Q 48.6875 17.390625 48.6875 27.296875 
z
" id="DejaVuSans-112"/>
      <path d="M 37.109375 75.984375 
L 37.109375 68.5 
L 28.515625 68.5 
Q 23.6875 68.5 21.796875 66.546875 
Q 19.921875 64.59375 19.921875 59.515625 
L 19.921875 54.6875 
L 34.71875 54.6875 
L 34.71875 47.703125 
L 19.921875 47.703125 
L 19.921875 0 
L 10.890625 0 
L 10.890625 47.703125 
L 2.296875 47.703125 
L 2.296875 54.6875 
L 10.890625 54.6875 
L 10.890625 58.5 
Q 10.890625 67.625 15.140625 71.796875 
Q 19.390625 75.984375 28.609375 75.984375 
z
" id="DejaVuSans-102"/>
      <path d="M 19.671875 64.796875 
L 19.671875 37.40625 
L 32.078125 37.40625 
Q 38.96875 37.40625 42.71875 40.96875 
Q 46.484375 44.53125 46.484375 51.125 
Q 46.484375 57.671875 42.71875 61.234375 
Q 38.96875 64.796875 32.078125 64.796875 
z
M 9.8125 72.90625 
L 32.078125 72.90625 
Q 44.34375 72.90625 50.609375 67.359375 
Q 56.890625 61.8125 56.890625 51.125 
Q 56.890625 40.328125 50.609375 34.8125 
Q 44.34375 29.296875 32.078125 29.296875 
L 19.671875 29.296875 
L 19.671875 0 
L 9.8125 0 
z
" id="DejaVuSans-80"/>
      <path d="M 9.421875 75.984375 
L 18.40625 75.984375 
L 18.40625 0 
L 9.421875 0 
z
" id="DejaVuSans-108"/>
      <path d="M 18.3125 70.21875 
L 18.3125 54.6875 
L 36.8125 54.6875 
L 36.8125 47.703125 
L 18.3125 47.703125 
L 18.3125 18.015625 
Q 18.3125 11.328125 20.140625 9.421875 
Q 21.96875 7.515625 27.59375 7.515625 
L 36.8125 7.515625 
L 36.8125 0 
L 27.59375 0 
Q 17.1875 0 13.234375 3.875 
Q 9.28125 7.765625 9.28125 18.015625 
L 9.28125 47.703125 
L 2.6875 47.703125 
L 2.6875 54.6875 
L 9.28125 54.6875 
L 9.28125 70.21875 
z
" id="DejaVuSans-116"/>
      <path d="M 44.390625 34.1875 
Q 47.5625 33.109375 50.5625 29.59375 
Q 53.5625 26.078125 56.59375 19.921875 
L 66.609375 0 
L 56 0 
L 46.6875 18.703125 
Q 43.0625 26.03125 39.671875 28.421875 
Q 36.28125 30.8125 30.421875 30.8125 
L 19.671875 30.8125 
L 19.671875 0 
L 9.8125 0 
L 9.8125 72.90625 
L 32.078125 72.90625 
Q 44.578125 72.90625 50.734375 67.671875 
Q 56.890625 62.453125 56.890625 51.90625 
Q 56.890625 45.015625 53.6875 40.46875 
Q 50.484375 35.9375 44.390625 34.1875 
z
M 19.671875 64.796875 
L 19.671875 38.921875 
L 32.078125 38.921875 
Q 39.203125 38.921875 42.84375 42.21875 
Q 46.484375 45.515625 46.484375 51.90625 
Q 46.484375 58.296875 42.84375 61.546875 
Q 39.203125 64.796875 32.078125 64.796875 
z
" id="DejaVuSans-82"/>
      <path d="M 8.5 21.578125 
L 8.5 54.6875 
L 17.484375 54.6875 
L 17.484375 21.921875 
Q 17.484375 14.15625 20.5 10.265625 
Q 23.53125 6.390625 29.59375 6.390625 
Q 36.859375 6.390625 41.078125 11.03125 
Q 45.3125 15.671875 45.3125 23.6875 
L 45.3125 54.6875 
L 54.296875 54.6875 
L 54.296875 0 
L 45.3125 0 
L 45.3125 8.40625 
Q 42.046875 3.421875 37.71875 1 
Q 33.40625 -1.421875 27.6875 -1.421875 
Q 18.265625 -1.421875 13.375 4.4375 
Q 8.5 10.296875 8.5 21.578125 
z
M 31.109375 56 
z
" id="DejaVuSans-117"/>
      <path d="M 51.125 44 
L 36.921875 44 
L 32.8125 27.6875 
L 47.125 27.6875 
z
M 43.796875 71.78125 
L 38.71875 51.515625 
L 52.984375 51.515625 
L 58.109375 71.78125 
L 65.921875 71.78125 
L 60.890625 51.515625 
L 76.125 51.515625 
L 76.125 44 
L 58.984375 44 
L 54.984375 27.6875 
L 70.515625 27.6875 
L 70.515625 20.21875 
L 53.078125 20.21875 
L 48 0 
L 40.1875 0 
L 45.21875 20.21875 
L 30.90625 20.21875 
L 25.875 0 
L 18.015625 0 
L 23.09375 20.21875 
L 7.71875 20.21875 
L 7.71875 27.6875 
L 24.90625 27.6875 
L 29 44 
L 13.28125 44 
L 13.28125 51.515625 
L 30.90625 51.515625 
L 35.890625 71.78125 
z
" id="DejaVuSans-35"/>
     </defs>
     <use xlink:href="#DejaVuSans-77"/>
     <use x="86.279297" xlink:href="#DejaVuSans-112"/>
     <use x="149.755859" xlink:href="#DejaVuSans-114"/>
     <use x="188.619141" xlink:href="#DejaVuSans-111"/>
     <use x="249.800781" xlink:href="#DejaVuSans-102"/>
     <use x="285.005859" xlink:href="#DejaVuSans-32"/>
     <use x="316.792969" xlink:href="#DejaVuSans-77"/>
     <use x="403.072266" xlink:href="#DejaVuSans-101"/>
     <use x="464.595703" xlink:href="#DejaVuSans-109"/>
     <use x="562.007812" xlink:href="#DejaVuSans-111"/>
     <use x="623.189453" xlink:href="#DejaVuSans-114"/>
     <use x="664.302734" xlink:href="#DejaVuSans-121"/>
     <use x="723.482422" xlink:href="#DejaVuSans-32"/>
     <use x="755.269531" xlink:href="#DejaVuSans-80"/>
     <use x="813.822266" xlink:href="#DejaVuSans-114"/>
     <use x="852.685547" xlink:href="#DejaVuSans-111"/>
     <use x="913.867188" xlink:href="#DejaVuSans-102"/>
     <use x="949.072266" xlink:href="#DejaVuSans-105"/>
     <use x="976.855469" xlink:href="#DejaVuSans-108"/>
     <use x="1004.638672" xlink:href="#DejaVuSans-101"/>
     <use x="1066.162109" xlink:href="#DejaVuSans-32"/>
     <use x="1097.949219" xlink:href="#DejaVuSans-84"/>
     <use x="1142.033203" xlink:href="#DejaVuSans-101"/>
     <use x="1203.556641" xlink:href="#DejaVuSans-115"/>
     <use x="1255.65625" xlink:href="#DejaVuSans-116"/>
     <use x="1294.865234" xlink:href="#DejaVuSans-32"/>
     <use x="1326.652344" xlink:href="#DejaVuSans-40"/>
     <use x="1365.666016" xlink:href="#DejaVuSans-82"/>
     <use x="1430.648438" xlink:href="#DejaVuSans-117"/>
     <use x="1494.027344" xlink:href="#DejaVuSans-110"/>
     <use x="1557.40625" xlink:href="#DejaVuSans-32"/>
     <use x="1589.193359" xlink:href="#DejaVuSans-35"/>
     <use x="1672.982422" xlink:href="#DejaVuSans-49"/>
     <use x="1736.605469" xlink:href="#DejaVuSans-41"/>
    </g>
   </g>
   <g id="legend_1">
    <g id="patch_7">
     <path d="M 109.4 143.310625 
L 328.585938 143.310625 
Q 330.585938 143.310625 330.585938 141.310625 
L 330.585938 83.32 
Q 330.585938 81.32 328.585938 81.32 
L 109.4 81.32 
Q 107.4 81.32 107.4 83.32 
L 107.4 141.310625 
Q 107.4 143.310625 109.4 143.310625 
z
" style="fill:#ffffff;opacity:0.8;stroke:#cccccc;stroke-linejoin:miter;"/>
    </g>
    <g id="line2d_30">
     <path d="M 111.4 89.418438 
L 131.4 89.418438 
" style="fill:none;stroke:#000000;stroke-linecap:square;stroke-width:1.5;"/>
    </g>
    <g id="line2d_31">
     <g>
      <use style="stroke:#000000;" x="121.4" xlink:href="#m1ba458af67" y="89.418438"/>
     </g>
    </g>
    <g id="text_15">
     <!-- 06 / 04 / 2021 - start at 17:38:31.174 -->
     <g transform="translate(139.4 92.918438)scale(0.1 -0.1)">
      <defs>
       <path d="M 25.390625 72.90625 
L 33.6875 72.90625 
L 8.296875 -9.28125 
L 0 -9.28125 
z
" id="DejaVuSans-47"/>
       <path d="M 4.890625 31.390625 
L 31.203125 31.390625 
L 31.203125 23.390625 
L 4.890625 23.390625 
z
" id="DejaVuSans-45"/>
       <path d="M 34.28125 27.484375 
Q 23.390625 27.484375 19.1875 25 
Q 14.984375 22.515625 14.984375 16.5 
Q 14.984375 11.71875 18.140625 8.90625 
Q 21.296875 6.109375 26.703125 6.109375 
Q 34.1875 6.109375 38.703125 11.40625 
Q 43.21875 16.703125 43.21875 25.484375 
L 43.21875 27.484375 
z
M 52.203125 31.203125 
L 52.203125 0 
L 43.21875 0 
L 43.21875 8.296875 
Q 40.140625 3.328125 35.546875 0.953125 
Q 30.953125 -1.421875 24.3125 -1.421875 
Q 15.921875 -1.421875 10.953125 3.296875 
Q 6 8.015625 6 15.921875 
Q 6 25.140625 12.171875 29.828125 
Q 18.359375 34.515625 30.609375 34.515625 
L 43.21875 34.515625 
L 43.21875 35.40625 
Q 43.21875 41.609375 39.140625 45 
Q 35.0625 48.390625 27.6875 48.390625 
Q 23 48.390625 18.546875 47.265625 
Q 14.109375 46.140625 10.015625 43.890625 
L 10.015625 52.203125 
Q 14.9375 54.109375 19.578125 55.046875 
Q 24.21875 56 28.609375 56 
Q 40.484375 56 46.34375 49.84375 
Q 52.203125 43.703125 52.203125 31.203125 
z
" id="DejaVuSans-97"/>
       <path d="M 8.203125 72.90625 
L 55.078125 72.90625 
L 55.078125 68.703125 
L 28.609375 0 
L 18.3125 0 
L 43.21875 64.59375 
L 8.203125 64.59375 
z
" id="DejaVuSans-55"/>
       <path d="M 11.71875 12.40625 
L 22.015625 12.40625 
L 22.015625 0 
L 11.71875 0 
z
M 11.71875 51.703125 
L 22.015625 51.703125 
L 22.015625 39.3125 
L 11.71875 39.3125 
z
" id="DejaVuSans-58"/>
       <path d="M 10.6875 12.40625 
L 21 12.40625 
L 21 0 
L 10.6875 0 
z
" id="DejaVuSans-46"/>
      </defs>
      <use xlink:href="#DejaVuSans-48"/>
      <use x="63.623047" xlink:href="#DejaVuSans-54"/>
      <use x="127.246094" xlink:href="#DejaVuSans-32"/>
      <use x="159.033203" xlink:href="#DejaVuSans-47"/>
      <use x="192.724609" xlink:href="#DejaVuSans-32"/>
      <use x="224.511719" xlink:href="#DejaVuSans-48"/>
      <use x="288.134766" xlink:href="#DejaVuSans-52"/>
      <use x="351.757812" xlink:href="#DejaVuSans-32"/>
      <use x="383.544922" xlink:href="#DejaVuSans-47"/>
      <use x="417.236328" xlink:href="#DejaVuSans-32"/>
      <use x="449.023438" xlink:href="#DejaVuSans-50"/>
      <use x="512.646484" xlink:href="#DejaVuSans-48"/>
      <use x="576.269531" xlink:href="#DejaVuSans-50"/>
      <use x="639.892578" xlink:href="#DejaVuSans-49"/>
      <use x="703.515625" xlink:href="#DejaVuSans-32"/>
      <use x="735.302734" xlink:href="#DejaVuSans-45"/>
      <use x="771.386719" xlink:href="#DejaVuSans-32"/>
      <use x="803.173828" xlink:href="#DejaVuSans-115"/>
      <use x="855.273438" xlink:href="#DejaVuSans-116"/>
      <use x="894.482422" xlink:href="#DejaVuSans-97"/>
      <use x="955.761719" xlink:href="#DejaVuSans-114"/>
      <use x="996.875" xlink:href="#DejaVuSans-116"/>
      <use x="1036.083984" xlink:href="#DejaVuSans-32"/>
      <use x="1067.871094" xlink:href="#DejaVuSans-97"/>
      <use x="1129.150391" xlink:href="#DejaVuSans-116"/>
      <use x="1168.359375" xlink:href="#DejaVuSans-32"/>
      <use x="1200.146484" xlink:href="#DejaVuSans-49"/>
      <use x="1263.769531" xlink:href="#DejaVuSans-55"/>
      <use x="1327.392578" xlink:href="#DejaVuSans-58"/>
      <use x="1361.083984" xlink:href="#DejaVuSans-51"/>
      <use x="1424.707031" xlink:href="#DejaVuSans-56"/>
      <use x="1488.330078" xlink:href="#DejaVuSans-58"/>
      <use x="1522.021484" xlink:href="#DejaVuSans-51"/>
      <use x="1585.644531" xlink:href="#DejaVuSans-49"/>
      <use x="1649.267578" xlink:href="#DejaVuSans-46"/>
      <use x="1681.054688" xlink:href="#DejaVuSans-49"/>
      <use x="1744.677734" xlink:href="#DejaVuSans-55"/>
      <use x="1808.300781" xlink:href="#DejaVuSans-52"/>
     </g>
    </g>
    <g id="line2d_32">
     <path d="M 111.4 104.096563 
L 131.4 104.096563 
" style="fill:none;stroke:#00bfbf;stroke-linecap:square;stroke-width:2;"/>
    </g>
    <g id="line2d_33"/>
    <g id="text_16">
     <!-- bulk_NN 0.061s -->
     <g transform="translate(139.4 107.596563)scale(0.1 -0.1)">
      <defs>
       <path d="M 48.6875 27.296875 
Q 48.6875 37.203125 44.609375 42.84375 
Q 40.53125 48.484375 33.40625 48.484375 
Q 26.265625 48.484375 22.1875 42.84375 
Q 18.109375 37.203125 18.109375 27.296875 
Q 18.109375 17.390625 22.1875 11.75 
Q 26.265625 6.109375 33.40625 6.109375 
Q 40.53125 6.109375 44.609375 11.75 
Q 48.6875 17.390625 48.6875 27.296875 
z
M 18.109375 46.390625 
Q 20.953125 51.265625 25.265625 53.625 
Q 29.59375 56 35.59375 56 
Q 45.5625 56 51.78125 48.09375 
Q 58.015625 40.1875 58.015625 27.296875 
Q 58.015625 14.40625 51.78125 6.484375 
Q 45.5625 -1.421875 35.59375 -1.421875 
Q 29.59375 -1.421875 25.265625 0.953125 
Q 20.953125 3.328125 18.109375 8.203125 
L 18.109375 0 
L 9.078125 0 
L 9.078125 75.984375 
L 18.109375 75.984375 
z
" id="DejaVuSans-98"/>
       <path d="M 9.078125 75.984375 
L 18.109375 75.984375 
L 18.109375 31.109375 
L 44.921875 54.6875 
L 56.390625 54.6875 
L 27.390625 29.109375 
L 57.625 0 
L 45.90625 0 
L 18.109375 26.703125 
L 18.109375 0 
L 9.078125 0 
z
" id="DejaVuSans-107"/>
       <path d="M 50.984375 -16.609375 
L 50.984375 -23.578125 
L -0.984375 -23.578125 
L -0.984375 -16.609375 
z
" id="DejaVuSans-95"/>
       <path d="M 9.8125 72.90625 
L 23.09375 72.90625 
L 55.421875 11.921875 
L 55.421875 72.90625 
L 64.984375 72.90625 
L 64.984375 0 
L 51.703125 0 
L 19.390625 60.984375 
L 19.390625 0 
L 9.8125 0 
z
" id="DejaVuSans-78"/>
      </defs>
      <use xlink:href="#DejaVuSans-98"/>
      <use x="63.476562" xlink:href="#DejaVuSans-117"/>
      <use x="126.855469" xlink:href="#DejaVuSans-108"/>
      <use x="154.638672" xlink:href="#DejaVuSans-107"/>
      <use x="212.548828" xlink:href="#DejaVuSans-95"/>
      <use x="262.548828" xlink:href="#DejaVuSans-78"/>
      <use x="337.353516" xlink:href="#DejaVuSans-78"/>
      <use x="412.158203" xlink:href="#DejaVuSans-32"/>
      <use x="443.945312" xlink:href="#DejaVuSans-48"/>
      <use x="507.568359" xlink:href="#DejaVuSans-46"/>
      <use x="539.355469" xlink:href="#DejaVuSans-48"/>
      <use x="602.978516" xlink:href="#DejaVuSans-54"/>
      <use x="666.601562" xlink:href="#DejaVuSans-49"/>
      <use x="730.224609" xlink:href="#DejaVuSans-115"/>
     </g>
    </g>
    <g id="line2d_34">
     <path d="M 111.4 119.052813 
L 131.4 119.052813 
" style="fill:none;stroke:#bfbf00;stroke-linecap:square;stroke-width:2;"/>
    </g>
    <g id="line2d_35"/>
    <g id="text_17">
     <!-- predict 0.196s -->
     <g transform="translate(139.4 122.552813)scale(0.1 -0.1)">
      <defs>
       <path d="M 10.984375 1.515625 
L 10.984375 10.5 
Q 14.703125 8.734375 18.5 7.8125 
Q 22.3125 6.890625 25.984375 6.890625 
Q 35.75 6.890625 40.890625 13.453125 
Q 46.046875 20.015625 46.78125 33.40625 
Q 43.953125 29.203125 39.59375 26.953125 
Q 35.25 24.703125 29.984375 24.703125 
Q 19.046875 24.703125 12.671875 31.3125 
Q 6.296875 37.9375 6.296875 49.421875 
Q 6.296875 60.640625 12.9375 67.421875 
Q 19.578125 74.21875 30.609375 74.21875 
Q 43.265625 74.21875 49.921875 64.515625 
Q 56.59375 54.828125 56.59375 36.375 
Q 56.59375 19.140625 48.40625 8.859375 
Q 40.234375 -1.421875 26.421875 -1.421875 
Q 22.703125 -1.421875 18.890625 -0.6875 
Q 15.09375 0.046875 10.984375 1.515625 
z
M 30.609375 32.421875 
Q 37.25 32.421875 41.125 36.953125 
Q 45.015625 41.5 45.015625 49.421875 
Q 45.015625 57.28125 41.125 61.84375 
Q 37.25 66.40625 30.609375 66.40625 
Q 23.96875 66.40625 20.09375 61.84375 
Q 16.21875 57.28125 16.21875 49.421875 
Q 16.21875 41.5 20.09375 36.953125 
Q 23.96875 32.421875 30.609375 32.421875 
z
" id="DejaVuSans-57"/>
      </defs>
      <use xlink:href="#DejaVuSans-112"/>
      <use x="63.476562" xlink:href="#DejaVuSans-114"/>
      <use x="102.339844" xlink:href="#DejaVuSans-101"/>
      <use x="163.863281" xlink:href="#DejaVuSans-100"/>
      <use x="227.339844" xlink:href="#DejaVuSans-105"/>
      <use x="255.123047" xlink:href="#DejaVuSans-99"/>
      <use x="310.103516" xlink:href="#DejaVuSans-116"/>
      <use x="349.3125" xlink:href="#DejaVuSans-32"/>
      <use x="381.099609" xlink:href="#DejaVuSans-48"/>
      <use x="444.722656" xlink:href="#DejaVuSans-46"/>
      <use x="476.509766" xlink:href="#DejaVuSans-49"/>
      <use x="540.132812" xlink:href="#DejaVuSans-57"/>
      <use x="603.755859" xlink:href="#DejaVuSans-54"/>
      <use x="667.378906" xlink:href="#DejaVuSans-115"/>
     </g>
    </g>
    <g id="line2d_36">
     <path d="M 111.4 133.730938 
L 131.4 133.730938 
" style="fill:none;stroke:#008000;stroke-linecap:square;stroke-width:2;"/>
    </g>
    <g id="line2d_37"/>
    <g id="text_18">
     <!-- testAccuracy 0.005s -->
     <g transform="translate(139.4 137.230938)scale(0.1 -0.1)">
      <defs>
       <path d="M 34.1875 63.1875 
L 20.796875 26.90625 
L 47.609375 26.90625 
z
M 28.609375 72.90625 
L 39.796875 72.90625 
L 67.578125 0 
L 57.328125 0 
L 50.6875 18.703125 
L 17.828125 18.703125 
L 11.1875 0 
L 0.78125 0 
z
" id="DejaVuSans-65"/>
       <path d="M 10.796875 72.90625 
L 49.515625 72.90625 
L 49.515625 64.59375 
L 19.828125 64.59375 
L 19.828125 46.734375 
Q 21.96875 47.46875 24.109375 47.828125 
Q 26.265625 48.1875 28.421875 48.1875 
Q 40.625 48.1875 47.75 41.5 
Q 54.890625 34.8125 54.890625 23.390625 
Q 54.890625 11.625 47.5625 5.09375 
Q 40.234375 -1.421875 26.90625 -1.421875 
Q 22.3125 -1.421875 17.546875 -0.640625 
Q 12.796875 0.140625 7.71875 1.703125 
L 7.71875 11.625 
Q 12.109375 9.234375 16.796875 8.0625 
Q 21.484375 6.890625 26.703125 6.890625 
Q 35.15625 6.890625 40.078125 11.328125 
Q 45.015625 15.765625 45.015625 23.390625 
Q 45.015625 31 40.078125 35.4375 
Q 35.15625 39.890625 26.703125 39.890625 
Q 22.75 39.890625 18.8125 39.015625 
Q 14.890625 38.140625 10.796875 36.28125 
z
" id="DejaVuSans-53"/>
      </defs>
      <use xlink:href="#DejaVuSans-116"/>
      <use x="39.208984" xlink:href="#DejaVuSans-101"/>
      <use x="100.732422" xlink:href="#DejaVuSans-115"/>
      <use x="152.832031" xlink:href="#DejaVuSans-116"/>
      <use x="192.041016" xlink:href="#DejaVuSans-65"/>
      <use x="258.699219" xlink:href="#DejaVuSans-99"/>
      <use x="313.679688" xlink:href="#DejaVuSans-99"/>
      <use x="368.660156" xlink:href="#DejaVuSans-117"/>
      <use x="432.039062" xlink:href="#DejaVuSans-114"/>
      <use x="473.152344" xlink:href="#DejaVuSans-97"/>
      <use x="534.431641" xlink:href="#DejaVuSans-99"/>
      <use x="589.412109" xlink:href="#DejaVuSans-121"/>
      <use x="648.591797" xlink:href="#DejaVuSans-32"/>
      <use x="680.378906" xlink:href="#DejaVuSans-48"/>
      <use x="744.001953" xlink:href="#DejaVuSans-46"/>
      <use x="775.789062" xlink:href="#DejaVuSans-48"/>
      <use x="839.412109" xlink:href="#DejaVuSans-48"/>
      <use x="903.035156" xlink:href="#DejaVuSans-53"/>
      <use x="966.658203" xlink:href="#DejaVuSans-115"/>
     </g>
    </g>
   </g>
  </g>
 </g>
 <defs>
  <clipPath id="pe26fb10b5b">
   <rect height="381.6" width="614.4" x="102.4" y="76.32"/>
  </clipPath>
 </defs>
</svg>
